<svg xmlns="http://www.w3.org/2000/svg" viewBox="0 0 215.1 517.5"><path d="M107.5,0V117.4H74.6L95.5,10.3a1.5,1.5,0,0,1,.1-.7A12.1,12.1,0,0,1,107.4,0Z" style="fill:#e30613"/><path d="M107.5,117.4V497.3l-88,19.4-3.4.7H14.7A14.7,14.7,0,0,1,0,502.8a6.1,6.1,0,0,1,.1-1.4h0l.5-2.6,74-381.3Z" style="fill:#fff"/><path d="M140.4,117.4H107.5V0h.1a12.2,12.2,0,0,1,11.9,9.6c0,.2.1.4.1.7Z" style="fill:#cc1518"/><path d="M215.1,502.8a14.7,14.7,0,0,1-14.7,14.7H199l-3.4-.7-88.1-19.4V117.4h32.9l74.1,381.3.5,2.6h0C215,501.8,215.1,502.3,215.1,502.8Z" style="fill:#f6f6f6"/></svg>