<svg xmlns="http://www.w3.org/2000/svg" viewBox="0 0 140 140"><path d="M65.7 7.4V133c0 .3-1.8.7-4 .7s-4-.4-4-.7V7.4c0-.4 1.7-.6 4-.6s4 .2 4 .6z" stroke="#000" stroke-miterlimit="10"/><path stroke="#4287f5" stroke-miterlimit="10" d="M114.5 11.7l-6.1-5.4L57 9.2v11.2l51.9-2.3 5.6-6.4z"/><path stroke="#000" stroke-miterlimit="10" d="M25.5 32.8l3.6-6.4 37.9-6v11.5l-37.7 5.7-3.8-4.8zM100.7 34.2L96.5 29 57 34.7v11.8L96.1 41l4.6-6.8z"/><path stroke="#000" stroke-miterlimit="10" d="M44.7 46.8l3.2-5.4L65 47.7v11.6L46.6 54l-1.9-7.2zM55.6 14.3h1.2v1.17h-1.2zM67 25.9h1.2v1.23H67z"/></svg>