<svg xmlns="http://www.w3.org/2000/svg" viewBox="0 0 1525.2 692.4"><text transform="translate(0 572.1)" style="font-size:459px;font-family:Barlow-ExtraBoldItalic, Barlow;font-weight:800;font-style:italic"><tspan style="letter-spacing:-0.001999931917211329em">G</tspan><tspan x="269.9" y="0" style="letter-spacing:-0.012984664351851851em">e</tspan><tspan x="509.5" y="0">t </tspan><tspan x="770.2" y="0" style="font-family:Barlow-Medium, Barlow;font-weight:500;font-style:normal">lo</tspan><tspan x="1132.8" y="0" style="font-family:Barlow-Medium, Barlow;font-weight:500;font-style:normal;letter-spacing:-0.000993583197167756em">s</tspan><tspan x="1355.9" y="0" style="font-family:Barlow-Medium, Barlow;font-weight:500;font-style:normal;letter-spacing:0.000002127587145969499em">t</tspan></text><path d="M741.3,6.1V634.3c0,1.5-9.1,3.2-20.2,3.2s-20-1.7-20-3.2V6.1c0-1.8,8.6-3.2,19.8-3.2S741.3,4.3,741.3,6.1Z" style="fill:none;stroke:#000;stroke-miterlimit:10;stroke-width:1.5px"/><polygon points="985.1 27.8 954.6 0.8 697.5 15.3 697.5 71.2 957.1 59.6 985.1 27.8" style="fill:none;stroke:#000;stroke-miterlimit:10;stroke-width:1.5px"/><polygon points="540.2 132.9 558.1 101.3 747.4 71.2 747.4 128.4 559.2 156.9 540.2 132.9" style="fill:none;stroke:#000;stroke-miterlimit:10;stroke-width:1.5px"/><polygon points="916.3 139.9 895.1 114.1 697.5 142.8 697.5 201.4 893.1 174.2 916.3 139.9" style="fill:none;stroke:#000;stroke-miterlimit:10;stroke-width:1.5px"/><polygon points="636 203 652.1 175.9 737.4 207.6 737.4 265.5 645.8 239.3 636 203" style="fill:none;stroke:#000;stroke-miterlimit:10;stroke-width:1.5px"/><rect x="690.7" y="40.4" width="5.8" height="5.84" style="fill:none;stroke:#000;stroke-miterlimit:10;stroke-width:1.5px"/><rect x="747.4" y="98.7" width="6.1" height="6.14" style="fill:none;stroke:#000;stroke-miterlimit:10;stroke-width:1.5px"/></svg>