<svg xmlns="http://www.w3.org/2000/svg" viewBox="0 0 1482.1 638.7"><path d="M28.5,549Q0,521.8,0,476.4a131.3,131.3,0,0,1,.9-17.9l11.5-94.1c2.7-23.2,10.2-43.6,22.3-61.2a123.7,123.7,0,0,1,47-41.1q29-14.7,64.3-14.7c21.7,0,40.7,4,56.9,12.2s28.7,19.2,37.4,33.2a88.4,88.4,0,0,1,13.1,47.3c0,2.8-.3,7.2-.9,13.3a9.3,9.3,0,0,1-3,5.8,10,10,0,0,1-6.2,2H185.4c-5.2,0-7.6-.9-7.3-2.7v-2.8a23.8,23.8,0,0,0,.5-5.5c0-10.7-3.6-19.7-10.6-26.8s-17-10.8-29.8-10.8a48.1,48.1,0,0,0-34.5,13.7c-9.5,9.2-15.1,21.2-16.9,35.8L74.4,460.8a34.2,34.2,0,0,0-.5,7.4c0,12.5,4.1,22.7,12.2,30.5s18.4,11.7,30.9,11.7,24.2-3.6,33.1-10.8,14.1-17.2,15.6-30.1l1.4-11.9c0-2.1-.9-3.2-2.8-3.2H123.5a6.6,6.6,0,0,1-5.5-2.3c-1.3-1.5-1.7-3.5-1.4-6l5.5-44.9a9.9,9.9,0,0,1,2.7-6,8.5,8.5,0,0,1,6-2.3H239.6a6.7,6.7,0,0,1,5.5,2.3,7.8,7.8,0,0,1,1.4,6l-7.4,59.6c-2.7,23-10.1,43.2-22,60.6a119,119,0,0,1-46.8,40.4q-29,14.3-64.7,14.2Q56.9,576,28.5,549Z"/><path d="M408.5,507a62.7,62.7,0,0,0,20.7-11.8c2.1-2.1,4.1-3.2,5.9-3.2a5.7,5.7,0,0,1,5.1,3.2l23.4,34a8.9,8.9,0,0,1,1.8,5.5c0,1.9-.9,4-2.7,6.5a125.7,125.7,0,0,1-41.8,25.7,142,142,0,0,1-50.5,9.1q-30.3,0-52.3-11.2a87.9,87.9,0,0,1-34.9-31.5q-15.6-25.6-15.6-60.5a175.3,175.3,0,0,1,1.4-21.2,169.4,169.4,0,0,1,10.1-41.3,121.8,121.8,0,0,1,45-57.6,119.1,119.1,0,0,1,69.7-21.8q44.6,0,68.4,28.5c15.9,19,24.6,45.4,26.2,79.4,0,12.2-.3,21.6-.9,28s-3.4,8.3-9.2,8.3H343.8c-2.2,0-3.2,1-3.2,3.2a26,26,0,0,0,1.4,9.6,27.6,27.6,0,0,0,13.5,17.4q10.3,6,26.4,6A79.8,79.8,0,0,0,408.5,507Zm-57.8-87.9-2.8,6.8-.4,1.4a1.8,1.8,0,0,0,1.1,1.6,4,4,0,0,0,2.1.7h60.6a3.4,3.4,0,0,0,2.7-1.1,2.7,2.7,0,0,0,.5-2.6l-.9-5.9c-1.6-7.4-4.8-13.1-9.7-17.2s-11.5-6.2-19.7-6.2C369.5,396.6,358.3,404.1,350.7,419.1Z"/><path d="M659.8,393.8a9,9,0,0,1-6.2,2.3H616.9c-1.8,0-3.1,1.1-3.7,3.2l-9.6,80.3a47.6,47.6,0,0,0-.5,7.4c0,12.5,5.8,18.8,17.5,18.8h14.2a6.7,6.7,0,0,1,5.5,2.3,7.8,7.8,0,0,1,1.4,6l-6,48.2c-.3,4.9-3.2,7.6-8.7,8.2-13.5.6-23.1.9-28.9.9q-35.4,0-52.8-10.3c-11.6-6.9-17.5-19.6-17.5-38.3,0-2.5.4-6.4,1-11.9l13.7-111.6v-.9c0-1.5-.9-2.3-2.7-2.3H518.2a7.5,7.5,0,0,1-5.7-2.3,7.1,7.1,0,0,1-1.6-6l5.5-44.5c.9-5.5,3.9-8.2,9.2-8.2h21.5a3.9,3.9,0,0,0,2.6-1,2.8,2.8,0,0,0,1.1-2.3l6.4-51.8a9.1,9.1,0,0,1,9.2-8.3H621a6.6,6.6,0,0,1,5.5,2.3c1.3,1.5,1.7,3.5,1.4,6l-6.4,51.8q0,3.3,2.7,3.3h37.2c2.5,0,4.3.7,5.5,2.3a7.6,7.6,0,0,1,1.4,5.9l-5.5,44.5A9.1,9.1,0,0,1,659.8,393.8Z"/><path d="M781.2,567.8V255.7c0-3.1,1.5-4.6,4.6-4.6h34.9c3,0,4.6,1.5,4.6,4.6V567.8c0,3-1.6,4.6-4.6,4.6H785.8C782.7,572.4,781.2,570.8,781.2,567.8Z"/><path d="M925.3,558.8c-16.8-11.5-28.6-27.4-35.3-47.9-5.5-16.6-8.3-35.2-8.3-56s2.6-40.1,7.8-55.1c6.8-20.2,18.5-36.1,35.4-47.5s36.8-17.2,60.1-17.2,41.2,5.7,57.6,17.2,28.1,27.1,35.1,47q8.3,23.4,8.3,55.1t-8.3,56.5c-6.7,20.5-18.3,36.4-34.9,47.9S1006.9,576,984.5,576,942.2,570.3,925.3,558.8Zm91.4-31.2c9.1-6.9,15.7-16.6,19.7-29.1s5.1-26,5.1-43.2-1.6-31.3-4.6-42.7-10.6-22.2-19.8-29.1-20.3-10.3-33.5-10.3-23.4,3.4-32.6,10.3-15.7,16.6-19.7,29.1c-3.4,10.7-5.1,25-5.1,42.7s1.7,32.1,5.1,43.2,10.2,22.2,19.5,29.1,20.6,10.3,33.7,10.3S1007.5,534.5,1016.7,527.6Z"/><path d="M1177.5,566.9c-13.9-5.6-24.7-13.1-32.3-22.8s-11.5-20.2-11.5-31.9v-5c0-3.1,1.5-4.6,4.6-4.6h33c3.1,0,4.6,1.5,4.6,4.6v2.3c0,8.5,4.7,16,14,22.5s21.2,9.6,35.6,9.6,24.9-3,33.5-8.9,12.9-13.6,12.9-22.8-4-15.5-12-19.9-20.8-9.1-38.5-14a369.4,369.4,0,0,1-43.9-14.9,82.9,82.9,0,0,1-29.8-21.6c-8.1-9.3-12.2-21.4-12.2-36,0-20.5,8.1-36.8,24.1-48.9s37.5-18.2,64.1-18.2c17.7,0,33.4,2.9,47,8.5s24.1,13.6,31.5,23.7a56.5,56.5,0,0,1,11,33.9v1.4c0,3.1-1.6,4.6-4.6,4.6h-32.1c-3.1,0-4.6-1.5-4.6-4.6v-1.4c0-8.8-4.4-16.3-13.1-22.2s-20.6-9-35.6-9c-13.5,0-24.4,2.6-32.8,7.8s-12.6,12.3-12.6,21.1,4,15.6,12.1,20.2,21.2,9.5,39.3,14.7,32.5,9.7,44.3,14.5a78,78,0,0,1,30,21.1c8.3,9.3,12.4,21.5,12.4,36.5q0,31.2-24.5,49.6T1226,575.1C1207.6,575.1,1191.5,572.4,1177.5,566.9Z"/><path d="M1477.5,375h-49.6a1.6,1.6,0,0,0-1.8,1.8V498.5c0,12.8,2.9,22.1,8.7,27.7s14.9,8.5,27.1,8.5h13.3c3.1,0,4.6,1.6,4.6,4.6v28.5c0,3-1.5,4.6-4.6,4.6-9.8.6-16.8.9-21.1.9q-34.9,0-52.6-12.6t-17.6-46.6V376.8c0-1.2-.6-1.8-1.9-1.8h-28c-3,0-4.6-1.5-4.6-4.6V343.3c0-3,1.6-4.6,4.6-4.6h28c1.3,0,1.9-.6,1.9-1.8V282.7c0-3,1.5-4.6,4.6-4.6h33c3.1,0,4.6,1.6,4.6,4.6v54.2a1.6,1.6,0,0,0,1.8,1.8h49.6c3.1,0,4.6,1.6,4.6,4.6v27.1C1482.1,373.5,1480.6,375,1477.5,375Z"/><path d="M720.2,6.4V634.6c0,1.5-9.1,3.1-20.2,3.1s-20-1.6-20-3.1V6.4c0-1.8,8.6-3.3,19.8-3.3S720.2,4.6,720.2,6.4Z" style="fill:none;stroke:#000;stroke-miterlimit:10;stroke-width:2px"/><polygon points="964 28 933.5 1 676.4 15.5 676.4 71.5 936 59.9 964 28" style="fill:none;stroke:#000;stroke-miterlimit:10;stroke-width:2px"/><polygon points="519 133.2 537 101.5 726.3 71.5 726.3 128.7 538.1 157.1 519 133.2" style="fill:none;stroke:#000;stroke-miterlimit:10;stroke-width:2px"/><polygon points="895.2 140.1 873.9 114.3 676.4 143.1 676.4 201.6 872 174.5 895.2 140.1" style="fill:none;stroke:#000;stroke-miterlimit:10;stroke-width:2px"/><polygon points="614.9 203.3 630.9 176.1 716.3 207.8 716.3 265.7 624.7 239.6 614.9 203.3" style="fill:none;stroke:#000;stroke-miterlimit:10;stroke-width:2px"/><rect x="669.6" y="40.7" width="5.8" height="5.84" style="fill:none;stroke:#000;stroke-miterlimit:10;stroke-width:2px"/><rect x="726.3" y="98.9" width="6.1" height="6.14" style="fill:none;stroke:#000;stroke-miterlimit:10;stroke-width:2px"/></svg>