<svg xmlns="http://www.w3.org/2000/svg" viewBox="0 0 237.1 102.4"><path d="M4.6,93C1.5,90.1,0,86.3,0,81.4a21,21,0,0,1,.1-2.8L2,63.5a21.4,21.4,0,0,1,3.5-9.8,21.1,21.1,0,0,1,7.6-6.6,23.3,23.3,0,0,1,10.3-2.3,20.3,20.3,0,0,1,9.1,1.9,13.5,13.5,0,0,1,5.9,5.4,13.7,13.7,0,0,1,2.1,7.5,20.3,20.3,0,0,1-.1,2.2,2,2,0,0,1-.5.9,1.7,1.7,0,0,1-1,.3H29.7c-.9,0-1.3-.1-1.2-.4v-.5c0-.2.1-.5.1-.9a6.1,6.1,0,0,0-1.7-4.3,6.5,6.5,0,0,0-4.8-1.7,8,8,0,0,0-5.5,2.2,9.6,9.6,0,0,0-2.7,5.7l-2,15.8a4.1,4.1,0,0,0-.1,1.2,6.6,6.6,0,0,0,2,4.9,7,7,0,0,0,4.9,1.9A7.9,7.9,0,0,0,24,85.1a6.7,6.7,0,0,0,2.5-4.8l.2-1.9c0-.3-.1-.5-.4-.5H19.8a1,1,0,0,1-.9-.4.9.9,0,0,1-.2-.9l.8-7.2a1.9,1.9,0,0,1,.5-1,1.2,1.2,0,0,1,.9-.3H38.3a1.2,1.2,0,0,1,.9.3,1.2,1.2,0,0,1,.2,1l-1.1,9.5a22.2,22.2,0,0,1-3.6,9.7,18.9,18.9,0,0,1-7.5,6.5,22.9,22.9,0,0,1-10.3,2.3C11.7,97.4,7.6,95.9,4.6,93Z" style="fill:#fffff2"/><path d="M65.4,86.3a8.9,8.9,0,0,0,3.3-1.9,1.4,1.4,0,0,1,.9-.5.9.9,0,0,1,.8.5l3.8,5.5a1.2,1.2,0,0,1,.3.9,1.9,1.9,0,0,1-.5,1,18.9,18.9,0,0,1-6.7,4.1,21.8,21.8,0,0,1-8,1.5,18,18,0,0,1-8.4-1.8,13.8,13.8,0,0,1-5.6-5.1,17.7,17.7,0,0,1-2.5-9.7c0-1,.1-2.2.2-3.3a26.7,26.7,0,0,1,1.7-6.6A19.1,19.1,0,0,1,63,58.2c4.8,0,8.4,1.5,11,4.5s3.9,7.3,4.1,12.7c0,2,0,3.5-.1,4.5s-.5,1.3-1.5,1.3H55a.5.5,0,0,0-.5.5,6.3,6.3,0,0,0,.2,1.6,5.1,5.1,0,0,0,2.2,2.8,8.7,8.7,0,0,0,4.2.9A12.5,12.5,0,0,0,65.4,86.3Zm-9.3-14-.4,1.1v.2a.2.2,0,0,0,.2.2H66.2c.1-.2.2-.3.1-.4v-1a5.2,5.2,0,0,0-1.6-2.8,5,5,0,0,0-3.1-.9A5.8,5.8,0,0,0,56.1,72.3Z" style="fill:#fffff2"/><path d="M105.6,68.2a1.3,1.3,0,0,1-1,.4H98.7a.6.6,0,0,0-.6.5L96.6,81.9a4.1,4.1,0,0,0-.1,1.2c0,2,.9,3,2.8,3h2.3a.9.9,0,0,1,.8.4,1.5,1.5,0,0,1,.3,1l-1,7.7c0,.8-.5,1.2-1.4,1.3H95.7c-3.8,0-6.6-.5-8.5-1.6s-2.7-3.2-2.7-6.1a17.2,17.2,0,0,1,.1-2l2.2-17.8v-.2c0-.2-.1-.3-.4-.3H82.9a1,1,0,0,1-.9-.4,1.2,1.2,0,0,1-.3-.9l.9-7.2a1.5,1.5,0,0,1,1.5-1.3h3.8a.4.4,0,0,0,.2-.4L89.2,50a1.8,1.8,0,0,1,.4-1,1.7,1.7,0,0,1,1-.3h8.8a1,1,0,0,1,.8.3,1.7,1.7,0,0,1,.3,1l-1.1,8.3a.5.5,0,0,0,.5.5h5.9a1,1,0,0,1,.9.4.9.9,0,0,1,.2.9l-.9,7.2A1.3,1.3,0,0,1,105.6,68.2Z" style="fill:#fffff2"/><path d="M125,96V46.1c0-.5.2-.7.7-.7h5.6c.5,0,.7.2.7.7V96c0,.5-.2.8-.7.8h-5.6C125.2,96.8,125,96.5,125,96Z" style="fill:#fffff2"/><path d="M148.1,94.6a14.4,14.4,0,0,1-5.7-7.7,27.3,27.3,0,0,1-1.3-8.9,27.9,27.9,0,0,1,1.2-8.8,14.2,14.2,0,0,1,5.7-7.6,16.2,16.2,0,0,1,9.6-2.8,15.2,15.2,0,0,1,9.2,2.8,14.7,14.7,0,0,1,5.6,7.5,25.8,25.8,0,0,1,1.4,8.8,27.4,27.4,0,0,1-1.4,9,14.1,14.1,0,0,1-5.5,7.7,15.8,15.8,0,0,1-9.4,2.8A15.6,15.6,0,0,1,148.1,94.6Zm14.6-5a9,9,0,0,0,3.1-4.6,23.4,23.4,0,0,0,.8-6.9,26.6,26.6,0,0,0-.7-6.9,8.6,8.6,0,0,0-3.2-4.6,8.4,8.4,0,0,0-5.3-1.7,8.3,8.3,0,0,0-5.2,1.7,8.6,8.6,0,0,0-3.2,4.6,25.1,25.1,0,0,0-.8,6.9A26.1,26.1,0,0,0,149,85a8.4,8.4,0,0,0,3.1,4.6,8.9,8.9,0,0,0,5.4,1.7A8.5,8.5,0,0,0,162.7,89.6Z" style="fill:#fffff2"/><path d="M188.4,95.9a13.4,13.4,0,0,1-5.2-3.6,8.4,8.4,0,0,1-1.8-5.1v-.8c0-.5.2-.8.7-.8h5.3a.7.7,0,0,1,.8.8v.3a4.2,4.2,0,0,0,2.2,3.6,10.1,10.1,0,0,0,5.7,1.6,8.6,8.6,0,0,0,5.3-1.5,4.1,4.1,0,0,0,2.1-3.6,3.4,3.4,0,0,0-1.9-3.2,26.3,26.3,0,0,0-6.2-2.2,62.1,62.1,0,0,1-7-2.4,13,13,0,0,1-4.8-3.5,8.4,8.4,0,0,1-1.9-5.7,9.6,9.6,0,0,1,3.8-7.9c2.6-1.9,6-2.9,10.3-2.9a19.7,19.7,0,0,1,7.5,1.4,10.9,10.9,0,0,1,5,3.8,8.8,8.8,0,0,1,1.8,5.4v.2c0,.5-.2.8-.7.8h-5.2c-.5,0-.7-.3-.7-.8v-.2a4.4,4.4,0,0,0-2.1-3.6,10.4,10.4,0,0,0-5.7-1.4,9.1,9.1,0,0,0-5.2,1.3,3.7,3.7,0,0,0-.1,6.6,32.1,32.1,0,0,0,6.3,2.3c2.8.8,5.2,1.6,7.1,2.3a14.5,14.5,0,0,1,4.8,3.4,8.7,8.7,0,0,1,1.9,5.9,9.4,9.4,0,0,1-3.9,7.9c-2.6,1.9-6.1,2.9-10.4,2.9A20.6,20.6,0,0,1,188.4,95.9Z" style="fill:#fffff2"/><path d="M236.4,65.2h-7.9a.3.3,0,0,0-.3.3V85c0,2,.4,3.5,1.4,4.4a5.8,5.8,0,0,0,4.3,1.4H236c.5,0,.8.2.8.7V96a.7.7,0,0,1-.8.8h-3.3c-3.8,0-6.6-.6-8.5-2s-2.8-3.8-2.8-7.4v-22a.3.3,0,0,0-.3-.3h-4.5a.6.6,0,0,1-.7-.7V60.1a.6.6,0,0,1,.7-.7h4.5a.3.3,0,0,0,.3-.3V50.4a.7.7,0,0,1,.8-.7h5.2a.7.7,0,0,1,.8.7v8.7a.3.3,0,0,0,.3.3h7.9c.5,0,.7.2.7.7v4.4C237.1,65,236.9,65.2,236.4,65.2Z" style="fill:#fffff2"/><path d="M115.2,1.1V101.6c0,.3-1.4.5-3.2.5s-3.2-.2-3.2-.5V1.1c0-.3,1.4-.5,3.2-.5S115.2.8,115.2,1.1Z" style="fill:none;stroke:#fffff2;stroke-miterlimit:10;stroke-width:0.5px"/><polygon points="154.2 4.6 149.4 0.3 108.2 2.6 108.2 11.5 149.8 9.7 154.2 4.6" style="fill:none;stroke:#fffff2;stroke-miterlimit:10;stroke-width:0.5px"/><polygon points="83 21.4 85.9 16.3 116.2 11.5 116.2 20.7 86.1 25.2 83 21.4" style="fill:none;stroke:#fffff2;stroke-miterlimit:10;stroke-width:0.5px"/><polygon points="143.2 22.5 139.8 18.4 108.2 23 108.2 32.4 139.5 28 143.2 22.5" style="fill:none;stroke:#fffff2;stroke-miterlimit:10;stroke-width:0.5px"/><polygon points="98.4 32.6 101 28.3 114.6 33.3 114.6 42.6 100 38.4 98.4 32.6" style="fill:none;stroke:#fffff2;stroke-miterlimit:10;stroke-width:0.5px"/><rect x="107.1" y="6.6" width="0.9" height="0.93" style="fill:none;stroke:#fffff2;stroke-miterlimit:10;stroke-width:0.5px"/><rect x="116.2" y="15.9" width="1" height="0.98" style="fill:none;stroke:#fffff2;stroke-miterlimit:10;stroke-width:0.5px"/></svg>