<svg xmlns="http://www.w3.org/2000/svg" viewBox="0 0 244 115.9"><text transform="translate(0 96.6)" style="font-size:73.44000244140625px;fill:#fffff2;font-family:Barlow-ExtraBoldItalic, Barlow;font-weight:800;font-style:italic"><tspan style="letter-spacing:-0.001994612883038394em">G</tspan><tspan x="43.2" y="0" style="letter-spacing:-0.012991578578190072em">e</tspan><tspan x="81.5" y="0">t </tspan><tspan x="123.2" y="0" style="font-family:Barlow-Medium, Barlow;font-weight:500;font-style:normal">lo</tspan><tspan x="181.2" y="0" style="font-family:Barlow-Medium, Barlow;font-weight:500;font-style:normal;letter-spacing:-0.000997306441519197em">s</tspan><tspan x="216.9" y="0" style="font-family:Barlow-Medium, Barlow;font-weight:500;font-style:normal">t</tspan></text><path d="M118.6,1V101.5c0,.2-1.4.5-3.2.5s-3.2-.3-3.2-.5V1c0-.3,1.4-.5,3.2-.5S118.6.7,118.6,1Z" style="fill:none;stroke:#fffff2;stroke-miterlimit:10;stroke-width:0.24px"/><polygon points="157.6 4.4 152.7 0.1 111.6 2.4 111.6 11.4 153.1 9.5 157.6 4.4" style="fill:none;stroke:#fffff2;stroke-miterlimit:10;stroke-width:0.24px"/><polygon points="86.4 21.3 89.3 16.2 119.6 11.4 119.6 20.6 89.5 25.1 86.4 21.3" style="fill:none;stroke:#fffff2;stroke-miterlimit:10;stroke-width:0.24px"/><polygon points="146.6 22.4 143.2 18.2 111.6 22.9 111.6 32.2 142.9 27.9 146.6 22.4" style="fill:none;stroke:#fffff2;stroke-miterlimit:10;stroke-width:0.24px"/><polygon points="101.8 32.5 104.3 28.1 118 33.2 118 42.5 103.3 38.3 101.8 32.5" style="fill:none;stroke:#fffff2;stroke-miterlimit:10;stroke-width:0.24px"/><rect x="110.5" y="6.5" width="0.9" height="0.93" style="fill:none;stroke:#fffff2;stroke-miterlimit:10;stroke-width:0.24px"/><rect x="119.6" y="15.8" width="1" height="0.98" style="fill:none;stroke:#fffff2;stroke-miterlimit:10;stroke-width:0.24px"/></svg>