<?xml version="1.0" encoding="utf-8"?>
<!-- Generator: Adobe Illustrator 24.1.0, SVG Export Plug-In . SVG Version: 6.00 Build 0)  -->
<svg version="1.1" id="Layer_1" xmlns="http://www.w3.org/2000/svg" xmlns:xlink="http://www.w3.org/1999/xlink" x="0px" y="0px"
	 viewBox="0 0 760.8 743.6" style="enable-background:new 0 0 760.8 743.6;" xml:space="preserve">
<style type="text/css">
	.st0{fill:#192232;}
	.st1{opacity:0.5;}
	.st2{fill:none;stroke:#FFCC66;stroke-width:0.3;stroke-miterlimit:10;}
</style>
<g id="Layer_2">
	<rect y="0.3" class="st0" width="760.8" height="743.4"/>
</g>
<g class="st1">
	<path class="st2" d="M370.5,15.1l2,1.9l1.9,1.9c11.7,10.4,24.2,16.2,35,16.2l0,0c10.8,0,19.9-5.3,27.1-15.8
		c3.9-5.9,6.9-12.4,8.8-19.2H445c-1.9,6.7-4.9,13.2-8.8,19c-7.2,10.4-16.1,15.7-26.8,15.7l0,0c-10.8,0-23.1-5.8-34.8-16.2
		c-0.6-0.5-1.3-1.2-1.8-1.8l-2.1-2c-5.2-4.6-10.8-8.8-16.3-12.9L352,0.1h-0.6c0.9,0.7,1.9,1.3,2.8,2.1
		C359.7,6.2,365.3,10.5,370.5,15.1z"/>
	<path class="st2" d="M23.1,49c7.6-7,15.5-14.4,20.5-24.8c2.6-5.3,5.1-13.8,6.2-24.1h-0.3c-1.2,10.3-3.7,18.6-6.2,23.9
		c-5,10.4-12.8,17.7-20.4,24.8S5,65.5,0.4,78.9l-0.3,1.2v1.2c0.2-0.8,0.4-1.6,0.7-2.3C5.3,65.7,14.4,57.2,23.1,49z"/>
	<path class="st2" d="M406.8,18.8L406.8,18.8c3.9,0,7.7-1.4,10.7-3.8c2.5-2,4.6-4.4,6.2-7.2l2.2-3.3c0.7-1.4,1.2-2.9,1.6-4.4h-0.3
		c-0.5,1.4-1,2.8-1.6,4.2c-0.8,1.1-1.5,2.2-2.1,3.3c-1.6,2.7-3.7,5.1-6.2,7.1c-3,2.4-6.7,3.7-10.5,3.8l0,0
		c-9.7,0-19.1-8.7-27.4-16.4l-2.2-2h-0.5l2.4,2.2C387.5,10.1,396.9,18.8,406.8,18.8z"/>
	<path class="st2" d="M6.5,110.8c1.7-9.2,3.4-17.8,5.9-23.9c4.3-10.4,13.1-19.1,22.5-28.3c5.8-5.7,11.8-11.6,16.8-18
		c5.7-7.1,10.5-14.9,14.1-23.3c2.1-5.2,4-10.4,5.6-15.8c0.2-0.5,0.3-1,0.5-1.4h-0.4c-0.1,0.4-0.3,0.8-0.4,1.3
		c-1.8,5.4-3.6,11-5.6,15.8c-3.6,8.3-8.4,16.1-14.1,23.2c-5,6.4-11,12.3-16.7,17.9C25.3,67.6,16.3,76.4,12,86.8
		c-2.5,6.1-4.1,14.8-5.9,23.9s-3.4,17.9-6,24.6l0,0v1l0.3-1C3.1,128.7,4.8,119.6,6.5,110.8z"/>
	<path class="st2" d="M35.2,224.5c12.3,4.9,27.5,10.9,33.4,23.4c0.4,6.7-2,12.5-4.5,18.6c-3.6,8.5-7.6,18.2-5.4,33.3
		c1.8,11.5,8.5,18.9,16.4,27.5c3.2,3.5,6.5,7.1,9.7,11.3c8.2,10.8,13.9,23.1,18.2,33.7s7.9,18.8,19.4,21.6
		c7.7,1.6,15.4,2.7,23.2,3.5c3.4,0.4,6.7,0.6,10.1,0.6c4.5,0,8.9-0.5,13.2-1.6c7.8-2.4,12.8-8.8,19.1-16.8c1.9-2.4,3.8-4.9,6-7.5
		s3.4-3.7,5.5-5.8c4.3-4.4,8.8-8.9,10-12.5c0.4-1.3,0.4-2.7,0.2-4.1c-0.1-1.3-0.2-2.5-0.1-3.8l0,0c-4.2-5.6-9.3-10-14.2-14.3
		c-8.4-7.3-16.3-14.3-19.3-25.6c-1.6-6-1-12.4,1.8-19.6s9.7-16,19.2-23.5l13.6-10.7c22-17.2,47-36.6,60.6-53.6l0,0
		c0.4-2.4,0.3-4.8-0.3-7.1c-1.7-7.1-7.3-15.5-15.3-23.2s-16.2-12.7-23.1-14.6l-2.8-0.7c-9.1-2-18.7-0.6-27.8,0.8s-15.5,2.3-22.8,1.4
		c-15.8-2.1-27.2-12.7-31.2-29c-5.3-21.5,9.3-35,23.4-48c10.4-9.7,21.2-19.6,24-32.8s-0.8-25.7-3.1-34.5c-0.9-3.6-2.1-7.1-3.3-10.6
		h-0.3c1.2,3.5,2.3,7.1,3.2,10.7c2.3,8.8,5.8,22.1,3.2,34.4s-13.5,22.9-23.9,32.5c-14.2,12.9-28.8,26.5-23.5,48.1
		c4,16.5,15.5,27.2,31.5,29.3c7.3,0.9,14.8-0.2,22.8-1.4s18.6-2.7,27.8-0.7l2.8,0.7c13.6,3.7,34.3,22.2,38.1,37.5
		c0.6,2.3,0.7,4.6,0.3,6.9c-13.6,16.9-38.5,36.4-60.5,53.5l-13.6,10.7c-9.6,7.6-16.4,16-19.3,23.7s-3.4,13.7-1.8,19.8
		c3,11.4,11,18.4,19.4,25.8c5.2,4.2,9.9,8.9,14.1,14.1c-0.1,1.3,0,2.5,0.1,3.8c0.2,1.3,0.1,2.7-0.2,4c-1.2,3.5-5.6,8-10,12.3
		c-2,2.1-4,4.1-5.5,5.9s-4.1,5-6,7.5c-6.2,8-11.2,14.3-18.9,16.6c-5.9,1.7-13.4,2.1-23.1,1c-6.7-0.7-16.3-1.8-23.2-3.5
		c-11.3-2.7-14.8-10.9-19.1-21.4s-10.1-22.8-18.3-33.8c-3.2-4.1-6.5-7.7-9.7-11.3c-7.9-8.5-14.6-15.8-16.3-27.2
		c-2.3-15,1.8-24.7,5.3-33.2c2.5-6.1,4.9-11.9,4.5-18.8l0,0c-5.9-12.5-21.2-18.6-33.5-23.5c-3.4-1.5-7-2.7-10.6-3.6
		c-8.1-1.8-16.4-2.9-24.7-3.3v0.4c8.3,0.3,16.5,1.4,24.6,3.2C28.3,221.8,31.8,223,35.2,224.5z"/>
	<path class="st2" d="M214.1,10.3c0.9,3.6,2.1,7.3,3.1,10.8c2.4,7.9,4.5,15.3,5.4,21.9c0.7,4.3,0.7,8.7,0,13
		c-1.8,10.2-8.7,18.2-15.3,25.9s-15.5,18-16.1,30.8s13.6,13,27.1,14.7l7.6,1c11.3,2,22.3,5.1,33,9.2c4,1.5,8,3.3,11.8,5.3
		c7.3,3.6,14.2,7,22.2,7.9c1,0.2,2.1,0.2,3.1,0.2c4.9-0.1,9.8-1.1,14.3-3c4.1-1.4,7.7-3,11.1-4.5c7.3-3.3,14.3-6.3,25-7.3
		c1.9-0.2,3.9-0.3,5.8-0.3c11.6,0,21.3,3.1,30.8,6s15.8,5,23.8,5c1.6,0,3.1-0.1,4.7-0.3c12.1-1.5,21.4-7.8,28.4-19.2
		s9.8-22.8,12.8-35.1c1.2-5,2.2-10.1,2.9-15.2c0.5-4.5-0.2-7.9-2.2-10.2c-3.7-4.3-11-4.5-19.6-4.8c-3.9,0-7.9-0.3-11.8-0.8
		c-16.8-2.1-30.8-4.3-46.4-10.8c-12.8-5.3-25.6-12-34.1-16.6C327.2,26,311,16.4,299.6,0.1h-0.4c11.4,16.4,27.7,26.2,42.1,34.1
		c11.1,6.1,22.5,11.7,34.2,16.6c15.5,6.5,29.7,8.7,46.5,10.9c3.9,0.5,7.9,0.6,11.8,0.8c8.5,0.3,15.8,0.5,19.3,4.6
		c2,2.3,2.7,5.5,2.2,10c-0.7,5.1-1.7,10.2-3,15.2c-5.9,24.3-14.4,50.7-40.9,54c-1.5,0.2-3.1,0.2-4.6,0.2c-7.9,0-15.6-2.4-23.8-4.9
		s-19.2-6-30.8-6l-5.8,0.2c-10.8,1-17.8,4.1-25.1,7.4c-3.5,1.5-7,3.1-11.1,4.5c-4.5,1.8-9.3,2.8-14.2,2.9h-3
		c-8-0.9-14.9-4.3-22.1-7.9c-3.9-1.9-7.8-3.8-11.9-5.4c-10.7-4.1-21.8-7.2-33.1-9.1l-7.5-1c-13.4-1.8-26.1-3.4-26.9-14.5
		S200,91,207.6,82.1s13.5-15.7,15.4-26c0.6-4.3,0.6-8.8,0-13.1c-0.9-6.7-3.1-14.1-5.4-21.9c-1.1-3.6-2.2-7.3-3.2-10.9
		s-1.3-4.7-2-7.1s-0.5-2-0.8-3h-0.4l0.9,3.1L214.1,10.3z"/>
	<path class="st2" d="M24.6,23.5c3.6-5.6,6.8-12.3,6.9-23.4h-0.4c0,11-3.2,17.7-6.8,23.2c-4.5,7-11,11.2-18,15.6
		c-2.1,1.4-4.2,2.7-6.2,4.2v0.4c2.1-1.5,4.2-2.9,6.4-4.2C13.4,34.8,20,30.6,24.6,23.5z"/>
	<path class="st2" d="M237.2,31.7c2.1,4.8,4.4,9.7,5.1,14.8c2.1,14.1-5.2,23.2-12.2,32.1c-4.8,6.1-9.3,11.8-10.7,18.8
		c-0.3,1.4-0.4,2.8-0.2,4.2c0,0.8,0.1,1.5,0.1,2.6l0,0c1.8,5,7.1,8.5,11.3,10.5c15.2,7.5,39.8,11,57.8,13.6c2.7,0.4,5.5,0.6,8.2,0.6
		l0,0c7,0,13.5-1.2,20.3-2.4s15-2.7,23.7-2.7c2.3,0,4.7,0.1,7,0.3l3.5,0.2l7.8,0.5c6.3,0.5,12.6,1.5,18.7,3.1
		c7.5,1.6,14.5,3.2,24.9,3.2h3.3c8.3-1.3,15.9-10,18.9-21.8c2.5-9.6,2-22.5-7.2-29.6s-42-15.7-58.8-17c-3.1-0.3-6.3-0.5-9.4-0.4
		c-3.6,0-7.2-0.1-10.8-0.4c-11.6-1.1-21.2-5.6-32.1-15.3C293,34.8,285.7,25.5,275.2,7.2c-1.2-2.3-2.3-4.6-3.1-7.1h-0.4
		c0.9,2.5,1.9,4.9,3.2,7.2C285.4,25.7,292.7,35,306.2,47c10.9,9.7,20.6,14.3,32.2,15.3c4.4,0.4,7.7,0.5,10.9,0.5s5.8,0,9.4,0.3
		c16.8,1.4,47.9,8.6,58.7,17c8.9,7,9.5,19.7,7,29.3c-3,11.5-10.5,20.1-18.6,21.4h-3.3c-10.3,0-17.4-1.6-24.8-3.3
		c-6.2-1.5-12.5-2.5-18.8-3.1l-7.8-0.5l-3.5-0.2c-2.3-0.2-4.6-0.3-7-0.3c-8.8,0-16.4,1.4-23.7,2.7s-13.3,2.4-20.3,2.4l0,0
		c-2.7,0-5.4-0.1-8.1-0.5c-18-2.6-42.6-6.1-57.7-13.6c-4.1-2-9.4-5.4-11.1-10.3c-0.1-1.1-0.1-1.9-0.1-2.6c-0.3-1.4-0.2-2.8,0.1-4.2
		c1.4-6.9,5.9-12.6,10.7-18.6c7.1-8.9,14.4-18.1,12.3-32.3c-0.8-5.2-3-10.2-5.2-15l-2.5-5.6c-3.4-8.3-6.1-16.9-8.1-25.7h-0.3
		c2,8.8,4.7,17.4,8.1,25.8C235.5,27.8,236.3,29.8,237.2,31.7z"/>
	<path class="st2" d="M36.6,173.9c4.9-5.5,9.2-11.3,13.8-17.4c7.3-9.7,14.8-19.7,24.5-28l2-2c0.6-0.6,1.2-1.3,1.8-1.8
		c6.4-5.6,13.6-10.1,20.6-14.4c4.8-3,9.9-6.1,14.6-9.6l11.1-8.4c5.5-4.3,11.2-8.7,17-12.6c2.7-1.9,5.5-3.7,8.5-5.6
		c14.7-9.4,31.3-20,33.8-39.1c1.4-10.2-1.3-23.2-7-34.9H177c5.6,11.7,8.3,24.7,7,34.8c-2.5,19-19.1,29.6-33.7,38.9l-8.5,5.5
		c-5.8,4-11.5,8.4-17,12.7c-3.6,2.8-7.3,5.7-11.1,8.4S104,107,99.1,110c-7,4.3-14.3,8.8-20.6,14.4c-0.7,0.6-1.3,1.3-1.9,1.9
		c-0.6,0.7-1.3,1.3-2,1.9c-9.7,8.3-17.2,18.4-24.5,28.1c-4.6,6.1-8.9,11.9-13.8,17.3c-9.5,10.7-22.2,18-36.2,20.9v0.4
		C14.2,191.9,26.9,184.6,36.6,173.9z"/>
	<path class="st2" d="M15,160.2c4.7-6.9,4.7-19.4,4.2-29.5c-0.4-8.2-0.2-23.8,5.1-36.8c4.1-9.9,14-18.7,23.4-27.2l4.3-3.9
		c19-17.3,28.5-32.9,36.8-50.9c0.7-1.5,1.3-3.2,1.9-4.8c0.7-2,1.6-4,2.5-5.9l0.6-1.1h-0.4C93.2,0.4,93,0.7,92.9,1
		c-1,1.9-1.8,3.9-2.5,6c-0.6,1.6-1.2,3.2-2,4.7c-8.2,18-17.6,33.6-36.6,50.9l-4.3,3.8C38,75,28.1,83.8,24,93.8
		c-5.4,13-5.5,28.7-5.1,36.9c0.5,10.1,0.4,22.5-4.2,29.3c-3.4,4.9-8.8,8.4-14.6,11.4v0.4C6,168.7,11.5,165.2,15,160.2z"/>
	<path class="st2" d="M5.3,9.7c2.3-2.3,3.3-6,3.3-9.6H8.2c0,3.5-1,7.1-3.1,9.4c-1.3,1.4-3.1,2.3-5,2.4l0,0v0.3l0,0
		C2.1,12.1,4,11.2,5.3,9.7z"/>
	<path class="st2" d="M113.6,5.6c-5,5.9-8.7,14-12.2,21.8L99.8,31c-5.2,11.1-11.6,25-18.6,34.4c-3.8,5.2-10.1,8.9-16.7,12.8
		c-9.4,5.6-19.2,11.4-22.9,22c-1.4,3.8-1.4,8-0.1,13.2c1.1,2.8,3.8,4.6,6.8,4.4l0,0c5.2,0,11.4-4,13.9-6.2c5-4.2,9.5-10.1,13.7-15.8
		c2.3-3,4.6-6.2,7.1-9.1s5.2-6,8.6-8c8.1-4.8,18.4-8.4,29.4-12.3c15.2-5.3,30.9-10.8,40.7-19.8c5.2-4.7,8.3-12,8.5-20.2
		c0.4-8.6-2.7-16.9-8.5-23.2c-1-1.1-2.1-2.1-3.3-3.1h-0.6c1.3,1,2.5,2.1,3.6,3.3c5.7,6.3,8.8,14.5,8.5,23c-0.3,8-3.3,15.3-8.5,20
		c-9.7,8.9-25.4,14.4-40.5,19.7c-11,3.9-21.3,7.5-29.4,12.3c-3.5,2-7.6,6.7-8.8,8.1s-4.8,6-7.1,9.1c-4.2,5.7-8.6,11.5-13.6,15.7
		c-2.5,2.2-8.6,6.2-13.7,6.2c-2.8,0.2-5.5-1.5-6.5-4.2c-1.3-5.1-1.3-9.3,0.1-13c3.7-10.5,13.4-16.2,22.8-21.8
		c6.6-3.9,12.9-7.7,16.8-12.9c7-9.5,13.4-23.4,18.6-34.5c0.5-1.2,1.1-2.4,1.6-3.5c3.6-7.8,7.2-15.8,12.2-21.7
		c1.9-2.2,4.1-4.2,6.5-5.8h-0.6C117.5,1.7,115.4,3.5,113.6,5.6z"/>
	<path class="st2" d="M253,95.8h0.1c0.6,0.7,1,1.6,1.3,2.5v0.2l0,0c2.6,2.4,6.5,3.7,10.9,3.7l0,0c6.3,0,12.6-2.7,15.6-6.6
		c1.8-2.2,2.5-5.1,1.8-7.9c-1.4-5.2-6.4-6.9-11.8-8.3h-0.1c-9.2,1.3-18.7,7-17.9,16.2L253,95.8z M270.9,79.9
		c5.4,1.4,10.2,3.1,11.5,8.1c0.7,2.7,0.1,5.5-1.7,7.6c-3,3.9-9.1,6.5-15.3,6.5l0,0c-3.9,0.1-7.6-1.2-10.6-3.7l0,0
		c-0.3-0.9-0.8-1.8-1.4-2.6C252.5,85.4,264.5,80.9,270.9,79.9z"/>
	<path class="st2" d="M348.6,101.9v0.2h0.1c5.6,3.5,15,5.9,23.3,5.9l0,0c5.4,0,15-1.1,17.4-8.4l0,0c0.1-2.5-0.9-5-2.8-6.7
		c-3.5-3.7-10.7-6-18.6-6c-10,0-20.7,3.9-20.9,12.4h0.1C347.8,100.1,348.3,100.9,348.6,101.9z M368.1,87.2c7.8,0,14.9,2.3,18.4,5.9
		c1.7,1.7,2.7,4.1,2.7,6.5c-2.4,7.1-11.8,8.2-17.1,8.2l0,0c-8.2,0-17.5-2.4-23.1-5.9v-0.2c-0.3-0.9-0.8-1.7-1.3-2.5
		C347.8,91,358.4,87.2,368.1,87.2z"/>
	<path class="st2" d="M97.4,270.3c-2,8.6-4,17.5-3.2,30.8c6.7,23.1,14.6,40.5,24,53.4c2.4,3.4,5.2,6.4,8.4,9.1
		c5.3,4.1,11.9,6.3,18.6,6.3l0,0c6.8,0,12.6-2.4,16.3-6.7s5.7-11.5,4.6-20.2c-0.9-5.1-2.3-10.1-4.2-14.9c-1.7-4.9-3.5-10-4.1-14.9
		c-2.6-18.8,5.5-38.3,21.4-52.2c6.5-5.5,13.4-10.6,20.6-15.3c7.3-5,14.8-10.2,21.9-16.7c10.9-9.8,23.2-21,25.2-37.9l0,0
		c-1.3-8-3.7-16.2-12.8-22.1c-5.4-3.4-11.6-5.1-17.9-4.9c-6.1,0-12.3,1.2-18.8,2.4s-14.5,2.5-22.1,2.5c-1.8,0-3.7,0-5.5-0.2
		c-4.4-0.5-8.7-1.4-12.9-2.6c-6.5-1.6-13.1-3.2-18.4-3.2l-3,0.2c-7.1,1.1-14.7,7.3-20.5,12.5c-9.6,8.8-18.7,17.9-20.2,25.3
		c-0.5,3.7-0.5,7.4,0,11.1c0.6,4.6,1.5,9.2,2.7,13.7c1.9,7.6,3.9,15.4,2.9,27.9C99.8,259.3,98.8,264.9,97.4,270.3z M97.9,225.8
		c-1.3-4.5-2.2-9.1-2.7-13.8c-0.4-3.4-0.6-8,0-10.9c1.5-7.4,10.5-16.4,20.1-25.1c5.7-5.2,13.2-11.3,20.2-12.4c1-0.2,2-0.2,3-0.2
		c5.2,0,11.9,1.6,18.3,3.2c4.3,1.1,8.6,2,13,2.6l5.5,0.2c7.7,0,15-1.3,22.1-2.6s12.8-2.3,18.8-2.3s12.6,1.5,17.7,4.8
		c9,5.8,11.4,13.9,12.7,21.8c-2,16.7-14.3,27.8-25.1,37.7c-7.1,6.4-14.7,11.6-21.9,16.6c-7.2,4.7-14.1,9.8-20.6,15.4
		c-16.1,13.9-24.2,33.5-21.6,52.5c0.6,4.9,2.4,10,4.2,14.9s3.5,10.1,4.1,14.9c1.2,8.6-0.4,15.3-4.5,19.9s-9.3,6.5-16,6.5l0,0
		c-6.6,0-13.1-2.2-18.4-6.2c-3.1-2.6-5.9-5.7-8.3-9c-9.4-12.8-17.3-30.2-24-53.3c-0.8-13.2,1.3-22.1,3.3-30.6
		c1.5-5.5,2.4-11.1,2.9-16.7C101.7,241.2,99.8,233.3,97.9,225.8L97.9,225.8z"/>
	<path class="st2" d="M119.5,269.4c0.4,1.5,0.6,3.1,0.9,4.9c0.9,6,2.1,13,8.3,16.2h0.1c7.6-0.6,12.3-7.3,17.4-14.4
		c1.8-2.6,3.7-5.1,5.7-7.5c11.1-12.9,23.7-21.4,35.9-29.7c8.5-5.8,16.6-11.3,23.7-18c2.1-1.3,4-3,5.4-5c1.1-1.6,2.3-2.9,3.8-4.1
		c6.5-8.2,8.7-17.8,5.5-24.4c-2-4.1-7-9.1-19.5-9.1l-5.3,0.2c-4,0.4-8.6,1.3-13.4,2.2s-11.5,2.1-17.6,2.7l-3.8,0.4
		c-16.4,1.6-26.2,2.7-36.1,14.3c-7,8.3-10.8,18.6-11.8,32.3c-0.7,8.8-0.2,18.5,0.3,27C119.2,261.7,119.4,265.8,119.5,269.4z
		 M119,230.6c1.1-13.7,4.8-23.9,11.8-32.1c9.7-11.6,19-12.5,35.9-14.3l3.7-0.3c6.2-0.7,12.2-1.8,17.6-2.8s9.4-1.7,13.4-2.1l5.3-0.3
		c12.3,0,17.2,4.9,19.2,9c3.1,6.5,1,15.9-5.4,23.9c-1.5,1.2-2.8,2.6-3.9,4.1c-1.6,2-3,3.9-5.2,5h-0.1c-7.1,6.7-15.2,12.2-23.8,18
		c-12.1,8.3-24.7,16.8-35.9,29.8c-2,2.3-3.8,4.9-5.7,7.5c-5,7-9.7,13.7-17.1,14.2c-6-3.2-7.1-9.7-8.1-16c-0.3-1.7-0.5-3.3-0.8-4.9
		c-0.1-3.5-0.3-7.6-0.5-11.8C118.9,249,118.4,239.3,119,230.6L119,230.6z"/>
	<path class="st2" d="M347.5,227.3c2.7,25.1,5.2,48.8,24.8,65.7c13.1,11.4,34.3,23.5,54.7,23.5l0,0c12.4,0,22.5-4.6,30.2-13.7
		s10.1-17.1,14-27.8c0.5-1.2,0.9-2.4,1.3-3.6l2.4-6.1c4.3-11.5,8.5-22.4,9.5-31.4c2.3-19.9-4.9-27.9-13.9-35.7
		c-13.9-12-32-12.9-51.2-13.9c-4.5-0.3-9.9-0.7-15.6-1.3c-8.9-0.8-19-1.7-27.5-1.7s-15.1,1.1-18.3,3.2c-13.6,9-12,30.9-10.7,39.9
		L347.5,227.3z M358.1,184.8c3.2-2.1,9.1-3.1,18.1-3.1s18.6,0.9,27.5,1.7c5.7,0.5,11.1,1,15.6,1.2c19.1,1,37.2,1.9,51,13.9
		c8.9,7.6,16,15.6,13.8,35.3c-1.1,9-5.2,19.9-9.5,31.4c-0.8,2-1.6,4.1-2.3,6.1s-1,2.4-1.4,3.6c-3.9,10.7-7.3,19.8-14,27.7
		s-17.6,13.5-29.9,13.5c-20.2,0-41.4-12.1-54.5-23.4c-19.4-16.8-22-40.4-24.6-65.4l-0.4-2.9C346.2,215.4,344.6,193.7,358.1,184.8z"
		/>
	<path class="st2" d="M366.2,231.5c2.3,21.6,4.3,40.2,21.8,54.1c8.2,6.4,22.8,14,37.4,14l0,0c7.2,0,13.3-1.9,18.1-5.6
		c13.7-10.6,19.6-32.6,20.6-48.2c1-18-5.6-33.9-17.7-42.3s-25.4-8.6-40.4-9.4l-9.9-0.3c-9.4,0-21.1,1.2-27,10.4
		c-3.4,6.9-3.2,15.1-3,23.1C366.1,228.7,366.2,230.1,366.2,231.5z M369.4,204.3c5.9-9,17.4-10.2,26.7-10.2c3.3,0,6.5,0.2,9.9,0.4
		c14.9,0.8,29.1,1.5,40.2,9.3s18.6,24.1,17.5,42c-0.9,15.6-6.8,37.4-20.4,47.9c-4.8,3.7-10.8,5.6-17.9,5.6l0,0
		c-14.4,0-29.1-7.6-37.2-14c-17.3-13.8-19.2-31.5-21.6-53.9c-0.1-1.3-0.1-2.7-0.2-4.1C366.2,219.4,366,211.2,369.4,204.3
		L369.4,204.3z"/>
	<path class="st2" d="M151.1,228h0.1l1.4,1.4c0.5,0.6,1.1,1.1,1.8,1.5h0.1c10.8-2.1,21-6.7,29.7-13.5c3.3-2.6,7.1-6.2,7.9-10.6l0,0
		l-1.7-1.8c-0.5-0.4-0.9-0.8-1.2-1.3H189l-4.6-0.2c-8.7,0-20.6,2.6-27.7,10c-3.8,3.9-5.9,9.2-5.6,14.7L151.1,228z M156.9,213.4
		c7-7.3,18.8-9.8,27.5-9.8c1.5,0,3,0,4.5,0.2l1.3,1.3c0.6,0.5,1.1,1.1,1.5,1.7c-0.8,4.3-4.5,7.8-7.7,10.3
		c-8.7,6.7-18.8,11.3-29.5,13.5c-0.6-0.4-1.1-0.9-1.6-1.4c-0.4-0.5-0.9-1-1.4-1.4C151.2,222.5,153.2,217.2,156.9,213.4L156.9,213.4z
		"/>
	<path class="st2" d="M402.8,275.7c5.4,3.7,11.8,5.7,18.4,5.9l0,0c7.8,0.1,15-3.7,19.5-10c11.1-15.3,6.1-44.2-9.8-56.2
		c-6.4-4.8-14.2-7.3-22.2-7.2c-2.5,0-5.1,0.3-7.6,0.7c-11.1,1.9-16.8,10.7-16.6,25.3C384.6,245.4,387.2,265.6,402.8,275.7z
		 M401.2,209.2c2.5-0.4,5-0.6,7.5-0.6c7.9-0.1,15.6,2.4,22,7.1c7.5,5.7,12.9,15.4,14.8,26.8s0,21.8-5.1,28.9
		c-4.3,6.3-11.6,10-19.2,9.8l0,0c-6.5-0.1-12.8-2.1-18.2-5.7c-15.4-10-18-30.2-18.2-41.3C384.6,219.7,390.3,211.1,401.2,209.2
		L401.2,209.2z"/>
	<path class="st2" d="M44.4,374.2c1.4,2.5,2.9,4.9,4.5,7.2H49c2.3,3,6.2,7.9,11.6,7.1s13.6-7.8,12.2-18c-1.1-8.2-6.6-14.2-17.2-18.9
		l-2.1-0.9c-5.2-2.1-10.1-4.2-12.3-9.1c-2.3-9.7-2.8-22.8-3.3-36.7c-0.4-11.5-0.8-23.4-2.3-33.5c-3-19.6-13-31.3-30.7-35.7
		c-1.6-0.4-3.2-0.8-4.8-1v0.3l4.7,1c17.5,4.4,27.5,16,30.4,35.4c1.6,10.2,2,22.1,2.4,33.6c0.5,13.9,0.9,27,3.3,36.7
		c2.3,5.1,7.2,7.2,12.4,9.4c0.7,0.3,1.4,0.6,2.1,0.9c10.6,4.5,16,10.4,17.1,18.5c1.3,10-6.2,16.8-11.9,17.7s-9.1-4.1-11.3-7h-0.1
		c-1.7-2.3-3.2-4.7-4.5-7.2c-4.5-8.2-9.3-16.8-22.8-14.5c-6.3,1-13.5,4.4-21.8,10.3v0.4c8.3-5.9,15.5-9.4,21.9-10.4
		C35.2,357.6,39.9,366.1,44.4,374.2z"/>
	<path class="st2" d="M8.8,327.4c7.8-8.6,12-21.3,11.4-34.9s-5.4-25.1-13.1-32.1c-2.1-1.5-4.5-2.6-7-3.3v0.3
		c2.4,0.7,4.7,1.8,6.8,3.3c7.6,6.9,12.5,18.8,13,31.8s-3.6,26.1-11.3,34.7c-2.6,2.7-5.4,5.2-8.5,7.3v0.4
		C3.3,332.8,6.2,330.3,8.8,327.4z"/>
	<path class="st2" d="M325.6,329.7c-0.5-2.6-1.2-5-2.3-7.4c-7.4-18.5-24.9-37.9-37.6-48.9c-8.7-7.5-15.9-11.9-21.5-13
		c-1.2-0.3-2.5-0.4-3.8-0.4c-15.1,0-33.7,15.4-34.9,28.9c0.1,0.6,0.3,1.3,0.4,2c0.3,1,0.4,2,0.4,3l0,0c5.2,12.3,11.3,24.2,18.2,35.6
		c3,4.9,6.1,9.7,10,13.6c9.7,9.7,26.4,16.4,40.7,16.4l0,0c7.9,0,14.6-2,19.7-5.9C323.5,347.2,327.1,339.1,325.6,329.7z M295.2,359.3
		L295.2,359.3c-14.2,0-30.8-6.7-40.4-16.3c-3.9-3.9-7-8.7-10-13.6c-6.9-11.4-12.9-23.2-18.1-35.5c0-1-0.1-2.1-0.4-3.1
		c-0.2-0.6-0.4-1.3-0.4-1.9c1.1-13.4,19.5-28.6,34.5-28.6c1.3,0,2.5,0.2,3.8,0.4c5.5,1.1,12.7,5.5,21.3,13
		c12.6,10.9,30,30.3,37.4,48.7c1,2.3,1.8,4.8,2.4,7.3c1.4,9.4-2.1,17.3-10.6,23.8C309.6,357.3,303.1,359.3,295.2,359.3L295.2,359.3z
		"/>
	<path class="st2" d="M292.5,300.1c-7.6-7-16.7-12-23.7-13.1c-1.2-0.3-2.5-0.4-3.8-0.4c-3.9-0.2-7.7,1.3-10.5,4.1
		c-3,3.1-4.5,8-4.3,13.8c3.1,13.3,6.2,24.1,15.6,31.7c5.8,4.8,14.9,8,23,8l0,0c9.7,0,16.4-4.5,18.4-12.2c0.5-2.6,0.6-5.3,0.1-7.9
		C306.2,316.4,300.8,307.6,292.5,300.1z M306.8,331.9c-1.9,7.6-8.5,11.9-18,11.9l0,0c-8,0-17-3.1-22.8-7.9
		c-9.3-7.5-12.3-18.2-15.4-31.4c-0.3-5.7,1.2-10.5,4.2-13.6c3-3.1,5.9-3.9,10.2-3.9l3.7,0.3c14.6,2.3,35.8,20.6,38.3,36.8
		C307.4,326.7,307.3,329.3,306.8,331.9z"/>
	<path class="st2" d="M377.5,360.2h-0.1c-0.9-0.2-1.9-0.2-2.8-0.2c-2.1,0-4.1,0.3-6.1,0.9c-11.2,3.3-22.4,12.9-26.1,22.5
		c-2.7,6.7-1.6,14.1-0.5,21.3s1.9,13,0.1,18.5c-2.9,8.5-10.5,13.8-17.9,19s-15.9,11.1-17.9,20.4c-1.2,6.5,0.6,13.2,5,18.2
		c6.2,7.4,17.6,12.2,29,12.2l0,0c7.5,0,14-2,19-5.7s6.5-7,9.4-11.2l0.4-0.7c2.8-5.6,3.7-12.2,4.7-19.3s1.8-12.5,4-18.8
		c1.1-3.3,2.5-6.6,4-9.8c4-9.2,7.4-17.2,5.8-36.8C386.5,379.4,384.6,365.8,377.5,360.2z M381.3,427.3c-1.3,3-2.7,6.1-4,9.9
		c-2.1,6.3-3,12.7-3.9,18.9s-2,13.6-4.7,19.1l-0.4,0.6c-3,4.5-5.5,8.3-9.3,11.2s-11.4,5.6-18.8,5.6c-11.2,0-22.6-4.7-28.8-12.1
		c-4.3-4.9-6-11.4-4.8-17.8c1.9-9.2,9.6-14.5,17.7-20.2s15.1-10.6,18-19.2c1.9-5.6,0.9-11.9,0-18.6s-2.2-14.6,0.4-21.2
		c3.7-9.5,14.8-19,25.9-22.2c1.9-0.6,4-0.9,6-0.9h2.7c6.9,5.6,8.9,19.1,9.9,30.2C388.8,410.2,385.4,418.1,381.3,427.3L381.3,427.3z"
		/>
	<path class="st2" d="M53.1,430.1c-1.6-1.4-3.6-2.1-5.7-2.2c-3.6,0-7.5,2.2-10.8,6.1s-6.3,10.9-5.6,15.3c1.5,6.8,7.5,11.6,14.4,11.5
		l0,0c4,0.1,7.8-1.8,10.1-5C60.4,449.1,59,435.2,53.1,430.1z M55.3,455.5c-2.3,3.1-6,5-9.9,4.9l0,0c-6.7,0-12.6-4.6-14.1-11.2
		c-0.7-4.3,1.5-10.3,5.6-15s7.1-5.9,10.5-5.9c2,0,4,0.8,5.5,2.1C58.7,435.4,60,449,55.3,455.5z"/>
	<path class="st2" d="M181.4,476.5c-0.3-0.6-0.5-1.1-0.7-1.7l0,0c-1.4-0.9-3-1.5-4.7-1.5c-2.7,0.1-5.2,1.3-7,3.3
		c-1.7,1.7-2.6,4.1-2.4,6.5l0,0c1.1,2.4,3.5,3.9,6.1,3.8l0,0c4.1,0,9.1-3.6,9.6-8.4l0,0C182.1,477.8,181.8,477.1,181.4,476.5z
		 M172.7,486.6L172.7,486.6c-2.5,0.1-4.7-1.3-5.7-3.6c-0.2-2.3,0.6-4.6,2.2-6.3c1.7-1.9,4.2-3.1,6.8-3.1c1.6,0,3.1,0.5,4.4,1.4
		c0.2,0.6,0.4,1.2,0.7,1.7c0.4,0.5,0.7,1.2,0.8,1.8C181.5,483.1,176.7,486.6,172.7,486.6z"/>
	<path class="st2" d="M657.5,6.6c8.4,4.1,18.2,4.5,26.9,1.1c4-1.7,7.6-4.3,10.4-7.6h-0.5c-2.7,3.2-6.1,5.7-10,7.3
		c-8.6,3.4-18.3,3-26.6-1.1c-3-1.5-5.6-3.6-7.8-6.2h-0.5C651.6,2.8,654.4,5,657.5,6.6z"/>
	<path class="st2" d="M355.5,21c3.3,2.4,6.5,4.9,9.5,7.3c7.5,5.8,14.4,11.2,22.1,13.8c8.7,4.3,16.9,6.5,24.8,6.5
		c6.5,0,12.8-1.5,18.6-4.5c17.4-8.7,27.2-27.8,30.9-44H461c-3.7,16.1-13.4,35-30.6,43.7c-12.9,6.5-27.4,5.8-43.1-2
		c-7.7-2.6-14.7-8-22-13.8c-3.1-2.4-6.3-4.9-9.6-7.3l-10.9-7.4c-6.4-4.1-12.6-8.5-18.6-13.2h-0.6c6.1,4.8,12.4,9.3,19,13.5L355.5,21
		z"/>
	<path class="st2" d="M480.1,27.7c2.4,5.7,7.5,8.4,15.8,8.4c4.1-0.1,8.1-0.5,12.1-1.3h0.1l2.4-0.2c3.4,0.2,6.7,0.8,9.9,2
		c1.7,0.5,3.5,1,5.1,1.3l4.1,0.9c5.6,1,11.3,2.2,16.6,4.6l6.2,2.7c10.2,4.4,20.7,9,27.5,17.8l1.2,1.7c4.8,7.1,8.9,14.7,12.9,22
		s9.1,16.8,14.7,24.6s12.7,16.1,19.7,24.2l7,8.2c11.2,13.2,21.7,25.7,41.2,25.7l0,0c5.5-0.1,10.9-0.9,16.2-2.4
		c16.8-4.5,46.6-15.8,56.8-40.4c2.7-6.5,4.4-15.6,6.3-25.2c1.5-7.3,3-14.8,4.9-21v-1.2c-2.2,7.3-3.9,14.6-5.2,22.1
		c-1.9,9.6-3.7,18.7-6.4,25.2c-10.1,24.4-39.7,35.7-56.5,40.2c-5.2,1.5-10.7,2.3-16.1,2.4l0,0c-19.3,0-29.8-12.5-40.9-25.6l-7-8.2
		c-7-8.1-14.3-16.6-19.8-24.1s-10.1-16.4-14.6-24.6s-8.1-15-12.9-22.1l-1.2-1.7c-6.9-8.9-17.4-13.5-27.7-17.9l-6.2-2.7
		c-5.2-2.5-11-3.6-16.6-4.7l-4.1-0.8l-5.1-1.4c-3.2-0.9-6.6-1.9-10-1.9l-2.5,0.2h-0.1c-4,0.8-8,1.2-12,1.3c-8.1,0-13.2-2.7-15.4-8.2
		s-1.6-15.3-0.9-23.9l0.3-3.6h-0.4c-0.1,1.1-0.1,2.4-0.3,3.6C478.5,12.3,477.8,21.9,480.1,27.7z"/>
	<path class="st2" d="M626,10.9c10.4,14.1,29,22.6,49.7,22.6c5,0,9.9-0.5,14.8-1.6c18.3-4,24.2-16.6,26.8-31.8H717
		c-0.7,4.6-2,9.1-3.7,13.4c-4.3,9.8-11.6,15.6-22.9,18.1c-4.8,1-9.8,1.5-14.7,1.5c-20.6,0-39-8.4-49.5-22.4c-1.2-3.5-2.2-7-3-10.6
		h-0.4c0.8,3.6,1.8,7.2,3.1,10.7L626,10.9z"/>
	<path class="st2" d="M525.9,18.3c9.3,1.3,18.2,4.1,26.8,6.8c5.5,1.7,11.3,3.5,17.1,4.9c3.7,0.9,7.4,1.6,10.7,2.1
		c2.9,0.5,5.9,0.7,8.9,0.8l0,0c5.1,0,8.1-1.1,9.1-3.2c2.6-5.6,4.6-17.8,4.7-29.6h-0.4c-0.1,11.7-2.1,23.9-4.6,29.5
		c-0.9,1.9-3.9,2.9-8.8,2.9c-2.9,0-5.9-0.3-8.8-0.7c-3.3-0.5-7-1.2-10.7-2.1c-5.9-1.4-11.6-3.2-17.1-5c-8.6-2.7-17.5-5.5-26.9-6.8
		S509.3,10.3,505,0.1h-0.4C509,10.5,516.5,16.9,525.9,18.3z"/>
	<path class="st2" d="M731.5,9.2C731,22.1,730.6,33.4,722,40s-24.6,8.9-36.1,10.3l-3.3,0.5c-2.1,0.2-4.1,0.4-6.2,0.4l0,0
		c-11.6,0-24-4-36.1-7.7s-21.8-6.9-32.2-7.5H608c-5.9,1.7-7.4,8.1-6.8,13.4c1.7,20.9,9.1,38,25.5,59.1c3.3,4.2,6.4,8.5,9.4,12.7
		c5.1,7,9.9,13.7,15.5,19.9c8.4,9.5,19,14.3,31.4,14.3l0,0c14.4,0,30.6-6.7,44.4-18.5c14.3-15.4,16.4-35.9,17.4-55.5
		c0.1-1.6,0.1-3.1,0.1-4.9c0.3-7.8,0.5-17.7,4.4-22.5c3.3-4,7.2-7.6,11.5-10.5v-0.4c-4.4,3-8.4,6.6-11.8,10.7
		c-3.9,4.9-4.2,14.8-4.4,22.7c-0.1,1.7-0.1,3.3-0.2,4.8c-0.9,19.6-3.1,40-17.2,55.4C713.4,148.3,697.3,155,683,155
		c-12,0.2-23.4-5-31.1-14.1c-5.5-6.4-10.7-13.1-15.5-20c-3-4.1-6.1-8.4-9.4-12.6c-16.4-21-23.7-38.1-25.4-58.9
		c-0.6-5.2,0.8-11.4,6.5-13c10.3,0.6,21.4,4,32.1,7.4s24.5,7.7,36.2,7.7l0,0c2.1,0,4.1-0.1,6.2-0.4l3.4-0.4
		c11.4-1.4,27.2-3.5,36.2-10.4s9.2-18,9.7-31.1c0.1-2.7,0.2-5.6,0.3-8.4c0.1-0.2,0.1-0.5,0.1-0.7h-0.4v0.7
		C731.7,3.6,731.6,6.4,731.5,9.2z"/>
	<path class="st2" d="M737,183.9L737,183.9c-2.5,1.9-6.2,4.8-5.8,8.9h0.1c0.8,0.6,1.5,1.3,2.1,2h0.1c4.4,0.9,9,1.3,13.5,1.3l0,0
		c4.6,0,9.3-0.5,13.8-1.4v-0.4c-4.5,1.1-9.2,1.6-13.8,1.7c-4.5,0-9-0.5-13.4-1.4c-0.6-0.7-1.3-1.3-2-1.9c-0.3-3.8,3.1-6.5,5.5-8.6
		h0.1c4.3-3.4,9.9-6,15.9-8.7l7.7-3.6v-0.4l-7.9,3.7C747,177.8,741.3,180.4,737,183.9z"/>
	<path class="st2" d="M752.3,3c0.4,4.9,4.4,9.2,8.5,9.2v-0.3c-4,0-7.7-4.2-8.1-8.9c-0.1-1-0.1-1.9,0-2.9h-0.4
		C752.2,1.1,752.2,2,752.3,3z"/>
	<path class="st2" d="M703.2,68.3c-2.5,0-4.9,0.3-7.3,0.8c-5.3,1-11.1,2.7-17.2,4.5c-6.8,2.1-13.7,3.9-20.7,5.3
		c-6.3,1.1-9,3.9-8.3,8.5l0,0c2.2,4.9,4.1,10,5.7,15.2c3.9,11.9,7.9,24.1,17.6,30.5c4.8,3.1,10.5,4.7,16.2,4.6l0,0
		c9.9-0.1,19.4-4,26.6-10.9c5.8-5.7,10-14.8,11.3-24.6s-0.7-20-5.7-26.7C718.1,71.1,711.1,68.3,703.2,68.3z M715.6,126.5
		c-7.1,6.8-16.5,10.7-26.4,10.8c-5.7,0.1-11.2-1.4-16-4.5c-9.7-6.3-13.6-18.5-17.5-30.3c-1.6-5.2-3.4-10.3-5.6-15.2
		c-0.7-4.4,1.8-7,7.9-8.1c7-1.4,14-3.1,20.8-5.3c6.1-1.8,11.9-3.4,17.2-4.5c2.4-0.5,4.8-0.7,7.2-0.7c7.8,0,14.6,2.7,17.9,7.1
		C731.9,90.3,726.9,115.4,715.6,126.5L715.6,126.5z"/>
	<path class="st2" d="M299.2,225.3c1.8,3.4,3.7,6.9,5.2,10.4s2.7,6.1,4.1,9.2c8.2,18.6,16.7,37.9,29,53.4c5,6,10.3,11.7,15.9,17.2
		c5.1,4.8,9.8,9.8,14.3,15.1c1.9,2.4,3.7,4.9,5.2,7.6c3.4,5.2,6.7,10.2,12,13.6h1.6c20.4-1.2,38.1-2.3,57-5.7
		c13.4-2.5,22.9-5.1,28.1-7.8c10.9-5.5,13.8-15.5,17-26c0.3-1.1,0.7-2.2,1-3.3c4.6-14.9,11.2-30.1,28.4-39.5h0.1l0.4-0.5l10.7-5.7
		l19-9.9l8.2-4.3c4.1-2.3,8.5-4.6,12.7-6.7c2.9-1.5,5.6-3.3,8.2-5.3l1.9-1.4c2.4-1.9,5.1-3.5,8-4.7c5.7-2.2,11.9-2.5,17.9-2.8
		s10.6-0.4,15.7-1.9s8.2-2.7,11-6.8c9-13.2,4.4-23-3-35.5s-17.3-23.3-28.2-30.3c-2-1.2-4-2.3-6.2-3.2c-2.3-1-4.6-2.3-6.7-3.7
		c-2.5-1.7-4.9-3.5-7.2-5.3l-5.7-4.4c-7.9-5.7-17.4-12-28.1-15.8c-3.4-1-7-1.6-10.6-1.5c-2.9,0-5.8,0.3-8.6,0.8
		c-3.3,0.6-5.9,2.1-8.8,3.6c-1.2,0.7-2.4,1.4-3.7,2l-4.3,1.6c-1.9,0.6-3.7,1.4-5.5,2.3c-4.3,2.4-8.5,5.2-12.6,7.8s-7.9,5.3-12,7.6
		c-19.6,11-36.4,17.2-52.7,19.6c-4.9,0.7-9.8,1.1-14.7,1.1c-6,0-12.1-0.6-18-1.7c-4.7-0.9-9.3-2.1-13.9-3.5
		c-8.1-2.2-16.3-4.5-24.5-4.5c-4.2-0.1-8.4,0.6-12.3,2.1c-7.7,2.8-14.7,8.7-22,15c-3.7,3.2-7.6,6.5-11.8,9.6l-3.4,2.4
		c-3,2.2-6.7,4.7-9.9,7.4c-6,5.1-7.6,9.8-5.7,16.1S296.2,219.6,299.2,225.3z M297.6,193.2c3.2-2.7,6.9-5.3,9.9-7.4l3.4-2.4
		c4.2-3.1,8.1-6.5,11.9-9.6c7.2-6.3,14.1-12.2,21.8-15c3.9-1.4,8-2.1,12.2-2.1c8.1,0,16.4,2.3,24.4,4.6c4.6,1.3,9.3,2.6,13.9,3.5
		c6,1,12,1.6,18.1,1.6c4.9,0,9.8-0.3,14.7-1.1c16.5-2.4,33.2-8.6,52.8-19.6c4.2-2.3,8.2-5,12.2-7.6s8.2-5.4,12.4-7.8
		c1.8-0.9,3.6-1.6,5.5-2.2c1.5-0.5,2.9-1,4.3-1.7l3.8-1.9c2.7-1.7,5.6-3,8.7-3.7c2.8-0.5,5.6-0.8,8.5-0.8c3.6-0.1,7.1,0.5,10.5,1.6
		c10.6,3.7,20.1,10,28,15.7c1.9,1.4,3.9,2.9,5.7,4.4s4.7,3.6,7.2,5.3c2.2,1.4,4.4,2.7,6.8,3.7c2.1,0.9,4.1,2,6.1,3.2
		c10.9,7,20.3,17.2,28.1,30.2s11.9,22.1,3,35.1c-2.8,4.1-6.1,5.3-10.8,6.6s-10.4,1.7-15.6,2s-12.3,0.5-18,2.8
		c-2.9,1.2-5.6,2.7-8.1,4.7c-0.7,0.4-1.3,0.9-1.9,1.4c-2.5,2-5.2,3.8-8.1,5.3c-4.3,2.1-8.6,4.4-12.8,6.6s-5.4,3-8.2,4.4
		c-6.3,3.3-12.8,6.6-18.9,9.9c-3.6,2-7.2,3.9-10.8,5.7l0,0l-0.5,0.5c-17.3,9.5-23.9,24.7-28.5,39.7c-0.4,1.1-0.7,2.2-1,3.3
		c-3.2,10.5-6.2,20.3-16.8,25.8c-5.3,2.7-14.7,5.3-28.1,7.7c-18.8,3.5-36.5,4.5-56.9,5.7h-1.4c-5.3-3.4-8.5-8.3-11.9-13.5
		c-1.6-2.6-3.3-5.2-5.2-7.6c-4.5-5.3-9.2-10.4-14.3-15.2c-5.6-5.4-10.9-11.1-15.9-17.1c-12.3-15.5-20.8-34.7-29-53.3
		c-1.3-3.1-2.7-6.2-4.1-9.2s-3.4-7-5.2-10.4c-3-5.7-5.8-11.1-7.4-16.3S291.7,198.2,297.6,193.2L297.6,193.2z"/>
	<path class="st2" d="M330.4,249.2l0.7,2.7c7.2,26.5,17.8,42.3,39.2,58l0.5,0.4c11.5,8.4,21.5,15.8,32.5,19.3
		c6.4,1.9,13,2.8,19.6,2.7l0,0c9.6,0,19.5-1.7,26.2-4.5c17.9-7.4,24.5-23.1,32-41.3c10-23.8,27.3-54.6,53.7-66.1
		c4.7-2.1,9.4-2.5,14.2-3c1.9-0.1,3.9-0.3,5.8-0.6c7.5-1.1,15.8-2.6,25.6-4.7l4.1-0.9c7.1-1.6,16.5-6.1,19.6-13.4
		c2.3-5.5,1.9-10.5-0.9-14.8c-8.6-13-38.2-17.4-50.4-17.4h-0.2c-5.4,0.1-10.8,0.4-16.2,1.1c-3.1,0.3-6.2,0.7-9.2,0.8
		c-5.1,0.4-9.3,1.9-14.4,5.1c-5.4,3.3-11.6,5-17.9,4.9c-5.1,0-10.4-0.9-15.9-1.7l-5.1-0.9c-8.1-1.1-16.2-1.6-24.4-1.5
		c-5.8,0-11.8,0.2-17.5,0.4s-11.4,0.3-17.2,0.3c-8.9,0.1-17.9-0.5-26.7-1.9l-7.3-1.7c-5.6-1.3-11.9-2.8-18.3-2.8
		c-3.2,0-6.5,0.4-9.6,1.3c-14.6,4.4-26.9,22.4-29.2,36.4c-0.8,5.6-0.7,11.3,0.4,16.9C325.8,231.9,328,240.3,330.4,249.2z
		 M324.1,205.5c2.2-14,14.4-31.8,28.9-36.2c3.1-0.9,6.3-1.3,9.5-1.3c6.4,0,12.7,1.5,18.2,2.9l7.4,1.6c8.8,1.5,17.8,2.1,26.7,2
		c5.8,0,11.6-0.2,17.2-0.4s11.7-0.3,17.5-0.3c8.1-0.1,16.2,0.4,24.3,1.5l5.2,0.8c5.2,1,10.6,1.6,15.9,1.7c6.4,0.1,12.7-1.6,18.1-4.9
		c5.1-3.2,9.2-4.6,14.2-5l9.2-0.8c5.4-0.7,10.8-1,16.2-1.1h0.2c12.1,0,41.5,4.4,50.1,17.1c2.8,4.3,3.1,9.2,0.9,14.5
		c-3.1,7.3-12.4,11.7-19.4,13.3l-4.1,0.9c-9.7,2.1-18.1,3.6-25.5,4.6l-5.8,0.7c-4.9,0.4-9.6,0.9-14.4,3
		c-26.4,11.5-43.8,42.4-53.8,66.3c-7.5,18.1-14,33.7-31.8,41.1c-6.7,2.7-16.5,4.4-26.1,4.4l0,0c-6.6,0.1-13.2-0.8-19.5-2.7
		c-11-3.4-20.9-10.7-32.4-19.2l-0.5-0.4c-21.3-15.6-31.9-31.3-39-57.8l-0.7-2.6c-2.5-8.9-4.7-17.4-6.4-26.9
		C323.3,216.8,323.2,211.1,324.1,205.5z"/>
	<path class="st2" d="M728.6,242.8L728.6,242.8l-2.4,3.8c-2.5,4-4,6.4-4.7,13c-0.5,5.3-0.5,10.5-0.2,15.8c0.5,6.2,0.3,12.5-0.5,18.7
		c-3.7,22.1-21.3,44.9-41,52.9c-2,0.9-4.1,1.6-6.3,2.2c-1.3,0.2-2.7,0.4-4,0.4l0,0c-11.6,0-14.2-11.4-16.8-22.4
		c-0.6-2.5-1.2-5-1.9-7.4c-2.6-9-6.2-15-11.5-19.4s-12.5-7.2-23.3-9.2c-4.1-0.8-8.2-1.2-12.3-1.2c-7.5,0-14.7,1.4-24,4.7l-1.2,0.4
		c-5.1,1.7-9.5,3.3-12.6,8.1c-6,9.3-10.8,24.4-8.6,35.1s9.9,12.6,17.9,14.7l4.7,1.4c2.1,0.7,4.2,1.5,6.1,2.6
		c13.6,7.5,27.7,14,42.2,19.4c14.1,5.5,21,17.5,27.6,29s13.1,22.9,26.3,28.4c2.2,0.9,4.5,1.3,6.8,1.3l0,0c3.3-0.1,6.6-0.7,9.7-1.8
		c9.4-3.3,17.9-13.5,24.2-21.9c9.9-13.3,22.3-29.9,36.8-40.5l1.2-0.8v-0.4l-1.4,0.9c-14.6,10.7-26.9,27.2-36.9,40.5
		c-6.2,8.5-14.7,18.6-24,21.9c-3.1,1-6.3,1.6-9.6,1.7l0,0c-2.3,0-4.5-0.4-6.6-1.2c-13.2-5.5-19.8-17.1-26.2-28.3
		s-13.6-23.6-27.8-29.1c-16.7-6.5-30-12.6-42.1-19.4c-2-1.1-4-2-6.2-2.6l-4.7-1.4c-7.9-2.2-15.4-4.2-17.6-14.5s2.5-25.5,8.5-34.8
		c3-4.7,7.4-6.3,12.5-8l1.2-0.4c9.2-3.3,16.3-4.7,23.8-4.7c4.1,0,8.2,0.4,12.2,1.2c20.8,3.8,29.5,11,34.6,28.4
		c0.7,2.4,1.3,4.9,1.8,7.3c2.7,11.2,5.4,22.7,17.2,22.7l0,0c1.4,0,2.8-0.1,4.1-0.4c2.2-0.5,4.3-1.2,6.4-2.1
		c9.7-4,19.3-11.7,26.8-21.6c7.3-9.3,12.2-20.1,14.3-31.7c1-6.2,0.8-12.6,0.6-18.7s-0.5-10.6,0.2-15.8s2.2-8.9,4.6-12.8l2.3-3.8
		c6.9-5.7,15.6-8.7,24.5-8.6c2.5,0,5,0.2,7.5,0.6v-0.3c-2.5-0.4-5-0.6-7.5-0.6C744.3,234,735.5,237.1,728.6,242.8z"/>
	<path class="st2" d="M741.2,268.8c-1.8,5.3-2.2,10.8-2.6,17.1c-0.1,2.2-0.2,4.5-0.5,7c-0.8,9.6-2.7,19.5-4.5,29s-3.4,18.4-3.8,25.5
		h0.1c1,0.9,2.3,1.5,3.7,1.6h0.8c3.6-2,7.3-3.9,11-5.7c5.3-2.4,10.5-5.2,15.4-8.4v-0.4c-5,3.2-10.1,6-15.5,8.5
		c-3.7,1.8-7.5,3.6-11,5.7h-0.6c-1.3-0.1-2.5-0.7-3.5-1.5c0.3-7,2-15.9,3.8-25.3s3.6-19.5,4.5-29.1c0.2-2.5,0.4-4.8,0.5-6.9
		c0.4-6.4,0.7-11.8,2.5-17.1c2.5-7.2,8.5-12,15.4-12c1.3,0,2.6,0.2,3.9,0.5V257c-1.3-0.3-2.6-0.5-3.9-0.5
		C749.9,256.6,743.7,261.4,741.2,268.8z"/>
	<path class="st2" d="M604.8,316.4c-6.6,0-13.3,3.3-13.4,10.6l0,0c2.1,7.2,12,15.9,20.7,15.9l0,0c2,0,4-0.5,5.7-1.6
		c2.4-1.5,4.1-4.1,4.5-6.9c0.6-4.1-0.4-8.2-2.8-11.5C616.5,318.9,610.9,316.4,604.8,316.4z M622,334.4c-0.4,2.7-2,5.1-4.4,6.6
		c-1.6,1.1-3.5,1.7-5.5,1.6c-8.6,0-18.3-8.6-20.3-15.6c0-7.1,6.6-10.2,13-10.2s11.5,2.4,14.4,6.4C621.6,326.4,622.6,330.4,622,334.4
		z"/>
	<path class="st2" d="M720.7,360.2L720.7,360.2c-0.7-0.3-1.4-0.4-2.1-0.4c-3,0-6.2,1.9-9.3,3.7c-1.1,0.7-2.3,1.3-3.5,1.9
		c-0.6,0.4-1.3,0.7-2,1c-10.2,5-24.1,11.9-23.1,28.1c1.4,5.1,5.6,10.2,11.9,10.2h1.7c11.4-4.8,18.2-18,22.9-29l0.4-0.8
		c2.1-5,4.5-10.5,3.2-14.5L720.7,360.2z M717.3,374.6l-0.4,0.8c-4.6,11-11.4,24.2-22.7,28.8h-1.6c-6.1,0-10.2-4.9-11.6-9.8
		c-1-16,12.9-22.8,22.9-27.8l2.1-1l3.5-1.9c3-1.8,6.2-3.6,9.1-3.6c0.6,0,1.3,0.1,1.9,0.3C721.7,364.3,719.3,369.8,717.3,374.6z"/>
	<path class="st2" d="M595.6,485c-3.3-3.1-6.7-4.7-10-4.7c-7.7,0-12.8,8.8-13.9,17.5c-0.8,6.6-0.6,13.2,0.5,19.7
		c1.1,5.7,3.4,8.6,8.2,10.3c1.3,0.4,2.6,0.8,4,1c2.3,0.5,4.6,0.8,6.9,0.8l0,0c5.5,0,9.6-1.9,12.1-5.7s2.3-14.5,1.6-19.8
		C604,496.6,600.6,489.6,595.6,485z M603,523.7c-2.3,3.7-6.3,5.5-11.7,5.5c-2.3,0-4.6-0.2-6.8-0.7c-1.4-0.3-2.7-0.6-4-1.1
		c-4.7-1.6-6.9-4.3-7.9-10c-1.2-6.4-1.4-13-0.5-19.5c1-8.6,6-17.2,13.5-17.2c3.2,0,6.5,1.5,9.8,4.6c4.8,4.5,8.2,11.4,9.3,18.9
		C605.3,509.1,605.8,519.4,603,523.7z"/>
	<path class="st2" d="M37.3,602.5c3.3-0.6,6.2-1.3,8.9-1.9s6.6-1.6,10.7-2.3s7.8-0.8,11.7-1.1c8.6-0.6,17.6-1.2,25.2-5.2
		c9.7-5,10.7-17.8,7.4-28.3c-5.6-17.7-12.8-30-22-37.5c-3.6-3-7-6.2-10.3-9.6c-6.6-6.6-13.4-13.4-22.3-16.9
		c-6.8-2.8-14.6-4.8-22.1-6.8c-4.6-1.2-9.3-2.4-13.7-3.8c-2.1-0.6-4.4-1.4-6.7-2.3l-4-1.5v0.4l3.8,1.4l6.8,2.4
		c4.5,1.3,9.2,2.6,13.7,3.7c7.5,2,15.3,4,22.1,6.8c8.8,3.6,15.6,10.3,22.2,16.8c3.3,3.3,6.7,6.7,10.3,9.7
		c9.2,7.4,16.3,19.6,21.8,37.3c3.3,10.3,2.3,23-7.1,27.9c-7.6,4-16.5,4.6-25.2,5.2c-3.9,0.2-7.8,0.5-11.6,1.1
		c-3.6,0.5-7.2,1.3-10.8,2.2c-2.7,0.7-5.5,1.4-8.9,2c-6.2,1.1-12.5,2-18.6,2.7s-12.7,1.8-18.5,2.8v0.4c5.8-1.1,12.1-1.9,18.5-2.8
		S31.1,603.7,37.3,602.5z"/>
	<path class="st2" d="M29.3,581.2c8-2.3,16.3-4.6,24.2-8s15.6-7.4,19.1-15.3c4.6-10.4,0.1-21.6-11.8-29.9l-6-4.3
		c-8-5.9-15.6-11.4-26.5-13.5c-9.3-1.5-18.8-2.3-28.2-2.4v0.3c10.7,0.3,21.1,1.1,28.2,2.4c10.8,2.1,18.3,7.6,26.3,13.5l6,4.3
		c11.8,8.2,16.2,19.2,11.7,29.4c-3.4,7.8-11.3,11.8-19,15.1s-16.1,5.8-24.1,8.1c-4.2,1.1-8.5,2.4-12.7,3.7c-5.4,1.7-10.8,3-16.4,3.9
		v0.4c5.6-1,11.1-2.3,16.5-3.9C20.8,583.6,25.1,582.4,29.3,581.2z"/>
	<path class="st2" d="M26.7,623.2c8.2,0.5,16.4,0.3,24.6-0.3c7.1-0.8,14.1-2.1,21-3.8l5-1.1l3.7-0.8c12.8-2.7,25.9-5.5,36.6-12.8
		c12.5-8.4,14.1-26.2,8.4-38.5s-13.9-20.1-22.3-28.7s-14.2-14.4-19.4-23.1c-2.3-3.2-4.3-6.3-6.2-9.2c-6.1-9.5-10.9-17-23.8-20
		c-24.7-5.8-46.1-10.8-50-35.4c-1.4-8.7,0.5-15.6,2.3-22.2s2.9-10.2,2.6-15.8H9.1l-1.9-1.8c-0.8-0.9-1.6-1.8-2.6-2.5H4.5
		c-1.5,0.1-3,0.3-4.4,0.6v0.4c1.4-0.3,2.9-0.5,4.4-0.6c0.9,0.7,1.7,1.4,2.5,2.2c0.6,0.6,1.2,1.3,1.8,1.8c0.3,5.6-1,10.5-2.5,15.6
		c-1.8,6.7-3.8,13.5-2.4,22.3c4,24.9,25.5,29.9,50.4,35.7c12.7,3,17.5,10.4,23.5,19.9c1.9,2.9,3.9,6,6.3,9.1
		c5.1,8.7,12.4,16.1,19.4,23.3s17,17.4,22.2,28.5c5.2,11.1,4.1,29.7-8.3,38.2c-10.7,7.2-23.7,10-36.4,12.7l-3.7,0.8l-5,1.1
		c-6.9,1.7-13.9,2.9-21,3.8c-8.2,0.8-16.5,0.5-24.5,0.2s-18.3-0.6-26.7,0.7v0.3C8.5,622.6,17.4,622.9,26.7,623.2z"/>
	<path class="st2" d="M273,543.3c1.1,0.5,2.1,1.1,3.1,1.7c3.8,2.9,7.1,6.3,9.9,10.1c5.5,7,9.4,15.2,11.3,23.9
		c3,13,11.2,18.2,24.3,22.7c7.7,2.6,15.8,4,24,4c4.1,0,8.1-0.4,12.1-1c14.2-2.6,23.2-11.1,24.9-23.6c0.4-2.6,0.8-5.3,1.3-7.9
		c1.9-10.5,3.9-21.4-2.2-31.2c-5-7.9-14.5-9-24-9h-10.6c-2.7,0-5.5-0.1-8.2-0.5c-7.5-1.2-15.1-3.1-22.3-4.9
		c-12-2.9-23.3-5.7-34.6-5.7c-2.4,0-4.8,0.2-7,0.4s-5.5,2.8-7,6.7s-1.9,8.3,0.4,11.1C269.7,541.5,271.3,542.6,273,543.3z
		 M268.3,529.3c1.5-3.7,4-6.1,6.7-6.4c2.3-0.3,4.7-0.4,7-0.4c11.3,0,22.5,2.7,34.5,5.7c7.3,1.8,14.8,3.6,22.4,4.8
		c2.7,0.4,5.5,0.6,8.2,0.5h10.6c9.4,0,18.8,1,23.7,8.8c6,9.6,4.1,20.5,2.2,30.9c-0.5,2.7-1,5.4-1.4,8c-1.6,12.2-10.6,20.7-24.5,23.2
		c-4,0.7-8,1-12.1,1c-8.1,0-16.2-1.3-23.9-3.9c-13-4.5-21.1-9.6-24.1-22.5c-1.9-8.8-5.8-17-11.3-24c-2.8-3.8-6.1-7.3-9.9-10.2
		l-3.2-1.7c-1.7-0.7-3.2-1.6-4.5-2.9C266.8,537.8,266.7,533.4,268.3,529.3z"/>
	<path class="st2" d="M338.1,590.9c3.6,0,7.2-0.5,10.7-1.4l1.7-0.7c3.5-1.6,5.5-4.4,5.5-7.7c0-2.8-1.1-5.5-3.1-7.5
		c-2.6-2.8-6.6-3.8-10.2-2.7c-3.9,1.2-12.2,6-14.7,11.1c-0.8,1.6-0.9,3.4-0.3,5.1C329,590.2,334.1,590.9,338.1,590.9z M328.3,582.2
		c2.5-5.1,10.6-9.8,14.5-10.9c0.9-0.3,1.9-0.5,2.9-0.5c2.7,0,5.2,1.1,7,3.1c1.9,1.9,3,4.5,3,7.2c-0.1,3.2-2,5.8-5.3,7.3l-1.8,0.7
		c-3.4,1-7,1.4-10.5,1.4c-5.6,0-9.1-1.2-10.1-3.5C327.4,585.4,327.5,583.7,328.3,582.2L328.3,582.2z"/>
	<path class="st2" d="M447.3,724.3c-0.1-0.8-0.1-1.7,0-2.5c0-0.9,0-1.9-0.1-2.8c-0.7-5.7-3-12.8-5.5-20.2s-5.1-15.4-6.4-23
		c-0.5-3.1-0.8-6.5-1.1-9.8c-1.1-10.8-2.1-21.9-9.6-26.8c-3.4-2.3-8.4-3.3-15.7-3.3c-4,0-8.4,0.3-12.7,0.6l-5,0.3
		c-14.9,0.9-45.8,4.8-56.5,12.9c-14.8,11.2-16.5,30.3-16.3,47.6c1.7,21.8,16.6,34,33,46.3h0.6c-16.5-12.4-31.5-24.5-33.3-46.3
		c-0.2-17.2,1.6-36.2,16.2-47.3c10.7-8.1,41.5-11.9,56.3-12.8l5-0.4c4.3-0.3,8.7-0.6,12.7-0.6c7.2,0,12.1,1,15.5,3.3
		c7.3,4.8,8.4,15.8,9.4,26.5c0.3,3.3,0.7,6.7,1.2,9.9c1.2,7.5,3.9,15.4,6.4,23s4.8,14.4,5.4,20.1c0.1,0.9,0.1,1.9,0.1,2.8
		c0,0.9,0,1.7,0,2.6c0.8,5.6,0,12.4-1.9,19.2h0.3C447.2,736.8,448,730,447.3,724.3z"/>
	<path class="st2" d="M50.3,726.9c-0.2-5,0-10.1,0.1-15c0.3-7.4,0.5-14.5-0.8-20.2c-3.1-14-20.8-24-36.2-28.7
		c-4.3-1.4-8.8-1.9-13.3-1.5v0.3c4.5-0.3,8.9,0.2,13.2,1.5c15.4,4.7,32.9,14.6,36,28.4c1.3,5.7,1,12.8,0.8,20.2
		c-0.2,4.9-0.3,10-0.1,15c0.2,5.6,0.1,11.2-0.5,16.7h0.3C50.4,738.1,50.6,732.5,50.3,726.9z"/>
	<path class="st2" d="M428.9,721.1c-0.9-4-1.9-8-3.2-11.9c-1.8-6.3-4-13.5-5.1-20.7c-0.3-2.1-0.6-4-0.8-5.9
		c-1.8-12.4-3.1-22.2-11.4-28.7c-5.6-4.4-16.2-7-28.2-7c-14.6,0-28.2,3.7-36.4,9.9c-13.4,10.1-14,28-12.1,41.3s13.1,21.3,26,30.6
		c6.4,4.4,12.6,9.2,18.5,14.4l0.5,0.5h0.5l-0.8-0.8c-5.9-5.1-12.1-10-18.5-14.4c-12.8-9.2-22.9-16.4-25.8-30.4s-1.4-30.9,11.9-41
		c8.1-6.1,21.7-9.7,36.2-9.7c12,0,22.4,2.5,28,6.9c8.2,6.4,9.5,16.1,11.2,28.4c0.3,1.9,0.5,3.9,0.8,5.9c1.2,7,3,14,5.2,20.8
		c1.3,4.4,2.5,8.5,3.2,11.8c1.3,7.5,0.8,15.2-1.4,22.5h0.3C429.8,736.3,430.3,728.6,428.9,721.1z"/>
	<path class="st2" d="M172.6,700.1c-1.8-7.1-2.4-14.4-1.7-21.7c0.2-1.5,0.5-3,0.9-4.5c1.4-5.4,3.1-12.2-3.7-17.2H168
		c-12.8-1.5-20.5,9-27.4,18.2c-1.8,2.4-3.4,4.7-5.2,6.8c-6.2,6.5-14.6,11.1-23.6,16.1c-13.9,7.8-28.3,15.7-35.1,31.3
		c-1.9,4.4-3.6,9.5-5.2,14.5h0.4c1.6-5,3.2-10,5.1-14.4c6.8-15.4,21.1-23.4,35-31.1c8.9-4.9,17.4-9.6,23.7-16.2
		c1.7-2.1,3.4-4.4,5.2-6.8c6.8-9.1,14.5-19.5,27-18.1c6.6,4.8,5,11.2,3.6,16.9c-0.4,1.4-0.7,2.9-1,4.4c-0.6,7.3,0,14.8,1.8,21.9
		c2.2,8,5.6,16,9,24.5c2.6,6.2,5.1,12.5,7.4,18.9h0.3c-2.2-6.5-4.8-12.8-7.3-19C178.2,716.6,175.2,708.4,172.6,700.1z"/>
	<path class="st2" d="M374.5,657.6c-7.9,0-15.7,2.3-20.8,6.2c-6.7,5-10.7,11.1-10,25.8c4.6,18.8,24.9,28.9,41.7,28.9l0,0
		c2.1,0,4.3-0.2,6.4-0.5h0.1c2.5-2.1,4.7-4.5,6.6-7.1l0,0c6.2-19,5.9-34.9-0.7-43.4C393,661.1,384.5,657.6,374.5,657.6z
		 M398.2,710.6c-1.9,2.6-4,5-6.5,7c-2.1,0.3-4.2,0.5-6.3,0.5l0,0c-16.7,0-36.9-10-41.3-28.5c-0.8-14.6,3.2-20.6,9.7-25.5
		s12.9-6.2,20.7-6.2c9.9,0,18.3,3.5,23,9.6C404.1,675.9,404.3,691.7,398.2,710.6z"/>
	<path class="st2" d="M287.8,710.1c-2.6-12.8-5.4-26-13.7-36.5c-4.3-5.4-9.6-7.5-16.3-6.5c-13.9,2-30.3,14.5-39.1,21.3
		c-9.9,10.3-13.6,22.7-11.4,38.1c1,5.8,2.3,11.5,3.9,17.1h0.4c-1.7-5.6-3-11.4-4-17.2c-2.2-15.2,1.5-27.6,11.3-37.8
		c8.8-6.7,25.2-19.2,38.9-21.2l3.1-0.2c5.1,0,9.4,2.2,12.9,6.6c8.3,10.5,11,23.6,13.7,36.4s4.7,23.3,11.3,32.9l0.4,0.5h0.4l-0.5-0.7
		C292.6,733.4,290.2,721.6,287.8,710.1z"/>
	<path class="st2" d="M376.2,681.7L376.2,681.7c-1.1-2.1-3.2-3.4-5.6-3.6c-0.7,0-1.4,0.1-2.1,0.4h-0.1c-1.3,1-2.2,2.4-2.4,4
		c-0.1,1,0.2,2.1,0.9,2.9c0.5,0.4,1,0.8,1.4,1.3h0.1c0.7,0.3,1.4,0.4,2.1,0.4l0,0c2.4-0.1,4.6-1.4,5.7-3.5l0,0
		C376.2,683,376.2,682.3,376.2,681.7L376.2,681.7z M375.8,683.5c-1,2-3,3.3-5.3,3.4l0,0c-0.7,0-1.4-0.1-2-0.4
		c-0.4-0.5-0.8-0.9-1.3-1.2c-0.6-0.7-0.9-1.7-0.8-2.6c0.2-1.5,1-2.9,2.2-3.9c0.6-0.2,1.3-0.3,2-0.3c2.2,0.1,4.2,1.4,5.3,3.3
		C375.9,682.4,375.9,682.9,375.8,683.5L375.8,683.5z"/>
	<path class="st2" d="M17.6,697.5c-4.4-5.4-8.6-7.6-17.5-9.3v0.4c8.8,1.6,12.8,3.8,17.2,9.1c7.7,9.5,12.4,27.1,13.5,39.4
		c0.2,2.3,0.3,4.5,0.3,6.5h0.4c0-2-0.1-4.2-0.3-6.5C30.1,724.7,25.3,707,17.6,697.5z"/>
	<path class="st2" d="M244.4,702.1h-1.5c-4.8,0.4-9.2,2.7-12.3,6.4c-4.6,5.5-6.7,13.9-5.8,23.6c0.4,3.8,1,7.6,1.8,11.4h0.3
		c-0.8-3.8-1.4-7.6-1.8-11.4c-0.8-9.6,1.2-17.9,5.7-23.3c3-3.7,7.4-6,12.1-6.4h1.5c14.4,0,19.7,17.1,24.3,32.1c1,3.2,2,6.3,3,9.1
		h0.4c-1.1-2.8-2-6-3-9.2C264.4,719.3,259.1,702.1,244.4,702.1z"/>
	<path class="st2" d="M147.2,716.3c-2.4-0.3-4.8-0.5-7.2-0.5c-9.7,0-19.2,2.6-27.5,7.6c-8.1,4.9-14.7,11.9-19.1,20.2h0.4
		c9.1-17,26.9-27.6,46.2-27.4c2.4,0,4.8,0.1,7.2,0.4c10.4,1.5,20.7,10.1,28.1,23.7c0.6,1.1,1.2,2.2,1.7,3.3h0.3
		c-0.5-1.2-1.1-2.3-1.7-3.4C168.1,726.4,157.8,717.7,147.2,716.3z"/>
	<path class="st2" d="M0.5,731.4H0.1v0.3h0.4c2.8,0,5,1.8,6.4,5.1c0.9,2.2,1.3,4.5,1.3,6.8h0.4c0-2.4-0.5-4.8-1.4-7
		C5.8,733.3,3.4,731.4,0.5,731.4z"/>
	<path class="st2" d="M119.8,743.6h0.6c5.6-4,12.3-6.1,19.2-6.1c6.6,0,13,2.1,18.2,6.1h0.6c-5.3-4.2-12-6.5-18.8-6.4
		C132.5,737.2,125.6,739.5,119.8,743.6z"/>
	<path class="st2" d="M630.8,709.3c-4.4-7.7-8.4-15.7-11.9-23.8c-1.9-4.5-3.7-9.4-5.5-14.6c-7.7-22.3-16.5-47.5-43.7-47.5h-1.1
		c-9.9,0.2-19.2,3.7-25.3,6.6c-1.4,0.6-3,1.3-4.5,2.1c-4.6,2.1-9.3,4.2-13.5,6.6c-12.4,6.8-26.6,10.1-40.3,13.4h-0.1l-3.8,0.8
		c-9.1,2-20.5,4.4-24.2,15.1c-2.8,8.2-0.2,18.7,2.3,28.9c0.9,3.7,1.7,7.2,2.3,10.5c2,10.7,2.1,21.6,0.3,32.3
		c-0.2,1.2-0.5,2.5-0.8,3.9h0.4c0.3-1.3,0.5-2.6,0.8-3.9c1.7-10.7,1.6-21.6-0.4-32.3c-0.6-3.4-1.4-6.9-2.3-10.6
		c-2.5-10.1-5-20.6-2.2-28.7c3.5-10.5,14.8-12.9,23.9-14.8l3.7-0.9h0.2c13.8-3.2,28-6.6,40.4-13.4c4.2-2.3,8.9-4.5,13.4-6.6l4.6-2.1
		c6-2.9,15.3-6.3,25.1-6.6h1.1c26.9,0,35.7,25.1,43.4,47.3c1.8,5.2,3.5,10.2,5.4,14.7c3.5,8.2,7.8,16.1,12,23.8s6.9,12.7,9.8,19
		c2.3,5.4,5.4,10.5,9.1,15.1h0.5c-3.3-3.7-6.3-8.8-9.3-15.2S634.4,715.9,630.8,709.3z"/>
	<path class="st2" d="M751,642.6c-22.4,8.5-37.3,24.5-43.2,46.3c-1.7,6-2.8,13.8-4,21.3c-1.4,9.4-2.8,19-5.2,25.7
		c-0.9,2.8-2.4,5.4-4.3,7.7h0.5c1.8-2.3,3.2-4.9,4.2-7.6c2.4-6.7,3.8-16.4,5.2-25.7c0.9-7.2,2.2-14.3,3.9-21.4
		c5.9-21.6,20.7-37.5,43.1-45.9c2.5-0.9,5.1-1.6,7.7-2.1l1.9-0.4v-0.3l-2,0.3C756.2,641.1,753.6,641.8,751,642.6z"/>
	<path class="st2" d="M729.3,481.7c-7.2,1.6-14.1,5.1-20.8,8.5s-13.6,6.9-20.7,8.4c-18.4,4-25.3-12.2-31.3-26.4l-2.5-5.9
		c-3.2-7.1-7.1-13.9-11.6-20.3c-8.6-12.1-18.5-21.8-29.5-28.7s-18.7-9.9-26.9-11c-13.3-1.7-22.7,2.4-33.6,7.1l-7.3,3.1
		c-7.1,2.9-15.3,6.2-20.8,13.4c-4.2,5.3-7.4,11.9-10.4,18.2l-0.7,1.4c-5.6,11.6-9.7,23.1-14.1,35.2c-0.9,2.8-1.9,5.6-2.9,8.3
		c-2.6,7.5-5.3,15.3-8.6,22.7c-2.4,5.6-6.2,10.5-9.8,15.2c-2,2.6-4.1,5.4-5.9,8.2c-4.7,7.1-12,13.3-19.1,19.3
		c-2.5,2.2-5,4.3-7.2,6.4l-4.6,3.9c-7.3,6.3-15.6,13.5-17.8,22.6c-0.3,1.2-0.6,2.4-0.8,3.6c-2.4,10.2-4.4,19-14.6,25.4
		s-21.3,7.9-31.6,9.7l-14.7,2.1c-8.8,1.1-17.1,2.2-24.7,4.2c-17.3,4.6-27.9,16.6-31.4,35.7s0.1,41.4,3.9,50.7s9.3,15,16.3,20.9h0.6
		c-7.1-6-13-12.6-16.5-21s-7.3-31.9-3.9-50.5s13.9-30.9,31.1-35.4c7.5-2.1,15.9-3.2,24.7-4.3c4.8-0.6,9.7-1.2,14.6-2.1
		c10.3-1.7,22.1-3.7,31.8-9.7s12.3-15.4,14.7-25.6c0.3-1.2,0.6-2.4,0.8-3.6c2.2-9,10.5-16.1,17.8-22.4l4.5-4
		c2.3-2.1,4.7-4.1,7.3-6.3c7.1-6,14.4-12.2,19.1-19.4c1.8-2.8,3.9-5.6,5.9-8.2c3.6-4.7,7.4-9.7,9.9-15.3c3.3-7.3,6-15.1,8.6-22.7
		c0.9-2.7,1.9-5.5,2.9-8.3c4.3-12.1,8.4-23.5,14-35.2l0.7-1.4c3-6.3,6.2-12.8,10.4-18.2c5.5-7,13.6-10.3,20.7-13.2l7.3-3.1
		c10.8-4.7,20.2-8.8,33.4-7.1c8.1,1.1,16.6,4.6,26.7,11s20.8,16.5,29.4,28.6c4.5,6.4,8.4,13.2,11.6,20.3l2.5,5.8
		c2.9,6.9,6.2,14.7,11,20.1s12.3,8.4,20.7,6.6s14-5.1,20.8-8.5s13.5-6.8,20.6-8.4c11.7-2.6,22.5,0.4,31.5,3.6v-0.4
		C751.8,482.1,741,479.2,729.3,481.7z"/>
	<path class="st2" d="M710.7,615c-8.4,8.1-16.3,15.8-26.6,18.8c-14.4,4.3-25.3-6.3-35.9-16.6c-0.6-0.7-1.3-1.3-1.9-1.9
		c-5.3-5.2-11.8-9.1-17.9-12.9c-4.6-2.6-9-5.6-13.2-8.8c-3.1-2.4-6.4-4.7-9.6-6.9s-4.4-3-6.5-4.6s-6-6.6-8.4-10.6
		c-1.2-2.1-2.6-4.2-4.1-6.2c-4.1-5.2-9.8-9.1-15.4-13c-10.1-7-19.8-13.6-20.4-27.4c-0.4-8.2,1.4-18.4,5-28s10-18.8,17.9-26.9
		c5.4-5.5,10.9-8,16.3-7.6c9.6,0.8,17.8,11,23.9,19.8c3.6,5.1,5,10.1,6.5,15.4c0.9,3.2,2,6.4,3.2,9.5c1.3,3.3,3,6.6,4.5,9.7
		c2.7,5,5,10.3,6.7,15.7c2.7,9.2,3.3,22.5-0.9,30.2s-2.1,20.1,2.1,26.7s13.6,9.8,21.4,12.9l4.9,2l2,0.9c2.3,1.1,4.7,2,7.2,2.6
		c12.1,2.5,20.4-3.3,25.5-17.7s1.6-28.9-10.4-38.8c-3.7-2.8-7.7-5.3-11.8-7.5l-5.6-3.1l-1.4-0.9c-5.2-3.1-11.8-7-15.4-11.5
		c-5.3-6.7-9.8-14.1-13.2-21.9c-1.7-4-3-8-4.4-12.3s-2.1-6.3-3.3-9.5c-2.6-6.4-5.9-12.4-10-18c-5.7-7.8-16-18.2-26.2-22
		c-16.1-6-37.8,10-48.5,22.1c-6,6.8-9.9,15.3-12.9,22.7l-2.4,6c-4.4,11.1-8.6,21.6-15.6,31.2c-2.2,3.1-4.1,6.4-5.9,9.7
		c-1.2,2.2-2.6,4.7-4,7c-3.8,5.8-9.5,9.3-15.1,12.2l-7.9,3.8c-7.4,3.5-15.2,7.1-21.5,13.1c-4,3.8-5.6,7.8-4.7,11.9
		c1.4,6.9,9,12,15.6,14.5c13.9,5.2,29.9,3.3,44,1.6l1.8-0.2l3.4-0.3c6.2-0.7,12.1-1.3,18-4.7l2.8-1.5c9-5.1,16.7-9.6,26.9-11.8
		c6.5-1.5,16-1.3,21.9,2.3c2.9,1.8,4.1,4.6,5.4,7.5c0.8,1.8,1.8,3.6,2.9,5.2c4.9,6.4,11.5,11.5,17.9,16.4s12.8,9.7,17.7,16
		c2.9,4,5.5,8.3,7.8,12.7c2.4,4.5,4.8,9.1,7.7,12.6c5.8,7.2,13.7,9.7,22.3,7s15.8-8.7,23.9-14.9l3.6-2.7c4.2-3.2,8.3-6.5,12.2-9.7
		c10.9-8.9,21.2-17.2,32.7-21.9c5-1.9,10.2-3.4,15.5-4.3v-0.4c-5.3,0.9-10.6,2.4-15.6,4.4c-11.6,4.7-21.9,13.1-32.8,21.9
		c-4,3.2-8,6.5-12.2,9.7l-3.6,2.7c-8,6.2-16.3,12.5-23.8,14.8s-16.3,0.2-22-6.8c-2.8-3.5-5.1-7.9-7.6-12.5
		c-2.3-4.5-4.9-8.8-7.8-12.9c-5-6.2-11.5-11.2-17.8-16s-12.9-9.9-17.8-16.3c-1.1-1.6-2.1-3.4-2.9-5.2c-1.3-2.9-2.6-5.7-5.5-7.6
		c-5.9-3.7-15.7-3.8-22.1-2.4c-10.3,2.3-18.1,6.7-27.1,11.9l-2.8,1.6c-5.8,3.3-11.6,3.9-17.9,4.5l-3.3,0.4l-1.8,0.2
		c-14.1,1.6-30.1,3.5-43.9-1.6c-8.2-3.1-14.3-8.7-15.4-14.3c-0.8-4,0.8-7.9,4.7-11.6c6.2-5.8,13.9-9.5,21.4-13
		c2.6-1.2,5.3-2.4,7.9-3.8c5.6-2.9,11.4-6.4,15.2-12.4c1.4-2.3,2.8-4.6,4.1-7c1.8-3.3,3.7-6.5,5.8-9.6c7-9.7,11.2-20.2,15.6-31.3
		l2.4-6c3.1-7.4,6.9-15.8,12.9-22.6c10.6-12,32.1-27.9,48.1-21.9c10.1,3.7,20.3,14.1,26,21.8c4.1,5.5,7.4,11.5,10,17.9
		c1.2,3.2,2.2,6.4,3.2,9.5s2.8,8.3,4.5,12.3c3.4,7.9,7.8,15.3,13.2,22c3.7,4.6,10.2,8.5,15.5,11.7l1.5,0.8l5.5,3.2
		c4,2.2,8.2,4.4,11.8,7.4c11.8,9.8,15.5,23.4,10.2,38.4s-13.2,19.9-25.1,17.5c-2.4-0.6-4.8-1.5-7-2.6l-2.1-0.9l-4.9-2
		c-7.7-3.1-17.4-6.9-21.2-12.8s-6.1-18.9-2.1-26.3s3.6-21.2,1-30.5c-1.8-5.4-4-10.7-6.7-15.7c-1.6-3.2-3.2-6.4-4.6-9.8
		c-1.3-3.1-2.3-6.2-3.1-9.4c-1.5-5.3-2.9-10.3-6.6-15.5c-6.1-8.8-14.4-19.1-24.2-19.9c-5.5-0.5-11,2.1-16.5,7.7
		c-8,8.1-14.5,17.9-18,27s-5.5,19.9-5.1,28.1c0.7,13.9,10.8,20.9,20.6,27.7c5.6,3.8,11.3,7.8,15.3,12.9c1.5,2,2.9,4,4.1,6.2
		c2.4,4,4.9,8.1,8.4,10.7l6.6,4.6c3.1,2.2,6.4,4.5,9.5,6.9c4.2,3.2,8.7,6.1,13.3,8.8c6.2,3.8,12.5,7.7,17.8,12.8l2,1.9
		c10.6,10.3,21.6,21.1,36.2,16.8c10.4-3.1,18.3-10.8,26.8-18.9s16.2-15.8,27.3-20.5c7.1-3,14.9-4.7,22.5-6.3v-0.3
		c-7.6,1.5-15.4,3.3-22.6,6.3C727,599.2,718.7,607.2,710.7,615z"/>
	<path class="st2" d="M723.7,509.9c-5.8,1.2-11.6,4.1-17.8,7.1c-10.3,5.1-20.9,10.3-30.7,7.3c-17.6-5.5-24.3-24.2-30.3-40.7
		c-1.2-3.3-2.3-6.5-3.6-9.6c-2.6-6.6-6-12.8-10.1-18.6c-6.3-8.7-13.9-14.1-22.1-19.8l-3.7-2.5c-7.1-5.1-15.9-10.1-25.9-8.7
		c-3.2,0.5-6.5,2.1-9.7,3.8s-3.9,2-5.7,2.7l-4.2,1.5c-10.8,3.9-21.9,8-29.6,16.7c-2.2,2.8-4.2,5.8-5.9,8.9l-2.8,4.6
		c-3.9,6.1-7.2,12.5-9.8,19.2c-2.9,7.4-4.6,15.4-6.2,23.2c-1.6,7.8-3.7,17-7,24.8s-12.6,13.9-20.7,19l-6.1,4
		c-5.3,3.9-10.2,8.3-14.8,13c-3,2.9-6.1,5.9-9.4,8.7c-7.6,6.4-11,17.4-9,28.7c3.7,19.7,11.4,23,28,25.7c12.7,2.1,27.4,1.6,45-1.4
		c10.2-1.8,19.8-8.4,29.1-14.7c3.4-2.3,6.6-4.5,9.8-6.4c13-7.9,28.6-6.2,41.5,4.4l4.9,4c9.9,7.9,19.1,15.3,24.1,27.1
		c2.1,5.2,3.7,10.5,5,15.9c1.2,5.3,2.8,10.6,4.8,15.7c3.8,8.4,9.3,16,16.2,22.1c5.9,5.2,14.8,10.8,23.8,8.1s13.3-11.9,18.6-22
		c3.3-6.4,6.8-13,11.4-18.5c5.9-7.1,13.8-13.6,19.3-17.8l0.5-0.5c11.7-9.1,22.8-17.7,37.4-20.6l2.8-0.5v-0.3l-2.9,0.5
		c-14.7,2.9-25.8,11.5-37.4,20.6l-0.7,0.5c-5.4,4.2-13.3,10.7-19.3,17.9c-4.6,5.5-8,12.1-11.4,18.5c-5.2,10.1-10.1,19.5-18.4,21.9
		s-17.6-2.9-23.4-8s-13.1-14.5-16.1-22c-2-5.1-3.6-10.3-4.9-15.6c-1.3-5.5-2.9-10.9-5-16.1c-5-11.8-14.7-19.6-24.2-27.1l-4.9-4
		c-13-10.8-28.7-12.4-41.9-4.5c-3.2,1.9-6.4,4.1-9.7,6.4c-9.4,6.3-19,12.8-29.1,14.6c-17.5,3.1-32.2,3.6-44.8,1.5
		c-16.5-2.7-24-6-27.7-25.5c-2.1-11.1,1.3-22,8.8-28.3c3.3-2.8,6.4-5.8,9.5-8.8c4.5-4.7,9.4-9.1,14.7-12.9c1.8-1.3,4-2.6,6.1-4
		c8.1-5.1,17.3-10.9,20.8-19.1s5.2-16.6,7-25s3.3-15.7,6.3-23.1c2.5-6.7,5.8-13.1,9.7-19.1c1-1.5,1.9-3,2.8-4.6
		c1.7-3.2,3.6-6.1,5.9-8.9c7.6-8.6,18.7-12.7,29.4-16.6l4.3-1.5c1.9-0.8,3.9-1.7,5.7-2.7c3.1-1.6,6.4-3.3,9.5-3.8
		c10-1.4,18.6,3.6,25.7,8.6l3.7,2.6c8.1,5.7,15.8,11,22,19.7c4.1,5.8,7.5,12,10.1,18.6c1.2,3,2.4,6.2,3.6,9.6
		c6,16.5,12.8,35.3,30.6,40.8c9.8,3.1,20.5-2.2,30.9-7.3c6.2-3,12-5.9,17.6-7.1c8-1.7,22.8-2.4,37.1-2.1v-0.3
		C746.5,507.5,731.7,508.1,723.7,509.9z"/>
	<path class="st2" d="M716.5,227.9c-9.7,6.7-15.4,16.2-17.2,28.1c-0.7,4.7-0.1,9.8,0.4,14.7s1.1,10.5,0.3,15.5s-4,11-7.9,13.3
		c-2.8,1.6-6.1,1.8-9.1,0.6c-10.4-12.1-18.8-20.1-31.6-25.4c-3.7-1.4-7.4-2.7-12-4.1l-6.7-2.2c-13.9-4.6-28.3-9.3-51.7-7.3
		c-11.2,0.9-19.7,3-27.1,10.4c-4.8,5-8.5,10.9-12,16.6c-2.5,4.3-5.3,8.4-8.3,12.3c-1.5,1.9-3.4,3.8-5.1,5.7s-5.4,5.6-7.4,8.8
		c-4.1,6.6-4.3,17.5-2.7,24.9c2,9.6,8.1,17.8,14.3,25.5c1.5,1.9,3,4,4.6,6.2c4.1,5.9,8.3,12,14.3,15.1s14.1,3.5,21.3,3
		c2.5-0.3,5-0.8,7.5-1.5c3.6-1,7.4-2,11-1.4c12.8,2.3,27.4,11.3,36.7,18.9c5,4.1,9.6,8.7,13.6,13.8c3.1,4,6.1,7.9,9.3,12.2
		c5.4,7.3,11,14.8,17.4,22.2s13.7,13.5,25.8,9.3c6.9-2.4,12.8-6.5,18.3-10.5c8.2-6,15.6-14.5,22.7-22.6s12.7-14.6,18.8-18.9
		c2-1.5,4.3-2.5,6.8-3v-0.4c-2.5,0.5-4.9,1.6-7,3.1c-6.1,4.4-12.3,11.4-18.9,19s-14.4,16.5-22.6,22.5c-5.6,4.2-11.4,8.1-18.2,10.5
		c-11.9,4.1-19.6-2.4-25.4-9.2s-12-15-17.4-22.2c-3.2-4.3-6.2-8.3-9.3-12.2c-4-5.1-8.6-9.8-13.7-13.9c-9.4-7.6-24-16.6-36.9-18.9
		c-3.7-0.7-7.4,0.3-11.1,1.3c-2.4,0.7-4.9,1.3-7.4,1.5c-7.2,0.5-14.7,0.5-21.2-2.9s-10.1-9.2-14.2-15c-1.5-2.2-3-4.3-4.5-6.2
		c-6.1-7.6-12.3-15.8-14.3-25.4c-1.5-7.3-1.4-18.1,2.7-24.6c2.2-3.2,4.6-6.1,7.3-8.8c1.8-1.8,3.6-3.7,5.2-5.7c3-3.9,5.7-8,8.2-12.3
		c3.6-5.7,7.2-11.6,12.1-16.5c7.3-7.4,15.7-9.5,26.8-10.4c23.4-1.9,37.8,2.8,51.6,7.3l6.7,2.2c4,1.2,8,2.6,11.9,4.2
		c12.8,5.2,21.3,13.2,31.6,25.2h0.1c3.1,1.2,6.5,1,9.4-0.6c4-2.4,7.2-7.7,8.1-13.5s0.2-10.4-0.4-15.6s-1-10-0.3-14.6
		c1.7-11.9,7.4-21.3,17-27.9s26.1-11.1,44.1-10.4v-0.4C742.7,216.8,727.4,220.3,716.5,227.9z"/>
	<path class="st2" d="M207.4,34c0.6,4.9,1.4,14.1-0.3,20.3C204.2,64.5,196,73.2,188,81.7c-11.2,12-22.8,24.3-19.2,40.9
		c1.9,8.9,6.7,14.4,14.7,16.9s15.6,1.9,25.2,1.4c17.6-1,29.6,1.9,36.5,4.5s13.5,7.2,19.7,11.5c8.4,5.8,16.4,11.2,25.3,12.5
		c3.3,0.4,6.6,0.3,9.9-0.4c8.4-1.9,14.7-6.1,21.4-10.6c11.4-7.6,23.2-15.4,46-10.9c5,1,10,2.5,15.3,4.1c16.8,5,34.2,10.1,53.7-0.2
		c17.6-8.9,28.6-25.1,39.3-40.8c5-7.3,10.2-14.9,15.9-21.5C499,80.6,508.9,69,521.1,73c4.9,1.5,9.9,2.5,14.9,3.1
		c7.8,1.3,15.8,2.6,23,7.1c5.2,3.2,9.2,7.8,13.1,12.3c1.8,2.1,3.7,4.3,5.7,6.3c4.4,4.4,7.9,9.6,11.3,14.6c2.9,4.4,6.1,8.6,9.5,12.6
		c4.7,4.2,8.9,7.8,13.7,12.2s11.3,11.7,16.4,17.8c9.9,11.8,19.3,22.9,31.5,26.5c8.6,2.5,17.5,2.2,28.9-1.1
		c6.7-2.1,13.3-4.7,19.7-7.7c11.9-5.5,23.4-11.8,34.4-19c7.9-5.2,14-12.6,17.6-21.3v-1c-3.5,9-9.7,16.7-17.7,22
		c-11,7.2-22.5,13.5-34.5,19c-5.6,2.5-13.6,6-19.6,7.7c-11.3,3.2-20.2,3.6-28.7,1.1c-12.1-3.6-21.4-14.7-31.3-26.4
		c-5.2-6.1-10.5-12.5-16.4-17.8l-13.8-12.3c-3.4-4-6.5-8.1-9.4-12.5c-3.4-5.2-7.2-10.1-11.4-14.7c-2-2-3.8-4.1-5.6-6.2
		c-4-4.5-8-9.2-13.2-12.4c-7.3-4.6-15.4-5.9-23.2-7.1c-5-0.7-9.9-1.7-14.8-3.1c-12.4-4.1-22.5,7.6-29.8,16.2
		c-5.7,6.9-11,14.1-15.9,21.5c-10.7,15.7-21.7,31.9-39.2,40.7c-19.3,10.2-36.7,5.1-53.4,0.1c-5.3-1.5-10.3-3-15.3-4
		c-23-4.6-34.8,3.3-46.2,10.9c-6.7,4.5-13,8.7-21.4,10.5c-3.2,0.8-6.5,0.9-9.7,0.4c-8.9-1.2-16.8-6.6-25.2-12.4
		c-6.2-4.3-12.7-8.8-19.8-11.5s-18.9-5.6-36.6-4.6s-35.3,2-39.6-18c-3.5-16.4,8-28.7,19.2-40.6c8-8.5,16.2-17.3,19.1-27.5
		c1.6-5.9,1.1-14.4,0.4-20.5c-1.2-9.8-4.1-19.8-7.2-30.4l-0.9-3.4h-0.4c0.3,1.1,0.7,2.3,1,3.5C203.3,14.2,206.2,24.2,207.4,34z"/>
	<path class="st2" d="M721.5,704.5c-1.3,7.1-1.9,14.3-2.5,21.4s-1.1,12.1-2,17.7h0.3c1-5.6,1.5-11.6,2-17.7
		c0.5-7.1,1.3-14.3,2.6-21.3c4.5-24.5,16.7-39.1,35.4-42.3l3.5-0.5v-0.3l-3.6,0.4C738.4,665.2,726.1,679.9,721.5,704.5z"/>
	<path class="st2" d="M618.5,724c-2-7.3-5.4-14.8-8.6-22l-0.5-1.2c-2.1-4.8-3.8-9.9-5.6-15.3c-3.7-11-7.5-22.4-15-30.7
		s-17.6-11.4-29.9-11.4c-6.6-0.1-13.1,1.2-19.2,3.8c-6.1,2.6-11.7,6.3-16.5,10.9c-3.7,3.6-9.2,5.5-14.4,7.4c-3.6,1-7,2.5-10.3,4.2
		c-9.6,5.4-15.6,13-17.4,22s-1.5,19.1-1.3,29.5c0.1,6.4,0.2,12.9-0.1,19c0,1.1-0.1,2.2-0.2,3.4h0.4c0.1-1.2,0.1-2.3,0.2-3.4
		c0.3-6,0.2-12.6,0.1-19c-0.2-10.4-0.4-21.1,1.3-29.5s7.7-16.3,17.2-21.7c3.3-1.7,6.7-3.1,10.2-4.2c5.3-1.9,10.7-3.8,14.5-7.4
		c4.8-4.6,10.4-8.2,16.5-10.8c6-2.7,12.5-4,19-3.9c12.2,0,23,4.2,29.6,11.4s11.3,19.5,14.9,30.6c1.9,5.3,3.5,10.5,5.7,15.2l0.5,1.3
		c3.2,7.2,6.5,14.6,8.6,21.9c1.1,4.1,2.1,8.6,3.1,13l1.5,6.5h0.4c-0.5-2.1-1-4.3-1.5-6.6C620.7,732.6,619.7,728.1,618.5,724z"/>
	<path class="st2" d="M602.4,730.3c-0.9-5.7-1.9-12.2-4.2-17.8c-0.9-2.2-2.2-4.3-3.7-6.2c-1.2-1.4-2.2-2.9-3-4.5
		c-1.3-2.5-2.4-5.1-3.4-7.7c-3-7.8-6.2-15.9-14.8-18.2c-2.7-0.6-5.4-0.9-8.2-0.8c-3.7,0-7.6,0.3-11,0.6l-3.8,0.3
		c-11.6,0.8-22.7,4.8-32.1,11.5c-10.8,7.8-13.9,20.9-15.2,30.2c-1.1,6.7-2.1,16.5,1.2,24.8c0.1,0.4,0.3,0.7,0.4,1.1h0.4
		c-0.2-0.4-0.4-0.8-0.5-1.2c-3.2-8.2-2.2-18-1.2-24.7c1.4-9.1,4.4-22.2,15.1-30c9.4-6.6,20.4-10.6,31.9-11.4l3.8-0.2
		c3.5-0.3,7.3-0.7,11-0.7c2.7-0.1,5.5,0.2,8.1,0.9c8.5,2.2,11.6,10.2,14.6,17.9c0.9,2.7,2.1,5.3,3.4,7.8c0.8,1.6,1.9,3.1,3,4.5
		c1.5,1.9,2.7,3.9,3.7,6.1c2.3,5.6,3.3,12.1,4.1,17.8c0.6,4.4,0.9,8.8,0.8,13.2h0.4C603.2,739.2,603,734.7,602.4,730.3z"/>
	<path class="st2" d="M760.5,688.1L760.5,688.1c-16.7,1.5-26.1,19.7-28.6,55.5h0.4c2.5-35.6,11.7-53.6,28.2-55.1h0.3v-0.3
		L760.5,688.1z"/>
	<path class="st2" d="M756.3,733c-1.8,3.1-3.6,6.6-4,10.6h0.4c0.3-3.9,2.1-7.4,3.9-10.3c1.3-0.8,2.7-1.3,4.2-1.6v-0.3
		C759.2,731.6,757.6,732.1,756.3,733L756.3,733z"/>
	<path class="st2" d="M194.7,696c2.8-9,7.4-14.4,14.8-22.5l3.7-3.9c5.2-5.4,11.2-11.6,12.5-17.9c2.6-12.8-5.3-20.3-13.4-25.9
		c-4.1-2.6-8.4-5-12.8-7c-5.6-2.8-11.5-5.6-16.3-9.8s-9.5-10.7-13.1-18.7c-1.6-3.6-2.3-7.5-3.1-11.2c-0.6-3.7-1.5-7.4-2.9-10.9
		c-7.1-15.8-16.3-33.7-31.4-46.2c-6.5-5.4-14.8-14-17-24.2c-1.4-6.8,0.5-12.6,2.2-17.4l0.2-0.8c3.6-10.7,14.3-36.1,36.7-42.5
		c4-1.1,9-2,14.2-2.9s13.3-2.3,18.2-4.1c7.7-2.9,13.2-6.8,19-11.3l0.8-0.6c5.6-4.3,12.5-9.6,21.6-8.9s16.8,4.7,24.5,11.3
		s13,14.6,14.4,21.9c0.8,4.8,1.2,8.6,1.6,12.3s0.6,6.2,1.2,9.5c2.9,16.6,10.9,29.9,23.7,39.3c10.5,7.7,24.4,13.1,41.4,16.1
		c22.1,3.8,40.9-3.4,47.9-6.7c11.1-5.2,23.1-17.7,33.5-29.1s15.7-18,16.9-36c0.2-5.6,0.1-11.2-0.5-16.8c-0.2-2.1-0.4-4.2-0.5-6.4
		s-0.3-3.2-0.4-4.9c-0.5-5.4-1-11.1,0-16.9c2.1-11.9,9-17.2,21.2-16c15.9,1.5,29.7,11.9,35.4,26.8c4.5,11.8,0.9,24.2-2,34.1
		l-0.5,1.7c-4.7,16.5-11.1,29.3-19.6,39.3c-4.8,5.6-10.1,10.9-15.3,16l-5.7,5.8c-2.7,2.7-5.7,5.2-8.6,7.6c-3.8,3-7.3,6.3-10.6,9.8
		c-4.1,4.8-7.6,10.2-10.5,15.8c-8.9,16.2-15,30.6-18.9,43.7s-13,21.3-25.5,25.2c-16.1,5.1-39.3,4.5-68.8-1.7
		c-14.4-3.1-23-11.3-25.5-24.6c-2.8-15.2-13.1-22.8-24-30.8c-2.8-2-5.6-4.2-8.4-6.4c-11.5-9.5-5.8-18.4,0.3-27.9
		c2.7-4.2,5.5-8.6,6.7-13c1.9-7-0.6-14.3-3-21.5c-1.3-3.4-2.2-7-2.9-10.6c-2.8-16.4-5.6-29.4-14-34.7c-4.5-2.9-10.2-3.3-17.6-1.2
		l-3.9,1.1c-2.9,0.9-6.1,1.8-8.8,2.4c-4.6,1-9.4,1.6-14.5,2.3s-10.9,1.3-17.1,2.6c-9.1,1.8-17.3,6.3-23.7,13
		c-6,6.5-9.9,14.6-11.1,23.4c-0.7,3.5-0.6,7.2,0.3,10.7c3.1,10.3,12.5,17.7,20.8,24.1c2,1.5,3.8,2.9,5.5,4.4l0.3,0.2
		c8.1,6.6,18.1,14.9,17.7,26.3s1.1,20.2,5,28.4c6.1,12.9,14.7,20.8,29.8,27.1l3.3,1.3c5.2,2.2,10.5,4.4,15.5,7.1s6.7,5.2,9.6,8.2
		s3.2,3.3,5,5c2.5,2.2,4.7,4.7,6.7,7.3c5.6,7,12.1,14.9,22,13c5.1-0.9,10.1-4.4,15.4-8.1s9.5-6.6,14.9-8.8c9.1-3.6,22-4.4,35.7-5.3
		c8.3-0.6,16.8-1.2,24.7-2.4c17.8-2.8,29.9-9,36.8-19.1c2-3,3.6-6.2,4.8-9.5c0.9-2.6,2.1-5.1,3.4-7.5c1.1-1.8,2.5-3.3,4.1-4.6
		l2.5-2.5c1.4-1.5,2.8-3.2,4.1-4.8s3-3.7,4.7-5.5s5.4-5.3,8.1-7.8c2.7-2.3,5.3-4.7,7.7-7.3c1.9-2.1,3.6-4.3,5.2-6.6
		c1.7-2.7,3.7-5.2,5.9-7.4c4.3-4.1,8.2-8.6,11.7-13.4c2.9-4.2,4.2-8.3,5.7-12.6c0.4-1.3,0.8-2.7,1.3-4.1c1.3-3.2,3-6.3,5-9.1
		c1.1-1.7,2.3-3.4,3.2-5.1c3.5-6.4,6.5-13,9.2-19.7c0.7-1.8,1.3-3.7,2-5.5c0.2-0.7,0.5-1.5,0.8-2.2c1.2-3.5,2.6-7,3.9-10.3
		c3.6-9.8,7.5-19.9,9.5-29.1c1.2-5.9,2.3-12.2,1-18.4c-4.6-21.3-25.2-43.4-44.1-47.5c-8.7-1.8-19.8-1.7-31,0.4
		c-18.7,3.5-25.6,12.5-24.7,32.2c0.2,4.6,0.7,9.2,1.1,13.7c0.8,9.7,1.7,18.9,0.7,27.7c-0.6,4.3-1.8,8.6-3.5,12.6
		c-2.8,6.7-9.1,18-16.9,30.2s-18.1,20.9-28.4,24.2c-19.7,6.2-46.1,0-61.5-14.5c-7.7-7.2-15.9-19.7-11.3-37.4
		c0.3-1.2,0.7-2.3,1.2-3.4c0.8-1.4,1.3-2.9,1.6-4.4c2.5-4,5.2-7.8,8.3-11.3c6.5-8.1,12.7-15.8,10.3-26.7c-0.5-2.2-1.3-4.4-2.3-6.4
		c-1.9-4.7-3.9-9.5-1.6-12.4c4.1-5.1,9.6-10.3,15.5-15.9c10.2-9.7,20.7-19.7,23.7-29.1s-3.2-18.7-5.8-22.7s-6.1-8.7-9.6-13.5
		l-8-11.1l-6.4-9.1c-4.8-6.9-9.3-13.4-14-20.4l-5.5-8.6c-3-4.8-6.1-9.7-9.3-13.9c-6.8-9.2-14.5-13-23-11.2s-17.5,8.2-25.4,14.1
		l-3.2,2.4c-14.7,11-31.4,23.5-35.8,37.4c-3.7,11.8,3.2,17.3,10.4,23.2l2.4,1.9c4.2,3.5,8,7.4,11.5,11.6c4.1,5.1,7.8,10.4,11.2,16
		c2.4,3.9,4.8,7.7,7.1,10.7c8,10.5,18.3,15.1,28.3,19.6s20,8.9,27.7,18.9v1.1c0.1,1,0,2.1-0.2,3.1c-9.1,9.8-20.5,12.3-34.6,7.6
		c-4.5-1.7-8.9-3.8-13.1-6.3c-10.2-5.4-20.6-11.1-32.7-7.4c-8.7,2.6-14.7,8.7-20.5,14.6s-11.7,11.9-20.3,14.9
		c-5,1.7-10.2,2.2-17.5,2.8c-18.4,1.4-27.3,3.5-34.9,13.1c-9.9,12.7-22.2,35.1-26,44.3c-1.2,2.7-2.1,5.6-2.8,8.5
		c-3.2,16.2,6.7,28.8,15.6,38c2.2,2.2,4.6,4.2,6.9,6.2s4.2,3.6,6.2,5.5c4,4,7.2,8.8,10.3,13.4c1.6,2.3,3.2,4.7,4.9,7
		c12.4,16.5,16.1,30.9,12.1,46.7c-2.9,11.3-9.5,25.6-24.7,29.5c-5.9,1.3-11.9,2.3-17.9,2.8c-6,0.6-12,1.5-17.9,2.8
		c-5.2,1.2-10.2,2.7-14.9,4.2c-6.7,2.1-13,4.1-19.5,4.9C45,647.7,34.8,645.3,25,643s-16.9-3.9-24.9-2.8v0.3c8-1.1,16.2,0.8,24.8,2.8
		s20,4.7,31.5,3.2c6.6-0.9,12.9-2.9,19.6-4.9c4.7-1.5,9.7-3.1,14.9-4.3s12-2,17.9-2.7c6-0.5,12-1.5,17.9-2.9
		c12.1-3.1,20.8-13.4,24.9-29.7s0.3-30.4-12.1-47c-1.7-2.3-3.3-4.7-4.9-7c-3-4.8-6.5-9.3-10.4-13.4c-2-1.9-4-3.8-6.2-5.5
		c-2.3-2-4.6-4.1-6.8-6.3c-8.9-9.1-18.8-21.6-15.5-37.6c0.7-2.9,1.6-5.7,2.8-8.4c3.7-9.3,16-31.6,25.9-44.2
		c7.5-9.5,16.3-11.7,34.6-13.1c7.3-0.5,12.5-1,17.7-2.8c8.6-3,14.6-9.1,20.4-14.9s11.7-12,20.3-14.6c11.9-3.6,22.4,2,32.4,7.5
		c4.6,2.4,8.8,4.8,13.2,6.2c14.3,4.8,25.7,2.3,35-7.7l0,0c0.3-1,0.3-2.1,0.2-3.2v-1.1l0,0c-7.7-10.2-17.9-14.7-27.8-19.1
		s-20.3-9.1-28.2-19.5c-2.6-3.4-4.9-7-7.1-10.7c-3.4-5.6-7.1-10.9-11.2-16c-3.5-4.2-7.4-8.2-11.6-11.7L210,310
		c-7.2-5.8-14-11.2-10.3-22.8c4.3-13.8,21-26.2,35.6-37.3c1.1-0.7,2.2-1.5,3.2-2.4c7.9-5.9,16.9-12.3,25.2-14
		c8.3-1.7,16,2,22.8,11.1c3.1,4.2,6.2,9.1,9.2,13.9l5.5,8.6l14,20.4l6.4,9.1c2.6,3.7,5.3,7.5,8,11.1s6.8,9.2,9.6,13.5
		s8.7,13.2,5.8,22.4s-13.5,19.3-23.6,28.9c-5.9,5.6-11.5,10.9-15.5,16c-2.5,3-0.5,7.9,1.5,12.7c1,2,1.8,4.2,2.3,6.4
		c2.3,10.7-3.8,18.3-10.3,26.3c-3.1,3.6-5.8,7.5-8.3,11.5l0,0c-0.4,1.5-1,2.9-1.6,4.3c-0.5,1.1-0.9,2.2-1.3,3.4
		c-3.5,14,0.5,27.4,11.5,37.8c15.4,14.6,42,20.7,61.8,14.5c10.4-3.3,20.9-12.2,28.6-24.3s14.2-23.6,16.9-30.2
		c1.7-4.1,2.9-8.3,3.5-12.7c1-8.9,0.2-18.1-0.7-27.8c-0.4-4.5-0.8-9.2-1-13.7c-0.1-2.4-0.1-3.5-0.1-4.8s0.5-10.7,4.9-17.1
		s11.4-8.4,19.5-10c11.3-2.1,22.2-2.2,30.9-0.3c18.8,4,39.3,26,43.8,47.2c1.4,6.1,0.3,12.3-1,18.2c-2,9.2-5.8,19.3-9.5,29
		c-1.3,3.4-2.6,6.9-3.8,10.3l-0.9,2.3l-1.9,5.5c-2.7,6.7-5.7,13.3-9.2,19.6c-0.9,1.7-2.1,3.4-3.2,5.2c-2,2.8-3.7,5.9-5,9.1
		c-0.5,1.4-1,2.8-1.4,4.1c-1.4,4.3-2.7,8.4-5.5,12.5c-3.5,4.8-7.5,9.2-11.8,13.3c-2.2,2.3-4.2,4.8-5.9,7.5c-1.6,2.3-3.3,4.5-5.2,6.6
		c-2.4,2.5-5,5-7.6,7.3s-5.6,5-8.2,7.8s-3.2,3.6-4.7,5.5l-4.1,4.8c-0.7,0.9-1.6,1.7-2.5,2.4c-1.6,1.3-3,2.9-4.1,4.7
		c-1.4,2.4-2.6,4.9-3.5,7.5c-1.2,3.3-2.7,6.5-4.6,9.5c-7,10-18.9,16.2-36.7,19c-7.8,1.2-16.3,1.8-24.7,2.3
		c-13.6,1-26.6,1.8-35.8,5.4c-5.4,2.2-10.2,5.5-14.9,8.7s-10.2,7.2-15.2,8.2c-9.8,1.8-16.1-6-21.8-12.9c-2-2.6-4.2-5.1-6.6-7.4
		c-1.8-1.6-3.5-3.2-5.1-5c-2.9-3-5.6-5.9-9.7-8.2c-5-2.7-10.1-5.1-15.4-7.1l-3.4-1.4c-14.9-6.2-23.5-14-29.6-26.8
		c-3.8-8.2-5.3-16.7-4.9-28.3s-9.8-19.9-17.9-26.6l-0.3-0.2c-1.7-1.5-3.5-2.9-5.4-4.4c-8.7-6.7-17.7-13.7-20.7-24
		c-0.9-3.4-1-6.9-0.4-10.4c2.6-18.4,15.8-32.2,34.6-36.1c6.1-1.3,11.7-2,17.1-2.7c4.9-0.5,9.7-1.3,14.5-2.3c2.7-0.6,5.9-1.5,8.8-2.3
		l3.9-1.2c7.3-2,12.9-1.6,17.3,1.2c8.3,5.2,11,18.1,13.8,34.4c0.7,3.7,1.7,7.3,3,10.8c2.4,7,4.8,14.3,3,21.2
		c-1.2,4.4-4,8.7-6.7,12.9c-6.2,9.6-12,18.7-0.2,28.3c2.8,2.3,5.6,4.4,8.4,6.5c10.8,7.9,21,15.4,23.8,30.5
		c2.6,13.5,11.2,21.9,25.9,24.9c29.5,6.3,52.7,6.9,68.9,1.8c12.7-4,22.3-13.5,25.8-25.5s9.9-27.4,18.8-43.6
		c2.9-5.6,6.4-10.9,10.5-15.8c3.2-3.5,6.8-6.8,10.6-9.7c2.8-2.5,5.8-4.9,8.5-7.7l5.8-5.8c5.1-5.1,10.5-10.4,15.3-16
		c8.5-10,14.9-22.9,19.7-39.4l0.4-1.7c2.9-9.9,6.5-22.4,2-34.3c-5.8-15.1-19.6-25.6-35.7-27.1c-12.4-1.2-19.5,4.2-21.5,16.4
		c-1.1,5.8-0.6,11.5-0.1,17c0.2,1.7,0.3,3.2,0.4,4.8s0.3,4.3,0.5,6.5c0.6,5.5,0.8,11.1,0.6,16.7c-1.3,17.8-6.7,24.5-16.9,35.7
		s-22.3,23.9-33.4,29.1c-6.9,3.3-25.6,10.5-47.7,6.6c-37.7-6.5-59.5-25-64.8-55.1c-0.5-3.2-0.8-6.3-1.1-9.4s-0.8-7.6-1.7-12.4
		c-1.3-7.4-6.6-15.4-14.5-22.1s-16.8-10.7-24.7-11.3s-16.2,4.6-21.8,8.9l-0.8,0.7c-5.9,4.4-11.3,8.3-18.9,11.2
		c-4.9,1.8-11.7,2.9-18.2,4.1c-4.8,0.7-9.5,1.7-14.2,2.9c-22.5,6.4-33.3,32-36.9,42.7l-0.3,0.8c-1.6,4.8-3.6,10.7-2.1,17.5
		c2.1,10.4,10.5,19,17.1,24.5c15,12.5,24.3,30.3,31.3,46.1c1.4,3.5,2.3,7.1,2.9,10.8c0.6,3.9,1.6,7.6,3.1,11.2
		c3.6,8.1,8.1,14.4,13.2,18.9s10.7,7,16.3,9.7s8.9,4.3,12.8,7.1c8,5.6,15.8,12.9,13.2,25.5c-1.3,6.3-7.1,12.4-12.4,17.7l-3.7,4
		c-7.4,8.1-12,13.5-14.8,22.6c-2.1,6.7-2.2,18.8-0.3,27.5c1.5,7,3.3,13.7,5.2,20.2h0.4c-1.9-6.5-3.8-13.3-5.3-20.3
		C192.6,714.7,192.7,702.7,194.7,696z"/>
</g>
</svg>
