<svg xmlns="http://www.w3.org/2000/svg" viewBox="0 0 760.8 743.6"><g style="opacity:0.6"><path d="M370.5,15.1l2,1.9,1.9,1.9c11.7,10.4,24.2,16.2,35,16.2h0c10.8,0,19.9-5.3,27.1-15.8A67,67,0,0,0,445.3.1H445a68.6,68.6,0,0,1-8.8,19c-7.2,10.4-16.1,15.7-26.8,15.7h0c-10.8,0-23.1-5.8-34.8-16.2a15.3,15.3,0,0,1-1.8-1.8l-2.1-2c-5.2-4.6-10.8-8.8-16.3-12.9L352,.1h-.6c.9.7,1.9,1.3,2.8,2.1C359.7,6.2,365.3,10.5,370.5,15.1Z" style="fill:none;stroke:#fc6;stroke-miterlimit:10;stroke-width:0.1px"/><path d="M23.1,49c7.6-7,15.5-14.4,20.5-24.8,2.6-5.3,5.1-13.8,6.2-24.1h-.3C48.3,10.4,45.8,18.7,43.3,24c-5,10.4-12.8,17.7-20.4,24.8S5,65.5.4,78.9L.1,80.1v1.2A15.5,15.5,0,0,1,.8,79C5.3,65.7,14.4,57.2,23.1,49Z" style="fill:none;stroke:#fc6;stroke-miterlimit:10;stroke-width:0.1px"/><path d="M406.8,18.8h0A17.5,17.5,0,0,0,417.5,15a26.5,26.5,0,0,0,6.2-7.2l2.2-3.3A23.2,23.2,0,0,0,427.5.1h-.3c-.5,1.4-1,2.8-1.6,4.2a30.2,30.2,0,0,0-2.1,3.3,26.5,26.5,0,0,1-6.2,7.1,17.2,17.2,0,0,1-10.5,3.8h0c-9.7,0-19.1-8.7-27.4-16.4l-2.2-2h-.5l2.4,2.2C387.5,10.1,396.9,18.8,406.8,18.8Z" style="fill:none;stroke:#fc6;stroke-miterlimit:10;stroke-width:0.1px"/><path d="M6.5,110.8c1.7-9.2,3.4-17.8,5.9-23.9,4.3-10.4,13.1-19.1,22.5-28.3,5.8-5.7,11.8-11.6,16.8-18A102.8,102.8,0,0,0,65.8,17.3,162.3,162.3,0,0,0,71.4,1.5c.2-.5.3-1,.5-1.4h-.4c-.1.4-.3.8-.4,1.3-1.8,5.4-3.6,11-5.6,15.8A102.2,102.2,0,0,1,51.4,40.4c-5,6.4-11,12.3-16.7,17.9C25.3,67.6,16.3,76.4,12,86.8c-2.5,6.1-4.1,14.8-5.9,23.9s-3.4,17.9-6,24.6h0v1l.3-1C3.1,128.7,4.8,119.6,6.5,110.8Z" style="fill:none;stroke:#fc6;stroke-miterlimit:10;stroke-width:0.1px"/><path d="M35.2,224.5c12.3,4.9,27.5,10.9,33.4,23.4.4,6.7-2,12.5-4.5,18.6-3.6,8.5-7.6,18.2-5.4,33.3,1.8,11.5,8.5,18.9,16.4,27.5,3.2,3.5,6.5,7.1,9.7,11.3,8.2,10.8,13.9,23.1,18.2,33.7s7.9,18.8,19.4,21.6a221.1,221.1,0,0,0,23.2,3.5,95.2,95.2,0,0,0,10.1.6,50.7,50.7,0,0,0,13.2-1.6c7.8-2.4,12.8-8.8,19.1-16.8,1.9-2.4,3.8-4.9,6-7.5s3.4-3.7,5.5-5.8c4.3-4.4,8.8-8.9,10-12.5a9.5,9.5,0,0,0,.2-4.1,22.8,22.8,0,0,1-.1-3.8h0c-4.2-5.6-9.3-10-14.2-14.3-8.4-7.3-16.3-14.3-19.3-25.6-1.6-6-1-12.4,1.8-19.6s9.7-16,19.2-23.5l13.6-10.7c22-17.2,47-36.6,60.6-53.6h0a15.8,15.8,0,0,0-.3-7.1c-1.7-7.1-7.3-15.5-15.3-23.2s-16.2-12.7-23.1-14.6l-2.8-.7c-9.1-2-18.7-.6-27.8.8s-15.5,2.3-22.8,1.4c-15.8-2.1-27.2-12.7-31.2-29-5.3-21.5,9.3-35,23.4-48,10.4-9.7,21.2-19.6,24-32.8s-.8-25.7-3.1-34.5c-.9-3.6-2.1-7.1-3.3-10.6h-.3c1.2,3.5,2.3,7.1,3.2,10.7,2.3,8.8,5.8,22.1,3.2,34.4s-13.5,22.9-23.9,32.5C157,90.8,142.4,104.4,147.7,126c4,16.5,15.5,27.2,31.5,29.3,7.3.9,14.8-.2,22.8-1.4s18.6-2.7,27.8-.7l2.8.7c13.6,3.7,34.3,22.2,38.1,37.5a16.4,16.4,0,0,1,.3,6.9c-13.6,16.9-38.5,36.4-60.5,53.5l-13.6,10.7c-9.6,7.6-16.4,16-19.3,23.7s-3.4,13.7-1.8,19.8c3,11.4,11,18.4,19.4,25.8a98.9,98.9,0,0,1,14.1,14.1,22.8,22.8,0,0,0,.1,3.8,10.8,10.8,0,0,1-.2,4c-1.2,3.5-5.6,8-10,12.3-2,2.1-4,4.1-5.5,5.9s-4.1,5-6,7.5c-6.2,8-11.2,14.3-18.9,16.6-5.9,1.7-13.4,2.1-23.1,1-6.7-.7-16.3-1.8-23.2-3.5-11.3-2.7-14.8-10.9-19.1-21.4s-10.1-22.8-18.3-33.8c-3.2-4.1-6.5-7.7-9.7-11.3-7.9-8.5-14.6-15.8-16.3-27.2-2.3-15,1.8-24.7,5.3-33.2,2.5-6.1,4.9-11.9,4.5-18.8h0c-5.9-12.5-21.2-18.6-33.5-23.5a69.5,69.5,0,0,0-10.6-3.6A152.2,152.2,0,0,0,.1,217.4v.4A139.6,139.6,0,0,1,24.7,221,56.3,56.3,0,0,1,35.2,224.5Z" style="fill:none;stroke:#fc6;stroke-miterlimit:10;stroke-width:0.1px"/><path d="M214.1,10.3c.9,3.6,2.1,7.3,3.1,10.8,2.4,7.9,4.5,15.3,5.4,21.9a40.3,40.3,0,0,1,0,13c-1.8,10.2-8.7,18.2-15.3,25.9s-15.5,18-16.1,30.8,13.6,13,27.1,14.7l7.6,1a176.6,176.6,0,0,1,33,9.2,114.4,114.4,0,0,1,11.8,5.3c7.3,3.6,14.2,7,22.2,7.9a16.2,16.2,0,0,0,3.1.2,40.3,40.3,0,0,0,14.3-3c4.1-1.4,7.7-3,11.1-4.5,7.3-3.3,14.3-6.3,25-7.3a54.9,54.9,0,0,1,5.8-.3c11.6,0,21.3,3.1,30.8,6s15.8,5,23.8,5a35.9,35.9,0,0,0,4.7-.3c12.1-1.5,21.4-7.8,28.4-19.2s9.8-22.8,12.8-35.1a142.8,142.8,0,0,0,2.9-15.2c.5-4.5-.2-7.9-2.2-10.2-3.7-4.3-11-4.5-19.6-4.8a96.1,96.1,0,0,1-11.8-.8c-16.8-2.1-30.8-4.3-46.4-10.8-12.8-5.3-25.6-12-34.1-16.6C327.2,26,311,16.4,299.6.1h-.4c11.4,16.4,27.7,26.2,42.1,34.1a370.6,370.6,0,0,0,34.2,16.6c15.5,6.5,29.7,8.7,46.5,10.9,3.9.5,7.9.6,11.8.8,8.5.3,15.8.5,19.3,4.6,2,2.3,2.7,5.5,2.2,10a146.1,146.1,0,0,1-3,15.2c-5.9,24.3-14.4,50.7-40.9,54a35.4,35.4,0,0,1-4.6.2c-7.9,0-15.6-2.4-23.8-4.9s-19.2-6-30.8-6l-5.8.2c-10.8,1-17.8,4.1-25.1,7.4-3.5,1.5-7,3.1-11.1,4.5a42.6,42.6,0,0,1-14.2,2.9h-3c-8-.9-14.9-4.3-22.1-7.9-3.9-1.9-7.8-3.8-11.9-5.4a174.6,174.6,0,0,0-33.1-9.1l-7.5-1c-13.4-1.8-26.1-3.4-26.9-14.5S200,91,207.6,82.1s13.5-15.7,15.4-26A47.7,47.7,0,0,0,223,43c-.9-6.7-3.1-14.1-5.4-21.9-1.1-3.6-2.2-7.3-3.2-10.9s-1.3-4.7-2-7.1-.5-2-.8-3h-.4l.9,3.1Z" style="fill:none;stroke:#fc6;stroke-miterlimit:10;stroke-width:0.1px"/><path d="M24.6,23.5c3.6-5.6,6.8-12.3,6.9-23.4h-.4c0,11-3.2,17.7-6.8,23.2-4.5,7-11,11.2-18,15.6C4.2,40.3,2.1,41.6.1,43.1v.4c2.1-1.5,4.2-2.9,6.4-4.2C13.4,34.8,20,30.6,24.6,23.5Z" style="fill:none;stroke:#fc6;stroke-miterlimit:10;stroke-width:0.1px"/><path d="M237.2,31.7c2.1,4.8,4.4,9.7,5.1,14.8,2.1,14.1-5.2,23.2-12.2,32.1-4.8,6.1-9.3,11.8-10.7,18.8a12.2,12.2,0,0,0-.2,4.2c0,.8.1,1.5.1,2.6h0c1.8,5,7.1,8.5,11.3,10.5,15.2,7.5,39.8,11,57.8,13.6a55.5,55.5,0,0,0,8.2.6h0c7,0,13.5-1.2,20.3-2.4s15-2.7,23.7-2.7c2.3,0,4.7.1,7,.3l3.5.2,7.8.5a112,112,0,0,1,18.7,3.1c7.5,1.6,14.5,3.2,24.9,3.2h3.3c8.3-1.3,15.9-10,18.9-21.8,2.5-9.6,2-22.5-7.2-29.6s-42-15.7-58.8-17a78.7,78.7,0,0,0-9.4-.4,107.9,107.9,0,0,1-10.8-.4c-11.6-1.1-21.2-5.6-32.1-15.3C293,34.8,285.7,25.5,275.2,7.2A43.1,43.1,0,0,1,272.1.1h-.4a44.3,44.3,0,0,0,3.2,7.2C285.4,25.7,292.7,35,306.2,47c10.9,9.7,20.6,14.3,32.2,15.3,4.4.4,7.7.5,10.9.5s5.8,0,9.4.3c16.8,1.4,47.9,8.6,58.7,17,8.9,7,9.5,19.7,7,29.3-3,11.5-10.5,20.1-18.6,21.4h-3.3c-10.3,0-17.4-1.6-24.8-3.3a141.7,141.7,0,0,0-18.8-3.1l-7.8-.5-3.5-.2c-2.3-.2-4.6-.3-7-.3-8.8,0-16.4,1.4-23.7,2.7s-13.3,2.4-20.3,2.4h0a53.4,53.4,0,0,1-8.1-.5c-18-2.6-42.6-6.1-57.7-13.6-4.1-2-9.4-5.4-11.1-10.3-.1-1.1-.1-1.9-.1-2.6a10,10,0,0,1,.1-4.2c1.4-6.9,5.9-12.6,10.7-18.6,7.1-8.9,14.4-18.1,12.3-32.3-.8-5.2-3-10.2-5.2-15L235,25.8A166.6,166.6,0,0,1,226.9.1h-.3a164.6,164.6,0,0,0,8.1,25.8C235.5,27.8,236.3,29.8,237.2,31.7Z" style="fill:none;stroke:#fc6;stroke-miterlimit:10;stroke-width:0.1px"/><path d="M36.6,173.9c4.9-5.5,9.2-11.3,13.8-17.4,7.3-9.7,14.8-19.7,24.5-28l2-2c.6-.6,1.2-1.3,1.8-1.8,6.4-5.6,13.6-10.1,20.6-14.4,4.8-3,9.9-6.1,14.6-9.6L125,92.3c5.5-4.3,11.2-8.7,17-12.6,2.7-1.9,5.5-3.7,8.5-5.6,14.7-9.4,31.3-20,33.8-39.1,1.4-10.2-1.3-23.2-7-34.9H177c5.6,11.7,8.3,24.7,7,34.8-2.5,19-19.1,29.6-33.7,38.9l-8.5,5.5c-5.8,4-11.5,8.4-17,12.7-3.6,2.8-7.3,5.7-11.1,8.4S104,107,99.1,110c-7,4.3-14.3,8.8-20.6,14.4-.7.6-1.3,1.3-1.9,1.9a18.4,18.4,0,0,1-2,1.9c-9.7,8.3-17.2,18.4-24.5,28.1-4.6,6.1-8.9,11.9-13.8,17.3A66.8,66.8,0,0,1,.1,194.5v.4A68.4,68.4,0,0,0,36.6,173.9Z" style="fill:none;stroke:#fc6;stroke-miterlimit:10;stroke-width:0.1px"/><path d="M15,160.2c4.7-6.9,4.7-19.4,4.2-29.5-.4-8.2-.2-23.8,5.1-36.8,4.1-9.9,14-18.7,23.4-27.2L52,62.8C71,45.5,80.5,29.9,88.8,11.9c.7-1.5,1.3-3.2,1.9-4.8a57.7,57.7,0,0,1,2.5-5.9L93.8.1h-.4a4.1,4.1,0,0,0-.5.9,50.9,50.9,0,0,0-2.5,6,39,39,0,0,1-2,4.7c-8.2,18-17.6,33.6-36.6,50.9l-4.3,3.8C38,75,28.1,83.8,24,93.8c-5.4,13-5.5,28.7-5.1,36.9.5,10.1.4,22.5-4.2,29.3-3.4,4.9-8.8,8.4-14.6,11.4v.4C6,168.7,11.5,165.2,15,160.2Z" style="fill:none;stroke:#fc6;stroke-miterlimit:10;stroke-width:0.1px"/><path d="M5.3,9.7C7.6,7.4,8.6,3.7,8.6.1H8.2c0,3.5-1,7.1-3.1,9.4a7.4,7.4,0,0,1-5,2.4h0v.3h0A7.1,7.1,0,0,0,5.3,9.7Z" style="fill:none;stroke:#fc6;stroke-miterlimit:10;stroke-width:0.1px"/><path d="M113.6,5.6c-5,5.9-8.7,14-12.2,21.8L99.8,31C94.6,42.1,88.2,56,81.2,65.4c-3.8,5.2-10.1,8.9-16.7,12.8-9.4,5.6-19.2,11.4-22.9,22-1.4,3.8-1.4,8-.1,13.2a6.8,6.8,0,0,0,6.8,4.4h0c5.2,0,11.4-4,13.9-6.2,5-4.2,9.5-10.1,13.7-15.8,2.3-3,4.6-6.2,7.1-9.1s5.2-6,8.6-8c8.1-4.8,18.4-8.4,29.4-12.3,15.2-5.3,30.9-10.8,40.7-19.8,5.2-4.7,8.3-12,8.5-20.2a32.3,32.3,0,0,0-8.5-23.2A31.9,31.9,0,0,0,158.4.1h-.6a37,37,0,0,1,3.6,3.3,32.7,32.7,0,0,1,8.5,23c-.3,8-3.3,15.3-8.5,20-9.7,8.9-25.4,14.4-40.5,19.7-11,3.9-21.3,7.5-29.4,12.3-3.5,2-7.6,6.7-8.8,8.1s-4.8,6-7.1,9.1c-4.2,5.7-8.6,11.5-13.6,15.7-2.5,2.2-8.6,6.2-13.7,6.2a6.6,6.6,0,0,1-6.5-4.2c-1.3-5.1-1.3-9.3.1-13,3.7-10.5,13.4-16.2,22.8-21.8,6.6-3.9,12.9-7.7,16.8-12.9,7-9.5,13.4-23.4,18.6-34.5.5-1.2,1.1-2.4,1.6-3.5,3.6-7.8,7.2-15.8,12.2-21.7A29.7,29.7,0,0,1,120.4.1h-.6A32.6,32.6,0,0,0,113.6,5.6Z" style="fill:none;stroke:#fc6;stroke-miterlimit:10;stroke-width:0.1px"/><path d="M253,95.8h.1a7.5,7.5,0,0,1,1.3,2.5v.2h0c2.6,2.4,6.5,3.7,10.9,3.7h0c6.3,0,12.6-2.7,15.6-6.6a9.1,9.1,0,0,0,1.8-7.9c-1.4-5.2-6.4-6.9-11.8-8.3h-.1c-9.2,1.3-18.7,7-17.9,16.2Zm17.9-15.9c5.4,1.4,10.2,3.1,11.5,8.1a8.5,8.5,0,0,1-1.7,7.6c-3,3.9-9.1,6.5-15.3,6.5h0a15.7,15.7,0,0,1-10.6-3.7h0a9.2,9.2,0,0,0-1.4-2.6C252.5,85.4,264.5,80.9,270.9,79.9Z" style="fill:none;stroke:#fc6;stroke-miterlimit:10;stroke-width:0.1px"/><path d="M348.6,101.9v.2h.1c5.6,3.5,15,5.9,23.3,5.9h0c5.4,0,15-1.1,17.4-8.4h0a8.5,8.5,0,0,0-2.8-6.7c-3.5-3.7-10.7-6-18.6-6-10,0-20.7,3.9-20.9,12.4h.1A7.5,7.5,0,0,1,348.6,101.9Zm19.5-14.7c7.8,0,14.9,2.3,18.4,5.9a9.2,9.2,0,0,1,2.7,6.5c-2.4,7.1-11.8,8.2-17.1,8.2h0c-8.2,0-17.5-2.4-23.1-5.9v-.2a11.9,11.9,0,0,0-1.3-2.5C347.8,91,358.4,87.2,368.1,87.2Z" style="fill:none;stroke:#fc6;stroke-miterlimit:10;stroke-width:0.1px"/><path d="M97.4,270.3c-2,8.6-4,17.5-3.2,30.8,6.7,23.1,14.6,40.5,24,53.4a47.3,47.3,0,0,0,8.4,9.1,30.9,30.9,0,0,0,18.6,6.3h0c6.8,0,12.6-2.4,16.3-6.7s5.7-11.5,4.6-20.2a79.7,79.7,0,0,0-4.2-14.9c-1.7-4.9-3.5-10-4.1-14.9-2.6-18.8,5.5-38.3,21.4-52.2a210.4,210.4,0,0,1,20.6-15.3c7.3-5,14.8-10.2,21.9-16.7,10.9-9.8,23.2-21,25.2-37.9h0c-1.3-8-3.7-16.2-12.8-22.1a32,32,0,0,0-17.9-4.9c-6.1,0-12.3,1.2-18.8,2.4s-14.5,2.5-22.1,2.5a49.6,49.6,0,0,1-5.5-.2,89.1,89.1,0,0,1-12.9-2.6c-6.5-1.6-13.1-3.2-18.4-3.2l-3,.2c-7.1,1.1-14.7,7.3-20.5,12.5-9.6,8.8-18.7,17.9-20.2,25.3a45.8,45.8,0,0,0,0,11.1,97.7,97.7,0,0,0,2.7,13.7c1.9,7.6,3.9,15.4,2.9,27.9A106.2,106.2,0,0,1,97.4,270.3Zm.5-44.5A86.5,86.5,0,0,1,95.2,212c-.4-3.4-.6-8,0-10.9,1.5-7.4,10.5-16.4,20.1-25.1,5.7-5.2,13.2-11.3,20.2-12.4a14.2,14.2,0,0,1,3-.2c5.2,0,11.9,1.6,18.3,3.2a129.3,129.3,0,0,0,13,2.6l5.5.2c7.7,0,15-1.3,22.1-2.6s12.8-2.3,18.8-2.3,12.6,1.5,17.7,4.8c9,5.8,11.4,13.9,12.7,21.8-2,16.7-14.3,27.8-25.1,37.7-7.1,6.4-14.7,11.6-21.9,16.6A196.7,196.7,0,0,0,179,260.8c-16.1,13.9-24.2,33.5-21.6,52.5.6,4.9,2.4,10,4.2,14.9s3.5,10.1,4.1,14.9c1.2,8.6-.4,15.3-4.5,19.9s-9.3,6.5-16,6.5h0a30.4,30.4,0,0,1-18.4-6.2,49.2,49.2,0,0,1-8.3-9c-9.4-12.8-17.3-30.2-24-53.3-.8-13.2,1.3-22.1,3.3-30.6a96.9,96.9,0,0,0,2.9-16.7C101.7,241.2,99.8,233.3,97.9,225.8Z" style="fill:none;stroke:#fc6;stroke-miterlimit:10;stroke-width:0.1px"/><path d="M119.5,269.4c.4,1.5.6,3.1.9,4.9.9,6,2.1,13,8.3,16.2h.1c7.6-.6,12.3-7.3,17.4-14.4a86.9,86.9,0,0,1,5.7-7.5c11.1-12.9,23.7-21.4,35.9-29.7,8.5-5.8,16.6-11.3,23.7-18a17.3,17.3,0,0,0,5.4-5,18.5,18.5,0,0,1,3.8-4.1c6.5-8.2,8.7-17.8,5.5-24.4-2-4.1-7-9.1-19.5-9.1l-5.3.2c-4,.4-8.6,1.3-13.4,2.2s-11.5,2.1-17.6,2.7l-3.8.4c-16.4,1.6-26.2,2.7-36.1,14.3-7,8.3-10.8,18.6-11.8,32.3-.7,8.8-.2,18.5.3,27C119.2,261.7,119.4,265.8,119.5,269.4Zm-.5-38.8c1.1-13.7,4.8-23.9,11.8-32.1,9.7-11.6,19-12.5,35.9-14.3l3.7-.3c6.2-.7,12.2-1.8,17.6-2.8s9.4-1.7,13.4-2.1l5.3-.3c12.3,0,17.2,4.9,19.2,9,3.1,6.5,1,15.9-5.4,23.9a21.4,21.4,0,0,0-3.9,4.1c-1.6,2-3,3.9-5.2,5h-.1c-7.1,6.7-15.2,12.2-23.8,18-12.1,8.3-24.7,16.8-35.9,29.8-2,2.3-3.8,4.9-5.7,7.5-5,7-9.7,13.7-17.1,14.2-6-3.2-7.1-9.7-8.1-16-.3-1.7-.5-3.3-.8-4.9-.1-3.5-.3-7.6-.5-11.8C118.9,249,118.4,239.3,119,230.6Z" style="fill:none;stroke:#fc6;stroke-miterlimit:10;stroke-width:0.1px"/><path d="M347.5,227.3c2.7,25.1,5.2,48.8,24.8,65.7,13.1,11.4,34.3,23.5,54.7,23.5h0c12.4,0,22.5-4.6,30.2-13.7s10.1-17.1,14-27.8a38.2,38.2,0,0,0,1.3-3.6l2.4-6.1c4.3-11.5,8.5-22.4,9.5-31.4,2.3-19.9-4.9-27.9-13.9-35.7-13.9-12-32-12.9-51.2-13.9-4.5-.3-9.9-.7-15.6-1.3-8.9-.8-19-1.7-27.5-1.7s-15.1,1.1-18.3,3.2c-13.6,9-12,30.9-10.7,39.9Zm10.6-42.5c3.2-2.1,9.1-3.1,18.1-3.1s18.6.9,27.5,1.7c5.7.5,11.1,1,15.6,1.2,19.1,1,37.2,1.9,51,13.9,8.9,7.6,16,15.6,13.8,35.3-1.1,9-5.2,19.9-9.5,31.4-.8,2-1.6,4.1-2.3,6.1s-1,2.4-1.4,3.6c-3.9,10.7-7.3,19.8-14,27.7s-17.6,13.5-29.9,13.5c-20.2,0-41.4-12.1-54.5-23.4-19.4-16.8-22-40.4-24.6-65.4l-.4-2.9C346.2,215.4,344.6,193.7,358.1,184.8Z" style="fill:none;stroke:#fc6;stroke-miterlimit:10;stroke-width:0.1px"/><path d="M366.2,231.5c2.3,21.6,4.3,40.2,21.8,54.1,8.2,6.4,22.8,14,37.4,14h0c7.2,0,13.3-1.9,18.1-5.6,13.7-10.6,19.6-32.6,20.6-48.2,1-18-5.6-33.9-17.7-42.3s-25.4-8.6-40.4-9.4l-9.9-.3c-9.4,0-21.1,1.2-27,10.4-3.4,6.9-3.2,15.1-3,23.1C366.1,228.7,366.2,230.1,366.2,231.5Zm3.2-27.2c5.9-9,17.4-10.2,26.7-10.2,3.3,0,6.5.2,9.9.4,14.9.8,29.1,1.5,40.2,9.3s18.6,24.1,17.5,42c-.9,15.6-6.8,37.4-20.4,47.9-4.8,3.7-10.8,5.6-17.9,5.6h0c-14.4,0-29.1-7.6-37.2-14-17.3-13.8-19.2-31.5-21.6-53.9-.1-1.3-.1-2.7-.2-4.1C366.2,219.4,366,211.2,369.4,204.3Z" style="fill:none;stroke:#fc6;stroke-miterlimit:10;stroke-width:0.1px"/><path d="M151.1,228h.1l1.4,1.4a8.4,8.4,0,0,0,1.8,1.5h.1a69.7,69.7,0,0,0,29.7-13.5c3.3-2.6,7.1-6.2,7.9-10.6h0l-1.7-1.8a7.4,7.4,0,0,1-1.2-1.3H189l-4.6-.2c-8.7,0-20.6,2.6-27.7,10a19.6,19.6,0,0,0-5.6,14.7Zm5.8-14.6c7-7.3,18.8-9.8,27.5-9.8a33.1,33.1,0,0,1,4.5.2l1.3,1.3a8.3,8.3,0,0,1,1.5,1.7c-.8,4.3-4.5,7.8-7.7,10.3a71.9,71.9,0,0,1-29.5,13.5,10.7,10.7,0,0,1-1.6-1.4,9.3,9.3,0,0,0-1.4-1.4A19.3,19.3,0,0,1,156.9,213.4Z" style="fill:none;stroke:#fc6;stroke-miterlimit:10;stroke-width:0.1px"/><path d="M402.8,275.7a34.5,34.5,0,0,0,18.4,5.9h0a23.5,23.5,0,0,0,19.5-10c11.1-15.3,6.1-44.2-9.8-56.2a36,36,0,0,0-22.2-7.2,50,50,0,0,0-7.6.7c-11.1,1.9-16.8,10.7-16.6,25.3C384.6,245.4,387.2,265.6,402.8,275.7Zm-1.6-66.5a49.3,49.3,0,0,1,7.5-.6,36.3,36.3,0,0,1,22,7.1c7.5,5.7,12.9,15.4,14.8,26.8s0,21.8-5.1,28.9a22.7,22.7,0,0,1-19.2,9.8h0a34.4,34.4,0,0,1-18.2-5.7c-15.4-10-18-30.2-18.2-41.3C384.6,219.7,390.3,211.1,401.2,209.2Z" style="fill:none;stroke:#fc6;stroke-miterlimit:10;stroke-width:0.1px"/><path d="M44.4,374.2a68.7,68.7,0,0,0,4.5,7.2H49c2.3,3,6.2,7.9,11.6,7.1s13.6-7.8,12.2-18c-1.1-8.2-6.6-14.2-17.2-18.9l-2.1-.9c-5.2-2.1-10.1-4.2-12.3-9.1-2.3-9.7-2.8-22.8-3.3-36.7-.4-11.5-.8-23.4-2.3-33.5-3-19.6-13-31.3-30.7-35.7a33.9,33.9,0,0,0-4.8-1v.3l4.7,1c17.5,4.4,27.5,16,30.4,35.4,1.6,10.2,2,22.1,2.4,33.6.5,13.9.9,27,3.3,36.7,2.3,5.1,7.2,7.2,12.4,9.4a18.9,18.9,0,0,1,2.1.9c10.6,4.5,16,10.4,17.1,18.5,1.3,10-6.2,16.8-11.9,17.7s-9.1-4.1-11.3-7h-.1a59.6,59.6,0,0,1-4.5-7.2c-4.5-8.2-9.3-16.8-22.8-14.5-6.3,1-13.5,4.4-21.8,10.3v.4c8.3-5.9,15.5-9.4,21.9-10.4C35.2,357.6,39.9,366.1,44.4,374.2Z" style="fill:none;stroke:#fc6;stroke-miterlimit:10;stroke-width:0.1px"/><path d="M8.8,327.4c7.8-8.6,12-21.3,11.4-34.9s-5.4-25.1-13.1-32.1a22.2,22.2,0,0,0-7-3.3v.3a22.5,22.5,0,0,1,6.8,3.3c7.6,6.9,12.5,18.8,13,31.8s-3.6,26.1-11.3,34.7a53,53,0,0,1-8.5,7.3v.4A43.8,43.8,0,0,0,8.8,327.4Z" style="fill:none;stroke:#fc6;stroke-miterlimit:10;stroke-width:0.1px"/><path d="M325.6,329.7a31.8,31.8,0,0,0-2.3-7.4c-7.4-18.5-24.9-37.9-37.6-48.9-8.7-7.5-15.9-11.9-21.5-13a14.8,14.8,0,0,0-3.8-.4c-15.1,0-33.7,15.4-34.9,28.9.1.6.3,1.3.4,2a10.3,10.3,0,0,1,.4,3h0a289.5,289.5,0,0,0,18.2,35.6c3,4.9,6.1,9.7,10,13.6,9.7,9.7,26.4,16.4,40.7,16.4h0c7.9,0,14.6-2,19.7-5.9C323.5,347.2,327.1,339.1,325.6,329.7Zm-30.4,29.6h0c-14.2,0-30.8-6.7-40.4-16.3-3.9-3.9-7-8.7-10-13.6a274.5,274.5,0,0,1-18.1-35.5,10.6,10.6,0,0,0-.4-3.1,7.2,7.2,0,0,1-.4-1.9c1.1-13.4,19.5-28.6,34.5-28.6a23.3,23.3,0,0,1,3.8.4c5.5,1.1,12.7,5.5,21.3,13,12.6,10.9,30,30.3,37.4,48.7a39,39,0,0,1,2.4,7.3c1.4,9.4-2.1,17.3-10.6,23.8C309.6,357.3,303.1,359.3,295.2,359.3Z" style="fill:none;stroke:#fc6;stroke-miterlimit:10;stroke-width:0.1px"/><path d="M292.5,300.1c-7.6-7-16.7-12-23.7-13.1a16.9,16.9,0,0,0-3.8-.4,13.9,13.9,0,0,0-10.5,4.1c-3,3.1-4.5,8-4.3,13.8,3.1,13.3,6.2,24.1,15.6,31.7,5.8,4.8,14.9,8,23,8h0c9.7,0,16.4-4.5,18.4-12.2a21,21,0,0,0,.1-7.9C306.2,316.4,300.8,307.6,292.5,300.1Zm14.3,31.8c-1.9,7.6-8.5,11.9-18,11.9h0c-8,0-17-3.1-22.8-7.9-9.3-7.5-12.3-18.2-15.4-31.4-.3-5.7,1.2-10.5,4.2-13.6s5.9-3.9,10.2-3.9l3.7.3c14.6,2.3,35.8,20.6,38.3,36.8A22.7,22.7,0,0,1,306.8,331.9Z" style="fill:none;stroke:#fc6;stroke-miterlimit:10;stroke-width:0.1px"/><path d="M377.5,360.2h-.1a13.7,13.7,0,0,0-2.8-.2,22,22,0,0,0-6.1.9c-11.2,3.3-22.4,12.9-26.1,22.5-2.7,6.7-1.6,14.1-.5,21.3s1.9,13,.1,18.5c-2.9,8.5-10.5,13.8-17.9,19s-15.9,11.1-17.9,20.4a21.7,21.7,0,0,0,5,18.2c6.2,7.4,17.6,12.2,29,12.2h0c7.5,0,14-2,19-5.7s6.5-7,9.4-11.2l.4-.7c2.8-5.6,3.7-12.2,4.7-19.3s1.8-12.5,4-18.8a94.4,94.4,0,0,1,4-9.8c4-9.2,7.4-17.2,5.8-36.8C386.5,379.4,384.6,365.8,377.5,360.2Zm3.8,67.1c-1.3,3-2.7,6.1-4,9.9-2.1,6.3-3,12.7-3.9,18.9s-2,13.6-4.7,19.1l-.4.6c-3,4.5-5.5,8.3-9.3,11.2s-11.4,5.6-18.8,5.6c-11.2,0-22.6-4.7-28.8-12.1a21,21,0,0,1-4.8-17.8c1.9-9.2,9.6-14.5,17.7-20.2s15.1-10.6,18-19.2c1.9-5.6.9-11.9,0-18.6s-2.2-14.6.4-21.2c3.7-9.5,14.8-19,25.9-22.2a18.2,18.2,0,0,1,6-.9h2.7c6.9,5.6,8.9,19.1,9.9,30.2C388.8,410.2,385.4,418.1,381.3,427.3Z" style="fill:none;stroke:#fc6;stroke-miterlimit:10;stroke-width:0.1px"/><path d="M53.1,430.1a9.1,9.1,0,0,0-5.7-2.2c-3.6,0-7.5,2.2-10.8,6.1s-6.3,10.9-5.6,15.3a14.6,14.6,0,0,0,14.4,11.5h0a12.2,12.2,0,0,0,10.1-5C60.4,449.1,59,435.2,53.1,430.1Zm2.2,25.4a12,12,0,0,1-9.9,4.9h0a14.4,14.4,0,0,1-14.1-11.2c-.7-4.3,1.5-10.3,5.6-15s7.1-5.9,10.5-5.9a8.4,8.4,0,0,1,5.5,2.1C58.7,435.4,60,449,55.3,455.5Z" style="fill:none;stroke:#fc6;stroke-miterlimit:10;stroke-width:0.1px"/><path d="M181.4,476.5a14.7,14.7,0,0,1-.7-1.7h0a8.7,8.7,0,0,0-4.7-1.5,9.7,9.7,0,0,0-7,3.3,8.3,8.3,0,0,0-2.4,6.5h0a6.5,6.5,0,0,0,6.1,3.8h0c4.1,0,9.1-3.6,9.6-8.4h0A7.2,7.2,0,0,0,181.4,476.5Zm-8.7,10.1h0A6,6,0,0,1,167,483a7.9,7.9,0,0,1,2.2-6.3,9.4,9.4,0,0,1,6.8-3.1,7.7,7.7,0,0,1,4.4,1.4,8.7,8.7,0,0,0,.7,1.7,4.8,4.8,0,0,1,.8,1.8C181.5,483.1,176.7,486.6,172.7,486.6Z" style="fill:none;stroke:#fc6;stroke-miterlimit:10;stroke-width:0.1px"/><path d="M657.5,6.6a33.7,33.7,0,0,0,26.9,1.1A27.5,27.5,0,0,0,694.8.1h-.5a25.7,25.7,0,0,1-10,7.3,33,33,0,0,1-26.6-1.1A25.6,25.6,0,0,1,649.9.1h-.5A26.3,26.3,0,0,0,657.5,6.6Z" style="fill:none;stroke:#fc6;stroke-miterlimit:10;stroke-width:0.1px"/><path d="M355.5,21c3.3,2.4,6.5,4.9,9.5,7.3,7.5,5.8,14.4,11.2,22.1,13.8,8.7,4.3,16.9,6.5,24.8,6.5a40.5,40.5,0,0,0,18.6-4.5c17.4-8.7,27.2-27.8,30.9-44H461c-3.7,16.1-13.4,35-30.6,43.7-12.9,6.5-27.4,5.8-43.1-2-7.7-2.6-14.7-8-22-13.8-3.1-2.4-6.3-4.9-9.6-7.3l-10.9-7.4A210.7,210.7,0,0,1,326.2.1h-.6a213.8,213.8,0,0,0,19,13.5Z" style="fill:none;stroke:#fc6;stroke-miterlimit:10;stroke-width:0.1px"/><path d="M480.1,27.7c2.4,5.7,7.5,8.4,15.8,8.4A73.5,73.5,0,0,0,508,34.8h.1l2.4-.2a34.2,34.2,0,0,1,9.9,2c1.7.5,3.5,1,5.1,1.3l4.1.9c5.6,1,11.3,2.2,16.6,4.6l6.2,2.7c10.2,4.4,20.7,9,27.5,17.8l1.2,1.7c4.8,7.1,8.9,14.7,12.9,22s9.1,16.8,14.7,24.6,12.7,16.1,19.7,24.2l7,8.2c11.2,13.2,21.7,25.7,41.2,25.7h0a61.7,61.7,0,0,0,16.2-2.4c16.8-4.5,46.6-15.8,56.8-40.4,2.7-6.5,4.4-15.6,6.3-25.2,1.5-7.3,3-14.8,4.9-21V80.1a200,200,0,0,0-5.2,22.1c-1.9,9.6-3.7,18.7-6.4,25.2-10.1,24.4-39.7,35.7-56.5,40.2a61.6,61.6,0,0,1-16.1,2.4h0c-19.3,0-29.8-12.5-40.9-25.6l-7-8.2c-7-8.1-14.3-16.6-19.8-24.1s-10.1-16.4-14.6-24.6-8.1-15-12.9-22.1l-1.2-1.7c-6.9-8.9-17.4-13.5-27.7-17.9l-6.2-2.7c-5.2-2.5-11-3.6-16.6-4.7l-4.1-.8-5.1-1.4c-3.2-.9-6.6-1.9-10-1.9l-2.5.2h-.1a72.3,72.3,0,0,1-12,1.3c-8.1,0-13.2-2.7-15.4-8.2s-1.6-15.3-.9-23.9l.3-3.6h-.4c-.1,1.1-.1,2.4-.3,3.6C478.5,12.3,477.8,21.9,480.1,27.7Z" style="fill:none;stroke:#fc6;stroke-miterlimit:10;stroke-width:0.1px"/><path d="M626,10.9c10.4,14.1,29,22.6,49.7,22.6a65.2,65.2,0,0,0,14.8-1.6c18.3-4,24.2-16.6,26.8-31.8H717a61.3,61.3,0,0,1-3.7,13.4c-4.3,9.8-11.6,15.6-22.9,18.1a70.5,70.5,0,0,1-14.7,1.5c-20.6,0-39-8.4-49.5-22.4a98.4,98.4,0,0,1-3-10.6h-.4a87.7,87.7,0,0,0,3.1,10.7Z" style="fill:none;stroke:#fc6;stroke-miterlimit:10;stroke-width:0.1px"/><path d="M525.9,18.3c9.3,1.3,18.2,4.1,26.8,6.8,5.5,1.7,11.3,3.5,17.1,4.9,3.7.9,7.4,1.6,10.7,2.1a63.4,63.4,0,0,0,8.9.8h0c5.1,0,8.1-1.1,9.1-3.2,2.6-5.6,4.6-17.8,4.7-29.6h-.4c-.1,11.7-2.1,23.9-4.6,29.5-.9,1.9-3.9,2.9-8.8,2.9a60.5,60.5,0,0,1-8.8-.7c-3.3-.5-7-1.2-10.7-2.1-5.9-1.4-11.6-3.2-17.1-5-8.6-2.7-17.5-5.5-26.9-6.8S509.3,10.3,505,.1h-.4C509,10.5,516.5,16.9,525.9,18.3Z" style="fill:none;stroke:#fc6;stroke-miterlimit:10;stroke-width:0.1px"/><path d="M731.5,9.2c-.5,12.9-.9,24.2-9.5,30.8s-24.6,8.9-36.1,10.3l-3.3.5a60.6,60.6,0,0,1-6.2.4h0c-11.6,0-24-4-36.1-7.7s-21.8-6.9-32.2-7.5H608c-5.9,1.7-7.4,8.1-6.8,13.4,1.7,20.9,9.1,38,25.5,59.1,3.3,4.2,6.4,8.5,9.4,12.7,5.1,7,9.9,13.7,15.5,19.9,8.4,9.5,19,14.3,31.4,14.3h0c14.4,0,30.6-6.7,44.4-18.5,14.3-15.4,16.4-35.9,17.4-55.5.1-1.6.1-3.1.1-4.9.3-7.8.5-17.7,4.4-22.5a53.9,53.9,0,0,1,11.5-10.5v-.4A53.8,53.8,0,0,0,749,53.8c-3.9,4.9-4.2,14.8-4.4,22.7-.1,1.7-.1,3.3-.2,4.8-.9,19.6-3.1,40-17.2,55.4C713.4,148.3,697.3,155,683,155a40,40,0,0,1-31.1-14.1,241.2,241.2,0,0,1-15.5-20c-3-4.1-6.1-8.4-9.4-12.6-16.4-21-23.7-38.1-25.4-58.9-.6-5.2.8-11.4,6.5-13,10.3.6,21.4,4,32.1,7.4s24.5,7.7,36.2,7.7h0a40.4,40.4,0,0,0,6.2-.4l3.4-.4c11.4-1.4,27.2-3.5,36.2-10.4s9.2-18,9.7-31.1c.1-2.7.2-5.6.3-8.4a1.7,1.7,0,0,0,.1-.7h-.4V.8C731.7,3.6,731.6,6.4,731.5,9.2Z" style="fill:none;stroke:#fc6;stroke-miterlimit:10;stroke-width:0.1px"/><path d="M737,183.9h-.1c-2.4,1.9-6.1,4.8-5.7,8.9h.1a13.4,13.4,0,0,1,2.1,2h.1a67.9,67.9,0,0,0,13.5,1.3h0a70.2,70.2,0,0,0,13.8-1.4v-.4A63.4,63.4,0,0,1,747,196a67,67,0,0,1-13.4-1.4,18.4,18.4,0,0,0-2-1.9c-.3-3.8,3.1-6.5,5.5-8.6h.1c4.3-3.4,9.9-6,15.9-8.7l7.7-3.6v-.4l-7.9,3.7C747,177.8,741.3,180.4,737,183.9Z" style="fill:none;stroke:#fc6;stroke-miterlimit:10;stroke-width:0.1px"/><path d="M752.3,3c.4,4.9,4.4,9.2,8.5,9.2v-.3c-4,0-7.7-4.2-8.1-8.9a14,14,0,0,1,0-2.9h-.4A28,28,0,0,0,752.3,3Z" style="fill:none;stroke:#fc6;stroke-miterlimit:10;stroke-width:0.1px"/><path d="M703.2,68.3a37.1,37.1,0,0,0-7.3.8c-5.3,1-11.1,2.7-17.2,4.5A203,203,0,0,1,658,78.9c-6.3,1.1-9,3.9-8.3,8.5h0a134,134,0,0,1,5.7,15.2c3.9,11.9,7.9,24.1,17.6,30.5a29.5,29.5,0,0,0,16.2,4.6h0a39,39,0,0,0,26.6-10.9c5.8-5.7,10-14.8,11.3-24.6s-.7-20-5.7-26.7C718.1,71.1,711.1,68.3,703.2,68.3Zm12.4,58.2a38.6,38.6,0,0,1-26.4,10.8,28.6,28.6,0,0,1-16-4.5c-9.7-6.3-13.6-18.5-17.5-30.3a134.2,134.2,0,0,0-5.6-15.2c-.7-4.4,1.8-7,7.9-8.1a181.4,181.4,0,0,0,20.8-5.3c6.1-1.8,11.9-3.4,17.2-4.5a35.1,35.1,0,0,1,7.2-.7c7.8,0,14.6,2.7,17.9,7.1C731.9,90.3,726.9,115.4,715.6,126.5Z" style="fill:none;stroke:#fc6;stroke-miterlimit:10;stroke-width:0.1px"/><path d="M299.2,225.3c1.8,3.4,3.7,6.9,5.2,10.4s2.7,6.1,4.1,9.2c8.2,18.6,16.7,37.9,29,53.4a231.3,231.3,0,0,0,15.9,17.2,178.7,178.7,0,0,1,14.3,15.1,63.9,63.9,0,0,1,5.2,7.6c3.4,5.2,6.7,10.2,12,13.6h1.6c20.4-1.2,38.1-2.3,57-5.7,13.4-2.5,22.9-5.1,28.1-7.8,10.9-5.5,13.8-15.5,17-26,.3-1.1.7-2.2,1-3.3,4.6-14.9,11.2-30.1,28.4-39.5h.1l.4-.5,10.7-5.7,19-9.9,8.2-4.3c4.1-2.3,8.5-4.6,12.7-6.7a50,50,0,0,0,8.2-5.3l1.9-1.4a35.1,35.1,0,0,1,8-4.7c5.7-2.2,11.9-2.5,17.9-2.8s10.6-.4,15.7-1.9,8.2-2.7,11-6.8c9-13.2,4.4-23-3-35.5s-17.3-23.3-28.2-30.3a40.5,40.5,0,0,0-6.2-3.2,43.8,43.8,0,0,1-6.7-3.7c-2.5-1.7-4.9-3.5-7.2-5.3l-5.7-4.4c-7.9-5.7-17.4-12-28.1-15.8a34.7,34.7,0,0,0-10.6-1.5,47.4,47.4,0,0,0-8.6.8c-3.3.6-5.9,2.1-8.8,3.6a32.2,32.2,0,0,1-3.7,2l-4.3,1.6a33.5,33.5,0,0,0-5.5,2.3c-4.3,2.4-8.5,5.2-12.6,7.8s-7.9,5.3-12,7.6c-19.6,11-36.4,17.2-52.7,19.6a103.9,103.9,0,0,1-14.7,1.1,98,98,0,0,1-18-1.7,141.3,141.3,0,0,1-13.9-3.5c-8.1-2.2-16.3-4.5-24.5-4.5a33.1,33.1,0,0,0-12.3,2.1c-7.7,2.8-14.7,8.7-22,15-3.7,3.2-7.6,6.5-11.8,9.6l-3.4,2.4c-3,2.2-6.7,4.7-9.9,7.4-6,5.1-7.6,9.8-5.7,16.1S296.2,219.6,299.2,225.3Zm-1.6-32.1c3.2-2.7,6.9-5.3,9.9-7.4l3.4-2.4c4.2-3.1,8.1-6.5,11.9-9.6,7.2-6.3,14.1-12.2,21.8-15a34.7,34.7,0,0,1,12.2-2.1c8.1,0,16.4,2.3,24.4,4.6,4.6,1.3,9.3,2.6,13.9,3.5a108.8,108.8,0,0,0,18.1,1.6,90.1,90.1,0,0,0,14.7-1.1c16.5-2.4,33.2-8.6,52.8-19.6,4.2-2.3,8.2-5,12.2-7.6s8.2-5.4,12.4-7.8a42,42,0,0,1,5.5-2.2,38.3,38.3,0,0,0,4.3-1.7l3.8-1.9a27.9,27.9,0,0,1,8.7-3.7,46.3,46.3,0,0,1,8.5-.8,31.6,31.6,0,0,1,10.5,1.6c10.6,3.7,20.1,10,28,15.7,1.9,1.4,3.9,2.9,5.7,4.4s4.7,3.6,7.2,5.3a44.8,44.8,0,0,0,6.8,3.7,59.6,59.6,0,0,1,6.1,3.2c10.9,7,20.3,17.2,28.1,30.2s11.9,22.1,3,35.1c-2.8,4.1-6.1,5.3-10.8,6.6s-10.4,1.7-15.6,2-12.3.5-18,2.8a32.4,32.4,0,0,0-8.1,4.7,13.3,13.3,0,0,0-1.9,1.4A53.7,53.7,0,0,1,569,242c-4.3,2.1-8.6,4.4-12.8,6.6s-5.4,3-8.2,4.4c-6.3,3.3-12.8,6.6-18.9,9.9q-5.4,3-10.8,5.7h0l-.5.5c-17.3,9.5-23.9,24.7-28.5,39.7-.4,1.1-.7,2.2-1,3.3-3.2,10.5-6.2,20.3-16.8,25.8-5.3,2.7-14.7,5.3-28.1,7.7-18.8,3.5-36.5,4.5-56.9,5.7h-1.4c-5.3-3.4-8.5-8.3-11.9-13.5a78.5,78.5,0,0,0-5.2-7.6,179.2,179.2,0,0,0-14.3-15.2,211.9,211.9,0,0,1-15.9-17.1c-12.3-15.5-20.8-34.7-29-53.3-1.3-3.1-2.7-6.2-4.1-9.2s-3.4-7-5.2-10.4c-3-5.7-5.8-11.1-7.4-16.3S291.7,198.2,297.6,193.2Z" style="fill:none;stroke:#fc6;stroke-miterlimit:10;stroke-width:0.1px"/><path d="M330.4,249.2l.7,2.7c7.2,26.5,17.8,42.3,39.2,58l.5.4c11.5,8.4,21.5,15.8,32.5,19.3a65.4,65.4,0,0,0,19.6,2.7h0c9.6,0,19.5-1.7,26.2-4.5,17.9-7.4,24.5-23.1,32-41.3,10-23.8,27.3-54.6,53.7-66.1,4.7-2.1,9.4-2.5,14.2-3a57,57,0,0,0,5.8-.6c7.5-1.1,15.8-2.6,25.6-4.7l4.1-.9c7.1-1.6,16.5-6.1,19.6-13.4,2.3-5.5,1.9-10.5-.9-14.8-8.6-13-38.2-17.4-50.4-17.4h-.2a145.3,145.3,0,0,0-16.2,1.1c-3.1.3-6.2.7-9.2.8-5.1.4-9.3,1.9-14.4,5.1a32.5,32.5,0,0,1-17.9,4.9c-5.1,0-10.4-.9-15.9-1.7l-5.1-.9a175.3,175.3,0,0,0-24.4-1.5c-5.8,0-11.8.2-17.5.4s-11.4.3-17.2.3a159.9,159.9,0,0,1-26.7-1.9l-7.3-1.7c-5.6-1.3-11.9-2.8-18.3-2.8a32.8,32.8,0,0,0-9.6,1.3c-14.6,4.4-26.9,22.4-29.2,36.4a51.1,51.1,0,0,0,.4,16.9C325.8,231.9,328,240.3,330.4,249.2Zm-6.3-43.7c2.2-14,14.4-31.8,28.9-36.2a36.3,36.3,0,0,1,9.5-1.3c6.4,0,12.7,1.5,18.2,2.9l7.4,1.6a148.3,148.3,0,0,0,26.7,2c5.8,0,11.6-.2,17.2-.4s11.7-.3,17.5-.3a173.7,173.7,0,0,1,24.3,1.5l5.2.8a98.9,98.9,0,0,0,15.9,1.7,33.4,33.4,0,0,0,18.1-4.9c5.1-3.2,9.2-4.6,14.2-5l9.2-.8a145.3,145.3,0,0,1,16.2-1.1h.2c12.1,0,41.5,4.4,50.1,17.1,2.8,4.3,3.1,9.2.9,14.5-3.1,7.3-12.4,11.7-19.4,13.3l-4.1.9c-9.7,2.1-18.1,3.6-25.5,4.6l-5.8.7c-4.9.4-9.6.9-14.4,3-26.4,11.5-43.8,42.4-53.8,66.3-7.5,18.1-14,33.7-31.8,41.1-6.7,2.7-16.5,4.4-26.1,4.4h0a64.7,64.7,0,0,1-19.5-2.7c-11-3.4-20.9-10.7-32.4-19.2l-.5-.4c-21.3-15.6-31.9-31.3-39-57.8l-.7-2.6c-2.5-8.9-4.7-17.4-6.4-26.9A47.8,47.8,0,0,1,324.1,205.5Z" style="fill:none;stroke:#fc6;stroke-miterlimit:10;stroke-width:0.1px"/><path d="M728.6,242.8h-.1l-2.3,3.8c-2.5,4-4,6.4-4.7,13a104.2,104.2,0,0,0-.2,15.8,90.4,90.4,0,0,1-.5,18.7c-3.7,22.1-21.3,44.9-41,52.9a43.1,43.1,0,0,1-6.3,2.2,28.5,28.5,0,0,1-4,.4h0c-11.6,0-14.2-11.4-16.8-22.4-.6-2.5-1.2-5-1.9-7.4-2.6-9-6.2-15-11.5-19.4s-12.5-7.2-23.3-9.2a68.1,68.1,0,0,0-12.3-1.2c-7.5,0-14.7,1.4-24,4.7l-1.2.4c-5.1,1.7-9.5,3.3-12.6,8.1-6,9.3-10.8,24.4-8.6,35.1s9.9,12.6,17.9,14.7l4.7,1.4a31.9,31.9,0,0,1,6.1,2.6,313.8,313.8,0,0,0,42.2,19.4c14.1,5.5,21,17.5,27.6,29s13.1,22.9,26.3,28.4a16.8,16.8,0,0,0,6.8,1.3h0a30.4,30.4,0,0,0,9.7-1.8c9.4-3.3,17.9-13.5,24.2-21.9,9.9-13.3,22.3-29.9,36.8-40.5l1.2-.8v-.4l-1.4.9c-14.6,10.7-26.9,27.2-36.9,40.5-6.2,8.5-14.7,18.6-24,21.9a32.4,32.4,0,0,1-9.6,1.7h0a17.6,17.6,0,0,1-6.6-1.2c-13.2-5.5-19.8-17.1-26.2-28.3s-13.6-23.6-27.8-29.1c-16.7-6.5-30-12.6-42.1-19.4a30.4,30.4,0,0,0-6.2-2.6l-4.7-1.4c-7.9-2.2-15.4-4.2-17.6-14.5s2.5-25.5,8.5-34.8c3-4.7,7.4-6.3,12.5-8l1.2-.4c9.2-3.3,16.3-4.7,23.8-4.7a66.3,66.3,0,0,1,12.2,1.2c20.8,3.8,29.5,11,34.6,28.4.7,2.4,1.3,4.9,1.8,7.3,2.7,11.2,5.4,22.7,17.2,22.7h0a19.6,19.6,0,0,0,4.1-.4,34.1,34.1,0,0,0,6.4-2.1c9.7-4,19.3-11.7,26.8-21.6a72.9,72.9,0,0,0,14.3-31.7c1-6.2.8-12.6.6-18.7s-.5-10.6.2-15.8,2.2-8.9,4.6-12.8l2.3-3.8a37.8,37.8,0,0,1,24.5-8.6,48.4,48.4,0,0,1,7.5.6v-.3a48.4,48.4,0,0,0-7.5-.6A38.1,38.1,0,0,0,728.6,242.8Z" style="fill:none;stroke:#fc6;stroke-miterlimit:10;stroke-width:0.1px"/><path d="M741.2,268.8c-1.8,5.3-2.2,10.8-2.6,17.1-.1,2.2-.2,4.5-.5,7-.8,9.6-2.7,19.5-4.5,29s-3.4,18.4-3.8,25.5h.1a6.5,6.5,0,0,0,3.7,1.6h.8c3.6-2,7.3-3.9,11-5.7a121.4,121.4,0,0,0,15.4-8.4v-.4a123.3,123.3,0,0,1-15.5,8.5c-3.7,1.8-7.5,3.6-11,5.7h-.6a6.5,6.5,0,0,1-3.5-1.5c.3-7,2-15.9,3.8-25.3s3.6-19.5,4.5-29.1c.2-2.5.4-4.8.5-6.9.4-6.4.7-11.8,2.5-17.1,2.5-7.2,8.5-12,15.4-12a17.4,17.4,0,0,1,3.9.5v-.3a17.4,17.4,0,0,0-3.9-.5C749.9,256.6,743.7,261.4,741.2,268.8Z" style="fill:none;stroke:#fc6;stroke-miterlimit:10;stroke-width:0.1px"/><path d="M604.8,316.4c-6.6,0-13.3,3.3-13.4,10.6h0c2.1,7.2,12,15.9,20.7,15.9h0a10.2,10.2,0,0,0,5.7-1.6,9.9,9.9,0,0,0,4.5-6.9,15.6,15.6,0,0,0-2.8-11.5C616.5,318.9,610.9,316.4,604.8,316.4Zm17.2,18a9.5,9.5,0,0,1-4.4,6.6,9.4,9.4,0,0,1-5.5,1.6c-8.6,0-18.3-8.6-20.3-15.6,0-7.1,6.6-10.2,13-10.2s11.5,2.4,14.4,6.4A15.1,15.1,0,0,1,622,334.4Z" style="fill:none;stroke:#fc6;stroke-miterlimit:10;stroke-width:0.1px"/><path d="M720.7,360.2h0a5.2,5.2,0,0,0-2.1-.4c-3,0-6.2,1.9-9.3,3.7a39,39,0,0,1-3.5,1.9,12.4,12.4,0,0,1-2,1c-10.2,5-24.1,11.9-23.1,28.1,1.4,5.1,5.6,10.2,11.9,10.2h1.7c11.4-4.8,18.2-18,22.9-29l.4-.8c2.1-5,4.5-10.5,3.2-14.5Zm-3.4,14.4-.4.8c-4.6,11-11.4,24.2-22.7,28.8h-1.6c-6.1,0-10.2-4.9-11.6-9.8-1-16,12.9-22.8,22.9-27.8l2.1-1,3.5-1.9c3-1.8,6.2-3.6,9.1-3.6a6.3,6.3,0,0,1,1.9.3C721.7,364.3,719.3,369.8,717.3,374.6Z" style="fill:none;stroke:#fc6;stroke-miterlimit:10;stroke-width:0.1px"/><path d="M595.6,485c-3.3-3.1-6.7-4.7-10-4.7-7.7,0-12.8,8.8-13.9,17.5a67.7,67.7,0,0,0,.5,19.7c1.1,5.7,3.4,8.6,8.2,10.3a25.8,25.8,0,0,0,4,1,36.6,36.6,0,0,0,6.9.8h0c5.5,0,9.6-1.9,12.1-5.7s2.3-14.5,1.6-19.8C604,496.6,600.6,489.6,595.6,485Zm7.4,38.7c-2.3,3.7-6.3,5.5-11.7,5.5a34.1,34.1,0,0,1-6.8-.7,24.9,24.9,0,0,1-4-1.1c-4.7-1.6-6.9-4.3-7.9-10a60.3,60.3,0,0,1-.5-19.5c1-8.6,6-17.2,13.5-17.2,3.2,0,6.5,1.5,9.8,4.6,4.8,4.5,8.2,11.4,9.3,18.9C605.3,509.1,605.8,519.4,603,523.7Z" style="fill:none;stroke:#fc6;stroke-miterlimit:10;stroke-width:0.1px"/><path d="M37.3,602.5c3.3-.6,6.2-1.3,8.9-1.9s6.6-1.6,10.7-2.3,7.8-.8,11.7-1.1c8.6-.6,17.6-1.2,25.2-5.2,9.7-5,10.7-17.8,7.4-28.3-5.6-17.7-12.8-30-22-37.5a133,133,0,0,1-10.3-9.6c-6.6-6.6-13.4-13.4-22.3-16.9-6.8-2.8-14.6-4.8-22.1-6.8-4.6-1.2-9.3-2.4-13.7-3.8-2.1-.6-4.4-1.4-6.7-2.3l-4-1.5v.4l3.8,1.4,6.8,2.4c4.5,1.3,9.2,2.6,13.7,3.7,7.5,2,15.3,4,22.1,6.8,8.8,3.6,15.6,10.3,22.2,16.8,3.3,3.3,6.7,6.7,10.3,9.7,9.2,7.4,16.3,19.6,21.8,37.3,3.3,10.3,2.3,23-7.1,27.9-7.6,4-16.5,4.6-25.2,5.2A111.1,111.1,0,0,0,56.9,598a107.5,107.5,0,0,0-10.8,2.2c-2.7.7-5.5,1.4-8.9,2-6.2,1.1-12.5,2-18.6,2.7S5.9,606.7.1,607.7v.4c5.8-1.1,12.1-1.9,18.5-2.8S31.1,603.7,37.3,602.5Z" style="fill:none;stroke:#fc6;stroke-miterlimit:10;stroke-width:0.1px"/><path d="M29.3,581.2c8-2.3,16.3-4.6,24.2-8s15.6-7.4,19.1-15.3c4.6-10.4.1-21.6-11.8-29.9l-6-4.3c-8-5.9-15.6-11.4-26.5-13.5A189.2,189.2,0,0,0,.1,507.8v.3c10.7.3,21.1,1.1,28.2,2.4,10.8,2.1,18.3,7.6,26.3,13.5l6,4.3c11.8,8.2,16.2,19.2,11.7,29.4-3.4,7.8-11.3,11.8-19,15.1s-16.1,5.8-24.1,8.1c-4.2,1.1-8.5,2.4-12.7,3.7A121.8,121.8,0,0,1,.1,588.5v.4A164.2,164.2,0,0,0,16.6,585C20.8,583.6,25.1,582.4,29.3,581.2Z" style="fill:none;stroke:#fc6;stroke-miterlimit:10;stroke-width:0.1px"/><path d="M26.7,623.2a183.6,183.6,0,0,0,24.6-.3,160.3,160.3,0,0,0,21-3.8l5-1.1,3.7-.8c12.8-2.7,25.9-5.5,36.6-12.8,12.5-8.4,14.1-26.2,8.4-38.5s-13.9-20.1-22.3-28.7-14.2-14.4-19.4-23.1c-2.3-3.2-4.3-6.3-6.2-9.2-6.1-9.5-10.9-17-23.8-20-24.7-5.8-46.1-10.8-50-35.4-1.4-8.7.5-15.6,2.3-22.2s2.9-10.2,2.6-15.8H9.1l-1.9-1.8a15.4,15.4,0,0,0-2.6-2.5H4.5a24.6,24.6,0,0,0-4.4.6v.4a24.6,24.6,0,0,1,4.4-.6A27.3,27.3,0,0,1,7,409.8c.6.6,1.2,1.3,1.8,1.8.3,5.6-1,10.5-2.5,15.6-1.8,6.7-3.8,13.5-2.4,22.3,4,24.9,25.5,29.9,50.4,35.7,12.7,3,17.5,10.4,23.5,19.9,1.9,2.9,3.9,6,6.3,9.1,5.1,8.7,12.4,16.1,19.4,23.3s17,17.4,22.2,28.5,4.1,29.7-8.3,38.2c-10.7,7.2-23.7,10-36.4,12.7l-3.7.8-5,1.1a186.7,186.7,0,0,1-21,3.8c-8.2.8-16.5.5-24.5.2s-18.3-.6-26.7.7v.3C8.5,622.6,17.4,622.9,26.7,623.2Z" style="fill:none;stroke:#fc6;stroke-miterlimit:10;stroke-width:0.1px"/><path d="M273,543.3a28.8,28.8,0,0,1,3.1,1.7,49,49,0,0,1,9.9,10.1A58.7,58.7,0,0,1,297.3,579c3,13,11.2,18.2,24.3,22.7a74.1,74.1,0,0,0,24,4,78,78,0,0,0,12.1-1c14.2-2.6,23.2-11.1,24.9-23.6.4-2.6.8-5.3,1.3-7.9,1.9-10.5,3.9-21.4-2.2-31.2-5-7.9-14.5-9-24-9H347.1a58.7,58.7,0,0,1-8.2-.5c-7.5-1.2-15.1-3.1-22.3-4.9-12-2.9-23.3-5.7-34.6-5.7-2.4,0-4.8.2-7,.4s-5.5,2.8-7,6.7-1.9,8.3.4,11.1A13.6,13.6,0,0,0,273,543.3Zm-4.7-14c1.5-3.7,4-6.1,6.7-6.4a52.7,52.7,0,0,1,7-.4c11.3,0,22.5,2.7,34.5,5.7,7.3,1.8,14.8,3.6,22.4,4.8a46.5,46.5,0,0,0,8.2.5h10.6c9.4,0,18.8,1,23.7,8.8,6,9.6,4.1,20.5,2.2,30.9-.5,2.7-1,5.4-1.4,8-1.6,12.2-10.6,20.7-24.5,23.2a68.1,68.1,0,0,1-12.1,1,73.9,73.9,0,0,1-23.9-3.9c-13-4.5-21.1-9.6-24.1-22.5a59.1,59.1,0,0,0-11.3-24,52,52,0,0,0-9.9-10.2l-3.2-1.7a13.5,13.5,0,0,1-4.5-2.9C266.8,537.8,266.7,533.4,268.3,529.3Z" style="fill:none;stroke:#fc6;stroke-miterlimit:10;stroke-width:0.1px"/><path d="M338.1,590.9a44.1,44.1,0,0,0,10.7-1.4l1.7-.7c3.5-1.6,5.5-4.4,5.5-7.7a10.7,10.7,0,0,0-3.1-7.5,10,10,0,0,0-10.2-2.7c-3.9,1.2-12.2,6-14.7,11.1a6.5,6.5,0,0,0-.3,5.1C329,590.2,334.1,590.9,338.1,590.9Zm-9.8-8.7c2.5-5.1,10.6-9.8,14.5-10.9a10.4,10.4,0,0,1,2.9-.5,9.6,9.6,0,0,1,7,3.1,10.6,10.6,0,0,1,3,7.2c-.1,3.2-2,5.8-5.3,7.3l-1.8.7a37.4,37.4,0,0,1-10.5,1.4c-5.6,0-9.1-1.2-10.1-3.5A5.8,5.8,0,0,1,328.3,582.2Z" style="fill:none;stroke:#fc6;stroke-miterlimit:10;stroke-width:0.1px"/><path d="M447.3,724.3a10.4,10.4,0,0,1,0-2.5,27.2,27.2,0,0,0-.1-2.8c-.7-5.7-3-12.8-5.5-20.2s-5.1-15.4-6.4-23c-.5-3.1-.8-6.5-1.1-9.8-1.1-10.8-2.1-21.9-9.6-26.8-3.4-2.3-8.4-3.3-15.7-3.3-4,0-8.4.3-12.7.6l-5,.3c-14.9.9-45.8,4.8-56.5,12.9-14.8,11.2-16.5,30.3-16.3,47.6,1.7,21.8,16.6,34,33,46.3h.6c-16.5-12.4-31.5-24.5-33.3-46.3-.2-17.2,1.6-36.2,16.2-47.3,10.7-8.1,41.5-11.9,56.3-12.8l5-.4c4.3-.3,8.7-.6,12.7-.6,7.2,0,12.1,1,15.5,3.3,7.3,4.8,8.4,15.8,9.4,26.5.3,3.3.7,6.7,1.2,9.9,1.2,7.5,3.9,15.4,6.4,23s4.8,14.4,5.4,20.1a27.2,27.2,0,0,1,.1,2.8,22.6,22.6,0,0,0,0,2.6c.8,5.6,0,12.4-1.9,19.2h.3C447.2,736.8,448,730,447.3,724.3Z" style="fill:none;stroke:#fc6;stroke-miterlimit:10;stroke-width:0.1px"/><path d="M50.3,726.9c-.2-5,0-10.1.1-15,.3-7.4.5-14.5-.8-20.2-3.1-14-20.8-24-36.2-28.7A33.9,33.9,0,0,0,.1,661.5v.3a37.8,37.8,0,0,1,13.2,1.5c15.4,4.7,32.9,14.6,36,28.4,1.3,5.7,1,12.8.8,20.2-.2,4.9-.3,10-.1,15a113.4,113.4,0,0,1-.5,16.7h.3A101.2,101.2,0,0,0,50.3,726.9Z" style="fill:none;stroke:#fc6;stroke-miterlimit:10;stroke-width:0.1px"/><path d="M428.9,721.1a121.1,121.1,0,0,0-3.2-11.9c-1.8-6.3-4-13.5-5.1-20.7-.3-2.1-.6-4-.8-5.9-1.8-12.4-3.1-22.2-11.4-28.7-5.6-4.4-16.2-7-28.2-7-14.6,0-28.2,3.7-36.4,9.9-13.4,10.1-14,28-12.1,41.3s13.1,21.3,26,30.6a199,199,0,0,1,18.5,14.4l.5.5h.5l-.8-.8a204.6,204.6,0,0,0-18.5-14.4C345.1,719.2,335,712,332.1,698s-1.4-30.9,11.9-41c8.1-6.1,21.7-9.7,36.2-9.7,12,0,22.4,2.5,28,6.9,8.2,6.4,9.5,16.1,11.2,28.4.3,1.9.5,3.9.8,5.9a150.5,150.5,0,0,0,5.2,20.8c1.3,4.4,2.5,8.5,3.2,11.8a49.1,49.1,0,0,1-1.4,22.5h.3A46.7,46.7,0,0,0,428.9,721.1Z" style="fill:none;stroke:#fc6;stroke-miterlimit:10;stroke-width:0.1px"/><path d="M172.6,700.1a63.1,63.1,0,0,1-1.7-21.7,27.5,27.5,0,0,1,.9-4.5c1.4-5.4,3.1-12.2-3.7-17.2H168c-12.8-1.5-20.5,9-27.4,18.2-1.8,2.4-3.4,4.7-5.2,6.8-6.2,6.5-14.6,11.1-23.6,16.1-13.9,7.8-28.3,15.7-35.1,31.3-1.9,4.4-3.6,9.5-5.2,14.5h.4c1.6-5,3.2-10,5.1-14.4,6.8-15.4,21.1-23.4,35-31.1,8.9-4.9,17.4-9.6,23.7-16.2,1.7-2.1,3.4-4.4,5.2-6.8,6.8-9.1,14.5-19.5,27-18.1,6.6,4.8,5,11.2,3.6,16.9a45,45,0,0,0-1,4.4,66.5,66.5,0,0,0,1.8,21.9c2.2,8,5.6,16,9,24.5,2.6,6.2,5.1,12.5,7.4,18.9h.3c-2.2-6.5-4.8-12.8-7.3-19A248.5,248.5,0,0,1,172.6,700.1Z" style="fill:none;stroke:#fc6;stroke-miterlimit:10;stroke-width:0.1px"/><path d="M374.5,657.6c-7.9,0-15.7,2.3-20.8,6.2-6.7,5-10.7,11.1-10,25.8,4.6,18.8,24.9,28.9,41.7,28.9h0a44.8,44.8,0,0,0,6.4-.5h.1a38.1,38.1,0,0,0,6.6-7.1h0c6.2-19,5.9-34.9-.7-43.4C393,661.1,384.5,657.6,374.5,657.6Zm23.7,53a37,37,0,0,1-6.5,7,43.4,43.4,0,0,1-6.3.5h0c-16.7,0-36.9-10-41.3-28.5-.8-14.6,3.2-20.6,9.7-25.5s12.9-6.2,20.7-6.2c9.9,0,18.3,3.5,23,9.6C404.1,675.9,404.3,691.7,398.2,710.6Z" style="fill:none;stroke:#fc6;stroke-miterlimit:10;stroke-width:0.1px"/><path d="M287.8,710.1c-2.6-12.8-5.4-26-13.7-36.5-4.3-5.4-9.6-7.5-16.3-6.5-13.9,2-30.3,14.5-39.1,21.3-9.9,10.3-13.6,22.7-11.4,38.1a143.8,143.8,0,0,0,3.9,17.1h.4a146.2,146.2,0,0,1-4-17.2c-2.2-15.2,1.5-27.6,11.3-37.8,8.8-6.7,25.2-19.2,38.9-21.2l3.1-.2q7.7,0,12.9,6.6c8.3,10.5,11,23.6,13.7,36.4s4.7,23.3,11.3,32.9l.4.5h.4l-.5-.7C292.6,733.4,290.2,721.6,287.8,710.1Z" style="fill:none;stroke:#fc6;stroke-miterlimit:10;stroke-width:0.1px"/><path d="M376.2,681.7h0a6.9,6.9,0,0,0-5.6-3.6,4.9,4.9,0,0,0-2.1.4h-.1a6,6,0,0,0-2.4,4,3.8,3.8,0,0,0,.9,2.9,8.6,8.6,0,0,1,1.4,1.3h.1a5.2,5.2,0,0,0,2.1.4h0a6.7,6.7,0,0,0,5.7-3.5h0a12.1,12.1,0,0,0,0-1.9Zm-.4,1.8a6.1,6.1,0,0,1-5.3,3.4h0a5.1,5.1,0,0,1-2-.4,7.1,7.1,0,0,0-1.3-1.2,3.5,3.5,0,0,1-.8-2.6,6,6,0,0,1,2.2-3.9,6.9,6.9,0,0,1,2-.3,6.4,6.4,0,0,1,5.3,3.3A10.3,10.3,0,0,1,375.8,683.5Z" style="fill:none;stroke:#fc6;stroke-miterlimit:10;stroke-width:0.1px"/><path d="M17.6,697.5c-4.4-5.4-8.6-7.6-17.5-9.3v.4c8.8,1.6,12.8,3.8,17.2,9.1,7.7,9.5,12.4,27.1,13.5,39.4.2,2.3.3,4.5.3,6.5h.4c0-2-.1-4.2-.3-6.5C30.1,724.7,25.3,707,17.6,697.5Z" style="fill:none;stroke:#fc6;stroke-miterlimit:10;stroke-width:0.1px"/><path d="M244.4,702.1h-1.5a17.8,17.8,0,0,0-12.3,6.4c-4.6,5.5-6.7,13.9-5.8,23.6a90,90,0,0,0,1.8,11.4h.3a112.4,112.4,0,0,1-1.8-11.4c-.8-9.6,1.2-17.9,5.7-23.3a17.5,17.5,0,0,1,12.1-6.4h1.5c14.4,0,19.7,17.1,24.3,32.1,1,3.2,2,6.3,3,9.1h.4c-1.1-2.8-2-6-3-9.2C264.4,719.3,259.1,702.1,244.4,702.1Z" style="fill:none;stroke:#fc6;stroke-miterlimit:10;stroke-width:0.1px"/><path d="M147.2,716.3a58.1,58.1,0,0,0-7.2-.5,53.7,53.7,0,0,0-27.5,7.6,52.2,52.2,0,0,0-19.1,20.2h.4A51.8,51.8,0,0,1,140,716.2a57.9,57.9,0,0,1,7.2.4c10.4,1.5,20.7,10.1,28.1,23.7.6,1.1,1.2,2.2,1.7,3.3h.3a35.9,35.9,0,0,0-1.7-3.4C168.1,726.4,157.8,717.7,147.2,716.3Z" style="fill:none;stroke:#fc6;stroke-miterlimit:10;stroke-width:0.1px"/><path d="M.5,731.4H.1v.3H.5c2.8,0,5,1.8,6.4,5.1a17.9,17.9,0,0,1,1.3,6.8h.4a17.5,17.5,0,0,0-1.4-7C5.8,733.3,3.4,731.4.5,731.4Z" style="fill:none;stroke:#fc6;stroke-miterlimit:10;stroke-width:0.1px"/><path d="M119.8,743.6h.6a33.4,33.4,0,0,1,19.2-6.1,29.8,29.8,0,0,1,18.2,6.1h.6a29.5,29.5,0,0,0-18.8-6.4A34.1,34.1,0,0,0,119.8,743.6Z" style="fill:none;stroke:#fc6;stroke-miterlimit:10;stroke-width:0.1px"/><path d="M630.8,709.3a240.1,240.1,0,0,1-11.9-23.8c-1.9-4.5-3.7-9.4-5.5-14.6-7.7-22.3-16.5-47.5-43.7-47.5h-1.1c-9.9.2-19.2,3.7-25.3,6.6-1.4.6-3,1.3-4.5,2.1-4.6,2.1-9.3,4.2-13.5,6.6-12.4,6.8-26.6,10.1-40.3,13.4h-.1l-3.8.8c-9.1,2-20.5,4.4-24.2,15.1-2.8,8.2-.2,18.7,2.3,28.9.9,3.7,1.7,7.2,2.3,10.5a92.5,92.5,0,0,1,.3,32.3c-.2,1.2-.5,2.5-.8,3.9h.4c.3-1.3.5-2.6.8-3.9a95.1,95.1,0,0,0-.4-32.3c-.6-3.4-1.4-6.9-2.3-10.6-2.5-10.1-5-20.6-2.2-28.7,3.5-10.5,14.8-12.9,23.9-14.8l3.7-.9h.2c13.8-3.2,28-6.6,40.4-13.4,4.2-2.3,8.9-4.5,13.4-6.6l4.6-2.1c6-2.9,15.3-6.3,25.1-6.6h1.1c26.9,0,35.7,25.1,43.4,47.3,1.8,5.2,3.5,10.2,5.4,14.7,3.5,8.2,7.8,16.1,12,23.8s6.9,12.7,9.8,19a64.6,64.6,0,0,0,9.1,15.1h.5c-3.3-3.7-6.3-8.8-9.3-15.2S634.4,715.9,630.8,709.3Z" style="fill:none;stroke:#fc6;stroke-miterlimit:10;stroke-width:0.1px"/><path d="M751,642.6c-22.4,8.5-37.3,24.5-43.2,46.3-1.7,6-2.8,13.8-4,21.3-1.4,9.4-2.8,19-5.2,25.7a24.2,24.2,0,0,1-4.3,7.7h.5A26.9,26.9,0,0,0,699,736c2.4-6.7,3.8-16.4,5.2-25.7a212,212,0,0,1,3.9-21.4c5.9-21.6,20.7-37.5,43.1-45.9a49.2,49.2,0,0,1,7.7-2.1l1.9-.4v-.3l-2,.3A71.1,71.1,0,0,0,751,642.6Z" style="fill:none;stroke:#fc6;stroke-miterlimit:10;stroke-width:0.1px"/><path d="M729.3,481.7c-7.2,1.6-14.1,5.1-20.8,8.5s-13.6,6.9-20.7,8.4c-18.4,4-25.3-12.2-31.3-26.4l-2.5-5.9A119.6,119.6,0,0,0,642.4,446c-8.6-12.1-18.5-21.8-29.5-28.7s-18.7-9.9-26.9-11c-13.3-1.7-22.7,2.4-33.6,7.1l-7.3,3.1c-7.1,2.9-15.3,6.2-20.8,13.4-4.2,5.3-7.4,11.9-10.4,18.2l-.7,1.4c-5.6,11.6-9.7,23.1-14.1,35.2-.9,2.8-1.9,5.6-2.9,8.3-2.6,7.5-5.3,15.3-8.6,22.7-2.4,5.6-6.2,10.5-9.8,15.2-2,2.6-4.1,5.4-5.9,8.2-4.7,7.1-12,13.3-19.1,19.3-2.5,2.2-5,4.3-7.2,6.4l-4.6,3.9c-7.3,6.3-15.6,13.5-17.8,22.6-.3,1.2-.6,2.4-.8,3.6-2.4,10.2-4.4,19-14.6,25.4s-21.3,7.9-31.6,9.7l-14.7,2.1c-8.8,1.1-17.1,2.2-24.7,4.2-17.3,4.6-27.9,16.6-31.4,35.7s.1,41.4,3.9,50.7,9.3,15,16.3,20.9h.6c-7.1-6-13-12.6-16.5-21s-7.3-31.9-3.9-50.5,13.9-30.9,31.1-35.4c7.5-2.1,15.9-3.2,24.7-4.3,4.8-.6,9.7-1.2,14.6-2.1,10.3-1.7,22.1-3.7,31.8-9.7s12.3-15.4,14.7-25.6c.3-1.2.6-2.4.8-3.6,2.2-9,10.5-16.1,17.8-22.4l4.5-4c2.3-2.1,4.7-4.1,7.3-6.3,7.1-6,14.4-12.2,19.1-19.4,1.8-2.8,3.9-5.6,5.9-8.2,3.6-4.7,7.4-9.7,9.9-15.3,3.3-7.3,6-15.1,8.6-22.7.9-2.7,1.9-5.5,2.9-8.3,4.3-12.1,8.4-23.5,14-35.2l.7-1.4c3-6.3,6.2-12.8,10.4-18.2,5.5-7,13.6-10.3,20.7-13.2l7.3-3.1c10.8-4.7,20.2-8.8,33.4-7.1,8.1,1.1,16.6,4.6,26.7,11s20.8,16.5,29.4,28.6a119.6,119.6,0,0,1,11.6,20.3l2.5,5.8c2.9,6.9,6.2,14.7,11,20.1s12.3,8.4,20.7,6.6,14-5.1,20.8-8.5,13.5-6.8,20.6-8.4c11.7-2.6,22.5.4,31.5,3.6v-.4C751.8,482.1,741,479.2,729.3,481.7Z" style="fill:none;stroke:#fc6;stroke-miterlimit:10;stroke-width:0.1px"/><path d="M710.7,615c-8.4,8.1-16.3,15.8-26.6,18.8-14.4,4.3-25.3-6.3-35.9-16.6-.6-.7-1.3-1.3-1.9-1.9-5.3-5.2-11.8-9.1-17.9-12.9a116.5,116.5,0,0,1-13.2-8.8c-3.1-2.4-6.4-4.7-9.6-6.9s-4.4-3-6.5-4.6-6-6.6-8.4-10.6a66.5,66.5,0,0,0-4.1-6.2c-4.1-5.2-9.8-9.1-15.4-13-10.1-7-19.8-13.6-20.4-27.4-.4-8.2,1.4-18.4,5-28s10-18.8,17.9-26.9c5.4-5.5,10.9-8,16.3-7.6,9.6.8,17.8,11,23.9,19.8,3.6,5.1,5,10.1,6.5,15.4a96.7,96.7,0,0,0,3.2,9.5c1.3,3.3,3,6.6,4.5,9.7a87.2,87.2,0,0,1,6.7,15.7c2.7,9.2,3.3,22.5-.9,30.2s-2.1,20.1,2.1,26.7,13.6,9.8,21.4,12.9l4.9,2,2,.9a36.9,36.9,0,0,0,7.2,2.6c12.1,2.5,20.4-3.3,25.5-17.7s1.6-28.9-10.4-38.8a90.5,90.5,0,0,0-11.8-7.5l-5.6-3.1-1.4-.9c-5.2-3.1-11.8-7-15.4-11.5a100.5,100.5,0,0,1-13.2-21.9c-1.7-4-3-8-4.4-12.3s-2.1-6.3-3.3-9.5a83.7,83.7,0,0,0-10-18c-5.7-7.8-16-18.2-26.2-22-16.1-6-37.8,10-48.5,22.1-6,6.8-9.9,15.3-12.9,22.7l-2.4,6c-4.4,11.1-8.6,21.6-15.6,31.2a96.5,96.5,0,0,0-5.9,9.7c-1.2,2.2-2.6,4.7-4,7-3.8,5.8-9.5,9.3-15.1,12.2l-7.9,3.8c-7.4,3.5-15.2,7.1-21.5,13.1-4,3.8-5.6,7.8-4.7,11.9,1.4,6.9,9,12,15.6,14.5,13.9,5.2,29.9,3.3,44,1.6l1.8-.2,3.4-.3c6.2-.7,12.1-1.3,18-4.7l2.8-1.5c9-5.1,16.7-9.6,26.9-11.8,6.5-1.5,16-1.3,21.9,2.3,2.9,1.8,4.1,4.6,5.4,7.5a29.8,29.8,0,0,0,2.9,5.2c4.9,6.4,11.5,11.5,17.9,16.4s12.8,9.7,17.7,16a93.6,93.6,0,0,1,7.8,12.7c2.4,4.5,4.8,9.1,7.7,12.6,5.8,7.2,13.7,9.7,22.3,7s15.8-8.7,23.9-14.9l3.6-2.7c4.2-3.2,8.3-6.5,12.2-9.7,10.9-8.9,21.2-17.2,32.7-21.9a83.2,83.2,0,0,1,15.5-4.3v-.4a82,82,0,0,0-15.6,4.4c-11.6,4.7-21.9,13.1-32.8,21.9-4,3.2-8,6.5-12.2,9.7l-3.6,2.7c-8,6.2-16.3,12.5-23.8,14.8s-16.3.2-22-6.8c-2.8-3.5-5.1-7.9-7.6-12.5a96,96,0,0,0-7.8-12.9c-5-6.2-11.5-11.2-17.8-16s-12.9-9.9-17.8-16.3a32.9,32.9,0,0,1-2.9-5.2c-1.3-2.9-2.6-5.7-5.5-7.6-5.9-3.7-15.7-3.8-22.1-2.4-10.3,2.3-18.1,6.7-27.1,11.9l-2.8,1.6c-5.8,3.3-11.6,3.9-17.9,4.5l-3.3.4-1.8.2c-14.1,1.6-30.1,3.5-43.9-1.6-8.2-3.1-14.3-8.7-15.4-14.3-.8-4,.8-7.9,4.7-11.6,6.2-5.8,13.9-9.5,21.4-13,2.6-1.2,5.3-2.4,7.9-3.8,5.6-2.9,11.4-6.4,15.2-12.4,1.4-2.3,2.8-4.6,4.1-7a106.5,106.5,0,0,1,5.8-9.6c7-9.7,11.2-20.2,15.6-31.3l2.4-6c3.1-7.4,6.9-15.8,12.9-22.6,10.6-12,32.1-27.9,48.1-21.9,10.1,3.7,20.3,14.1,26,21.8a82.7,82.7,0,0,1,10,17.9c1.2,3.2,2.2,6.4,3.2,9.5s2.8,8.3,4.5,12.3a97.3,97.3,0,0,0,13.2,22c3.7,4.6,10.2,8.5,15.5,11.7l1.5.8,5.5,3.2c4,2.2,8.2,4.4,11.8,7.4,11.8,9.8,15.5,23.4,10.2,38.4s-13.2,19.9-25.1,17.5a35.3,35.3,0,0,1-7-2.6l-2.1-.9-4.9-2c-7.7-3.1-17.4-6.9-21.2-12.8s-6.1-18.9-2.1-26.3,3.6-21.2,1-30.5a95,95,0,0,0-6.7-15.7c-1.6-3.2-3.2-6.4-4.6-9.8a68.6,68.6,0,0,1-3.1-9.4c-1.5-5.3-2.9-10.3-6.6-15.5-6.1-8.8-14.4-19.1-24.2-19.9-5.5-.5-11,2.1-16.5,7.7-8,8.1-14.5,17.9-18,27s-5.5,19.9-5.1,28.1c.7,13.9,10.8,20.9,20.6,27.7,5.6,3.8,11.3,7.8,15.3,12.9a55.5,55.5,0,0,1,4.1,6.2c2.4,4,4.9,8.1,8.4,10.7l6.6,4.6c3.1,2.2,6.4,4.5,9.5,6.9a127.4,127.4,0,0,0,13.3,8.8c6.2,3.8,12.5,7.7,17.8,12.8l2,1.9c10.6,10.3,21.6,21.1,36.2,16.8,10.4-3.1,18.3-10.8,26.8-18.9s16.2-15.8,27.3-20.5c7.1-3,14.9-4.7,22.5-6.3v-.3c-7.6,1.5-15.4,3.3-22.6,6.3C727,599.2,718.7,607.2,710.7,615Z" style="fill:none;stroke:#fc6;stroke-miterlimit:10;stroke-width:0.1px"/><path d="M723.7,509.9c-5.8,1.2-11.6,4.1-17.8,7.1-10.3,5.1-20.9,10.3-30.7,7.3-17.6-5.5-24.3-24.2-30.3-40.7-1.2-3.3-2.3-6.5-3.6-9.6a89.9,89.9,0,0,0-10.1-18.6c-6.3-8.7-13.9-14.1-22.1-19.8l-3.7-2.5c-7.1-5.1-15.9-10.1-25.9-8.7-3.2.5-6.5,2.1-9.7,3.8s-3.9,2-5.7,2.7l-4.2,1.5c-10.8,3.9-21.9,8-29.6,16.7a57.3,57.3,0,0,0-5.9,8.9l-2.8,4.6a108.2,108.2,0,0,0-9.8,19.2c-2.9,7.4-4.6,15.4-6.2,23.2s-3.7,17-7,24.8-12.6,13.9-20.7,19l-6.1,4a124,124,0,0,0-14.8,13c-3,2.9-6.1,5.9-9.4,8.7-7.6,6.4-11,17.4-9,28.7,3.7,19.7,11.4,23,28,25.7,12.7,2.1,27.4,1.6,45-1.4,10.2-1.8,19.8-8.4,29.1-14.7,3.4-2.3,6.6-4.5,9.8-6.4,13-7.9,28.6-6.2,41.5,4.4l4.9,4c9.9,7.9,19.1,15.3,24.1,27.1a112.7,112.7,0,0,1,5,15.9,113.3,113.3,0,0,0,4.8,15.7A65.7,65.7,0,0,0,647,695.6c5.9,5.2,14.8,10.8,23.8,8.1s13.3-11.9,18.6-22c3.3-6.4,6.8-13,11.4-18.5,5.9-7.1,13.8-13.6,19.3-17.8l.5-.5c11.7-9.1,22.8-17.7,37.4-20.6l2.8-.5v-.3l-2.9.5c-14.7,2.9-25.8,11.5-37.4,20.6l-.7.5c-5.4,4.2-13.3,10.7-19.3,17.9-4.6,5.5-8,12.1-11.4,18.5-5.2,10.1-10.1,19.5-18.4,21.9s-17.6-2.9-23.4-8-13.1-14.5-16.1-22a133.6,133.6,0,0,1-4.9-15.6,115.2,115.2,0,0,0-5-16.1c-5-11.8-14.7-19.6-24.2-27.1l-4.9-4c-13-10.8-28.7-12.4-41.9-4.5-3.2,1.9-6.4,4.1-9.7,6.4-9.4,6.3-19,12.8-29.1,14.6-17.5,3.1-32.2,3.6-44.8,1.5-16.5-2.7-24-6-27.7-25.5-2.1-11.1,1.3-22,8.8-28.3,3.3-2.8,6.4-5.8,9.5-8.8A107.7,107.7,0,0,1,472,553.1c1.8-1.3,4-2.6,6.1-4,8.1-5.1,17.3-10.9,20.8-19.1s5.2-16.6,7-25,3.3-15.7,6.3-23.1a100.7,100.7,0,0,1,9.7-19.1,51.1,51.1,0,0,0,2.8-4.6,52.9,52.9,0,0,1,5.9-8.9c7.6-8.6,18.7-12.7,29.4-16.6l4.3-1.5a58.1,58.1,0,0,0,5.7-2.7c3.1-1.6,6.4-3.3,9.5-3.8,10-1.4,18.6,3.6,25.7,8.6l3.7,2.6c8.1,5.7,15.8,11,22,19.7A85,85,0,0,1,641,474.2q1.8,4.5,3.6,9.6c6,16.5,12.8,35.3,30.6,40.8,9.8,3.1,20.5-2.2,30.9-7.3,6.2-3,12-5.9,17.6-7.1,8-1.7,22.8-2.4,37.1-2.1v-.3C746.5,507.5,731.7,508.1,723.7,509.9Z" style="fill:none;stroke:#fc6;stroke-miterlimit:10;stroke-width:0.1px"/><path d="M716.5,227.9c-9.7,6.7-15.4,16.2-17.2,28.1-.7,4.7-.1,9.8.4,14.7s1.1,10.5.3,15.5-4,11-7.9,13.3a10.3,10.3,0,0,1-9.1.6c-10.4-12.1-18.8-20.1-31.6-25.4-3.7-1.4-7.4-2.7-12-4.1l-6.7-2.2c-13.9-4.6-28.3-9.3-51.7-7.3-11.2.9-19.7,3-27.1,10.4-4.8,5-8.5,10.9-12,16.6a132.3,132.3,0,0,1-8.3,12.3c-1.5,1.9-3.4,3.8-5.1,5.7s-5.4,5.6-7.4,8.8c-4.1,6.6-4.3,17.5-2.7,24.9,2,9.6,8.1,17.8,14.3,25.5,1.5,1.9,3,4,4.6,6.2,4.1,5.9,8.3,12,14.3,15.1s14.1,3.5,21.3,3a49.8,49.8,0,0,0,7.5-1.5c3.6-1,7.4-2,11-1.4,12.8,2.3,27.4,11.3,36.7,18.9a84.5,84.5,0,0,1,13.6,13.8c3.1,4,6.1,7.9,9.3,12.2,5.4,7.3,11,14.8,17.4,22.2s13.7,13.5,25.8,9.3c6.9-2.4,12.8-6.5,18.3-10.5,8.2-6,15.6-14.5,22.7-22.6s12.7-14.6,18.8-18.9a18,18,0,0,1,6.8-3v-.4a18.3,18.3,0,0,0-7,3.1c-6.1,4.4-12.3,11.4-18.9,19s-14.4,16.5-22.6,22.5c-5.6,4.2-11.4,8.1-18.2,10.5-11.9,4.1-19.6-2.4-25.4-9.2s-12-15-17.4-22.2c-3.2-4.3-6.2-8.3-9.3-12.2a85.8,85.8,0,0,0-13.7-13.9c-9.4-7.6-24-16.6-36.9-18.9-3.7-.7-7.4.3-11.1,1.3a37.4,37.4,0,0,1-7.4,1.5c-7.2.5-14.7.5-21.2-2.9s-10.1-9.2-14.2-15c-1.5-2.2-3-4.3-4.5-6.2-6.1-7.6-12.3-15.8-14.3-25.4-1.5-7.3-1.4-18.1,2.7-24.6a60.9,60.9,0,0,1,7.3-8.8,70.3,70.3,0,0,0,5.2-5.7,109.6,109.6,0,0,0,8.2-12.3c3.6-5.7,7.2-11.6,12.1-16.5,7.3-7.4,15.7-9.5,26.8-10.4,23.4-1.9,37.8,2.8,51.6,7.3l6.7,2.2a124,124,0,0,1,11.9,4.2c12.8,5.2,21.3,13.2,31.6,25.2h.1a11,11,0,0,0,9.4-.6c4-2.4,7.2-7.7,8.1-13.5s.2-10.4-.4-15.6-1-10-.3-14.6c1.7-11.9,7.4-21.3,17-27.9s26.1-11.1,44.1-10.4v-.4C742.7,216.8,727.4,220.3,716.5,227.9Z" style="fill:none;stroke:#fc6;stroke-miterlimit:10;stroke-width:0.1px"/><path d="M207.4,34c.6,4.9,1.4,14.1-.3,20.3C204.2,64.5,196,73.2,188,81.7c-11.2,12-22.8,24.3-19.2,40.9,1.9,8.9,6.7,14.4,14.7,16.9s15.6,1.9,25.2,1.4c17.6-1,29.6,1.9,36.5,4.5s13.5,7.2,19.7,11.5c8.4,5.8,16.4,11.2,25.3,12.5a29.6,29.6,0,0,0,9.9-.4c8.4-1.9,14.7-6.1,21.4-10.6,11.4-7.6,23.2-15.4,46-10.9,5,1,10,2.5,15.3,4.1,16.8,5,34.2,10.1,53.7-.2,17.6-8.9,28.6-25.1,39.3-40.8,5-7.3,10.2-14.9,15.9-21.5C499,80.6,508.9,69,521.1,73A87.8,87.8,0,0,0,536,76.1c7.8,1.3,15.8,2.6,23,7.1,5.2,3.2,9.2,7.8,13.1,12.3,1.8,2.1,3.7,4.3,5.7,6.3,4.4,4.4,7.9,9.6,11.3,14.6a125.9,125.9,0,0,0,9.5,12.6c4.7,4.2,8.9,7.8,13.7,12.2s11.3,11.7,16.4,17.8c9.9,11.8,19.3,22.9,31.5,26.5,8.6,2.5,17.5,2.2,28.9-1.1a151.8,151.8,0,0,0,19.7-7.7,265.5,265.5,0,0,0,34.4-19,47,47,0,0,0,17.6-21.3v-1a46.8,46.8,0,0,1-17.7,22,260.3,260.3,0,0,1-34.5,19c-5.6,2.5-13.6,6-19.6,7.7-11.3,3.2-20.2,3.6-28.7,1.1-12.1-3.6-21.4-14.7-31.3-26.4-5.2-6.1-10.5-12.5-16.4-17.8l-13.8-12.3a123.7,123.7,0,0,1-9.4-12.5A105.4,105.4,0,0,0,578,101.5c-2-2-3.8-4.1-5.6-6.2-4-4.5-8-9.2-13.2-12.4-7.3-4.6-15.4-5.9-23.2-7.1a111.4,111.4,0,0,1-14.8-3.1c-12.4-4.1-22.5,7.6-29.8,16.2a259.4,259.4,0,0,0-15.9,21.5c-10.7,15.7-21.7,31.9-39.2,40.7-19.3,10.2-36.7,5.1-53.4.1-5.3-1.5-10.3-3-15.3-4-23-4.6-34.8,3.3-46.2,10.9-6.7,4.5-13,8.7-21.4,10.5a24.3,24.3,0,0,1-9.7.4c-8.9-1.2-16.8-6.6-25.2-12.4-6.2-4.3-12.7-8.8-19.8-11.5s-18.9-5.6-36.6-4.6-35.3,2-39.6-18c-3.5-16.4,8-28.7,19.2-40.6,8-8.5,16.2-17.3,19.1-27.5,1.6-5.9,1.1-14.4.4-20.5-1.2-9.8-4.1-19.8-7.2-30.4L199.7.1h-.4c.3,1.1.7,2.3,1,3.5C203.3,14.2,206.2,24.2,207.4,34Z" style="fill:none;stroke:#fc6;stroke-miterlimit:10;stroke-width:0.1px"/><path d="M721.5,704.5c-1.3,7.1-1.9,14.3-2.5,21.4s-1.1,12.1-2,17.7h.3c1-5.6,1.5-11.6,2-17.7a193.4,193.4,0,0,1,2.6-21.3c4.5-24.5,16.7-39.1,35.4-42.3l3.5-.5v-.3l-3.6.4C738.4,665.2,726.1,679.9,721.5,704.5Z" style="fill:none;stroke:#fc6;stroke-miterlimit:10;stroke-width:0.1px"/><path d="M618.5,724c-2-7.3-5.4-14.8-8.6-22l-.5-1.2c-2.1-4.8-3.8-9.9-5.6-15.3-3.7-11-7.5-22.4-15-30.7s-17.6-11.4-29.9-11.4a48,48,0,0,0-19.2,3.8,55.7,55.7,0,0,0-16.5,10.9c-3.7,3.6-9.2,5.5-14.4,7.4a54.3,54.3,0,0,0-10.3,4.2c-9.6,5.4-15.6,13-17.4,22s-1.5,19.1-1.3,29.5c.1,6.4.2,12.9-.1,19,0,1.1-.1,2.2-.2,3.4h.4c.1-1.2.1-2.3.2-3.4.3-6,.2-12.6.1-19-.2-10.4-.4-21.1,1.3-29.5s7.7-16.3,17.2-21.7a57.5,57.5,0,0,1,10.2-4.2c5.3-1.9,10.7-3.8,14.5-7.4a53.7,53.7,0,0,1,16.5-10.8,45.1,45.1,0,0,1,19-3.9c12.2,0,23,4.2,29.6,11.4s11.3,19.5,14.9,30.6c1.9,5.3,3.5,10.5,5.7,15.2l.5,1.3c3.2,7.2,6.5,14.6,8.6,21.9,1.1,4.1,2.1,8.6,3.1,13l1.5,6.5h.4q-.7-3.1-1.5-6.6C620.7,732.6,619.7,728.1,618.5,724Z" style="fill:none;stroke:#fc6;stroke-miterlimit:10;stroke-width:0.1px"/><path d="M602.4,730.3c-.9-5.7-1.9-12.2-4.2-17.8a25.5,25.5,0,0,0-3.7-6.2,23.5,23.5,0,0,1-3-4.5,61.4,61.4,0,0,1-3.4-7.7c-3-7.8-6.2-15.9-14.8-18.2a35.3,35.3,0,0,0-8.2-.8c-3.7,0-7.6.3-11,.6l-3.8.3a63,63,0,0,0-32.1,11.5c-10.8,7.8-13.9,20.9-15.2,30.2-1.1,6.7-2.1,16.5,1.2,24.8.1.4.3.7.4,1.1h.4a6.1,6.1,0,0,1-.5-1.2c-3.2-8.2-2.2-18-1.2-24.7,1.4-9.1,4.4-22.2,15.1-30a63.4,63.4,0,0,1,31.9-11.4l3.8-.2c3.5-.3,7.3-.7,11-.7a29.2,29.2,0,0,1,8.1.9c8.5,2.2,11.6,10.2,14.6,17.9a57,57,0,0,0,3.4,7.8,27.1,27.1,0,0,0,3,4.5,26.8,26.8,0,0,1,3.7,6.1c2.3,5.6,3.3,12.1,4.1,17.8a80.1,80.1,0,0,1,.8,13.2h.4A94.1,94.1,0,0,0,602.4,730.3Z" style="fill:none;stroke:#fc6;stroke-miterlimit:10;stroke-width:0.1px"/><path d="M760.5,688.1h0c-16.7,1.5-26.1,19.7-28.6,55.5h.4c2.5-35.6,11.7-53.6,28.2-55.1h.3v-.3Z" style="fill:none;stroke:#fc6;stroke-miterlimit:10;stroke-width:0.1px"/><path d="M756.3,733c-1.8,3.1-3.6,6.6-4,10.6h.4c.3-3.9,2.1-7.4,3.9-10.3a11.6,11.6,0,0,1,4.2-1.6v-.3a9.8,9.8,0,0,0-4.5,1.6Z" style="fill:none;stroke:#fc6;stroke-miterlimit:10;stroke-width:0.1px"/><path d="M194.7,696c2.8-9,7.4-14.4,14.8-22.5l3.7-3.9c5.2-5.4,11.2-11.6,12.5-17.9,2.6-12.8-5.3-20.3-13.4-25.9a106,106,0,0,0-12.8-7c-5.6-2.8-11.5-5.6-16.3-9.8s-9.5-10.7-13.1-18.7c-1.6-3.6-2.3-7.5-3.1-11.2a53.2,53.2,0,0,0-2.9-10.9c-7.1-15.8-16.3-33.7-31.4-46.2-6.5-5.4-14.8-14-17-24.2-1.4-6.8.5-12.6,2.2-17.4l.2-.8c3.6-10.7,14.3-36.1,36.7-42.5,4-1.1,9-2,14.2-2.9s13.3-2.3,18.2-4.1c7.7-2.9,13.2-6.8,19-11.3l.8-.6c5.6-4.3,12.5-9.6,21.6-8.9s16.8,4.7,24.5,11.3,13,14.6,14.4,21.9c.8,4.8,1.2,8.6,1.6,12.3s.6,6.2,1.2,9.5c2.9,16.6,10.9,29.9,23.7,39.3,10.5,7.7,24.4,13.1,41.4,16.1,22.1,3.8,40.9-3.4,47.9-6.7,11.1-5.2,23.1-17.7,33.5-29.1s15.7-18,16.9-36a116.6,116.6,0,0,0-.5-16.8c-.2-2.1-.4-4.2-.5-6.4s-.3-3.2-.4-4.9c-.5-5.4-1-11.1,0-16.9,2.1-11.9,9-17.2,21.2-16a42.1,42.1,0,0,1,35.4,26.8c4.5,11.8.9,24.2-2,34.1l-.5,1.7c-4.7,16.5-11.1,29.3-19.6,39.3-4.8,5.6-10.1,10.9-15.3,16l-5.7,5.8c-2.7,2.7-5.7,5.2-8.6,7.6a97.7,97.7,0,0,0-10.6,9.8,83.2,83.2,0,0,0-10.5,15.8c-8.9,16.2-15,30.6-18.9,43.7s-13,21.3-25.5,25.2c-16.1,5.1-39.3,4.5-68.8-1.7-14.4-3.1-23-11.3-25.5-24.6-2.8-15.2-13.1-22.8-24-30.8-2.8-2-5.6-4.2-8.4-6.4-11.5-9.5-5.8-18.4.3-27.9,2.7-4.2,5.5-8.6,6.7-13,1.9-7-.6-14.3-3-21.5a67.6,67.6,0,0,1-2.9-10.6c-2.8-16.4-5.6-29.4-14-34.7-4.5-2.9-10.2-3.3-17.6-1.2l-3.9,1.1c-2.9.9-6.1,1.8-8.8,2.4-4.6,1-9.4,1.6-14.5,2.3s-10.9,1.3-17.1,2.6a44.4,44.4,0,0,0-23.7,13,42.4,42.4,0,0,0-11.1,23.4,24.1,24.1,0,0,0,.3,10.7c3.1,10.3,12.5,17.7,20.8,24.1,2,1.5,3.8,2.9,5.5,4.4l.3.2c8.1,6.6,18.1,14.9,17.7,26.3s1.1,20.2,5,28.4c6.1,12.9,14.7,20.8,29.8,27.1l3.3,1.3c5.2,2.2,10.5,4.4,15.5,7.1s6.7,5.2,9.6,8.2,3.2,3.3,5,5a53.8,53.8,0,0,1,6.7,7.3c5.6,7,12.1,14.9,22,13,5.1-.9,10.1-4.4,15.4-8.1s9.5-6.6,14.9-8.8c9.1-3.6,22-4.4,35.7-5.3,8.3-.6,16.8-1.2,24.7-2.4,17.8-2.8,29.9-9,36.8-19.1a44.6,44.6,0,0,0,4.8-9.5,50.7,50.7,0,0,1,3.4-7.5,17.9,17.9,0,0,1,4.1-4.6l2.5-2.5c1.4-1.5,2.8-3.2,4.1-4.8s3-3.7,4.7-5.5,5.4-5.3,8.1-7.8a105.7,105.7,0,0,0,7.7-7.3,62.6,62.6,0,0,0,5.2-6.6,44.5,44.5,0,0,1,5.9-7.4,100.3,100.3,0,0,0,11.7-13.4c2.9-4.2,4.2-8.3,5.7-12.6.4-1.3.8-2.7,1.3-4.1a42.7,42.7,0,0,1,5-9.1c1.1-1.7,2.3-3.4,3.2-5.1A181.2,181.2,0,0,0,491,477c.7-1.8,1.3-3.7,2-5.5a19.5,19.5,0,0,1,.8-2.2c1.2-3.5,2.6-7,3.9-10.3,3.6-9.8,7.5-19.9,9.5-29.1,1.2-5.9,2.3-12.2,1-18.4-4.6-21.3-25.2-43.4-44.1-47.5-8.7-1.8-19.8-1.7-31,.4-18.7,3.5-25.6,12.5-24.7,32.2.2,4.6.7,9.2,1.1,13.7.8,9.7,1.7,18.9.7,27.7a48.5,48.5,0,0,1-3.5,12.6c-2.8,6.7-9.1,18-16.9,30.2s-18.1,20.9-28.4,24.2c-19.7,6.2-46.1,0-61.5-14.5-7.7-7.2-15.9-19.7-11.3-37.4a27.9,27.9,0,0,1,1.2-3.4,15.4,15.4,0,0,0,1.6-4.4,86.6,86.6,0,0,1,8.3-11.3c6.5-8.1,12.7-15.8,10.3-26.7a33.3,33.3,0,0,0-2.3-6.4c-1.9-4.7-3.9-9.5-1.6-12.4,4.1-5.1,9.6-10.3,15.5-15.9,10.2-9.7,20.7-19.7,23.7-29.1s-3.2-18.7-5.8-22.7-6.1-8.7-9.6-13.5l-8-11.1-6.4-9.1c-4.8-6.9-9.3-13.4-14-20.4l-5.5-8.6c-3-4.8-6.1-9.7-9.3-13.9-6.8-9.2-14.5-13-23-11.2s-17.5,8.2-25.4,14.1l-3.2,2.4c-14.7,11-31.4,23.5-35.8,37.4-3.7,11.8,3.2,17.3,10.4,23.2l2.4,1.9a88.8,88.8,0,0,1,11.5,11.6,142.5,142.5,0,0,1,11.2,16c2.4,3.9,4.8,7.7,7.1,10.7,8,10.5,18.3,15.1,28.3,19.6s20,8.9,27.7,18.9v1.1a10.8,10.8,0,0,1-.2,3.1c-9.1,9.8-20.5,12.3-34.6,7.6a86.5,86.5,0,0,1-13.1-6.3c-10.2-5.4-20.6-11.1-32.7-7.4-8.7,2.6-14.7,8.7-20.5,14.6s-11.7,11.9-20.3,14.9c-5,1.7-10.2,2.2-17.5,2.8-18.4,1.4-27.3,3.5-34.9,13.1-9.9,12.7-22.2,35.1-26,44.3a50.8,50.8,0,0,0-2.8,8.5c-3.2,16.2,6.7,28.8,15.6,38,2.2,2.2,4.6,4.2,6.9,6.2s4.2,3.6,6.2,5.5c4,4,7.2,8.8,10.3,13.4,1.6,2.3,3.2,4.7,4.9,7,12.4,16.5,16.1,30.9,12.1,46.7-2.9,11.3-9.5,25.6-24.7,29.5a131.7,131.7,0,0,1-17.9,2.8A161.9,161.9,0,0,0,90.8,637c-5.2,1.2-10.2,2.7-14.9,4.2-6.7,2.1-13,4.1-19.5,4.9C45,647.7,34.8,645.3,25,643S8.1,639.1.1,640.2v.3c8-1.1,16.2.8,24.8,2.8s20,4.7,31.5,3.2c6.6-.9,12.9-2.9,19.6-4.9,4.7-1.5,9.7-3.1,14.9-4.3s12-2,17.9-2.7a121.7,121.7,0,0,0,17.9-2.9c12.1-3.1,20.8-13.4,24.9-29.7s.3-30.4-12.1-47c-1.7-2.3-3.3-4.7-4.9-7a89.1,89.1,0,0,0-10.4-13.4,78.8,78.8,0,0,0-6.2-5.5c-2.3-2-4.6-4.1-6.8-6.3-8.9-9.1-18.8-21.6-15.5-37.6a47.5,47.5,0,0,1,2.8-8.4c3.7-9.3,16-31.6,25.9-44.2,7.5-9.5,16.3-11.7,34.6-13.1,7.3-.5,12.5-1,17.7-2.8,8.6-3,14.6-9.1,20.4-14.9s11.7-12,20.3-14.6c11.9-3.6,22.4,2,32.4,7.5,4.6,2.4,8.8,4.8,13.2,6.2,14.3,4.8,25.7,2.3,35-7.7h0a8.7,8.7,0,0,0,.2-3.2v-1.1h0c-7.7-10.2-17.9-14.7-27.8-19.1s-20.3-9.1-28.2-19.5a116.8,116.8,0,0,1-7.1-10.7,142.5,142.5,0,0,0-11.2-16,90.4,90.4,0,0,0-11.6-11.7l-2.3-1.9c-7.2-5.8-14-11.2-10.3-22.8,4.3-13.8,21-26.2,35.6-37.3a38.1,38.1,0,0,0,3.2-2.4c7.9-5.9,16.9-12.3,25.2-14s16,2,22.8,11.1c3.1,4.2,6.2,9.1,9.2,13.9l5.5,8.6,14,20.4,6.4,9.1c2.6,3.7,5.3,7.5,8,11.1s6.8,9.2,9.6,13.5,8.7,13.2,5.8,22.4-13.5,19.3-23.6,28.9c-5.9,5.6-11.5,10.9-15.5,16-2.5,3-.5,7.9,1.5,12.7a33.3,33.3,0,0,1,2.3,6.4c2.3,10.7-3.8,18.3-10.3,26.3a88.8,88.8,0,0,0-8.3,11.5h0a31.6,31.6,0,0,1-1.6,4.3,29.2,29.2,0,0,0-1.3,3.4c-3.5,14,.5,27.4,11.5,37.8,15.4,14.6,42,20.7,61.8,14.5,10.4-3.3,20.9-12.2,28.6-24.3s14.2-23.6,16.9-30.2a50.5,50.5,0,0,0,3.5-12.7c1-8.9.2-18.1-.7-27.8-.4-4.5-.8-9.2-1-13.7-.1-2.4-.1-3.5-.1-4.8s.5-10.7,4.9-17.1,11.4-8.4,19.5-10c11.3-2.1,22.2-2.2,30.9-.3,18.8,4,39.3,26,43.8,47.2,1.4,6.1.3,12.3-1,18.2-2,9.2-5.8,19.3-9.5,29-1.3,3.4-2.6,6.9-3.8,10.3l-.9,2.3-1.9,5.5a171.7,171.7,0,0,1-9.2,19.6c-.9,1.7-2.1,3.4-3.2,5.2a42.7,42.7,0,0,0-5,9.1c-.5,1.4-1,2.8-1.4,4.1-1.4,4.3-2.7,8.4-5.5,12.5a100.9,100.9,0,0,1-11.8,13.3,49.7,49.7,0,0,0-5.9,7.5,62.6,62.6,0,0,1-5.2,6.6c-2.4,2.5-5,5-7.6,7.3s-5.6,5-8.2,7.8-3.2,3.6-4.7,5.5l-4.1,4.8a14.2,14.2,0,0,1-2.5,2.4,20.4,20.4,0,0,0-4.1,4.7,46.2,46.2,0,0,0-3.5,7.5,46.3,46.3,0,0,1-4.6,9.5c-7,10-18.9,16.2-36.7,19-7.8,1.2-16.3,1.8-24.7,2.3-13.6,1-26.6,1.8-35.8,5.4-5.4,2.2-10.2,5.5-14.9,8.7s-10.2,7.2-15.2,8.2c-9.8,1.8-16.1-6-21.8-12.9a61.5,61.5,0,0,0-6.6-7.4,60.5,60.5,0,0,1-5.1-5c-2.9-3-5.6-5.9-9.7-8.2a133.4,133.4,0,0,0-15.4-7.1l-3.4-1.4c-14.9-6.2-23.5-14-29.6-26.8-3.8-8.2-5.3-16.7-4.9-28.3s-9.8-19.9-17.9-26.6l-.3-.2c-1.7-1.5-3.5-2.9-5.4-4.4-8.7-6.7-17.7-13.7-20.7-24a24.2,24.2,0,0,1-.4-10.4c2.6-18.4,15.8-32.2,34.6-36.1,6.1-1.3,11.7-2,17.1-2.7a125.6,125.6,0,0,0,14.5-2.3c2.7-.6,5.9-1.5,8.8-2.3l3.9-1.2c7.3-2,12.9-1.6,17.3,1.2,8.3,5.2,11,18.1,13.8,34.4a79.9,79.9,0,0,0,3,10.8c2.4,7,4.8,14.3,3,21.2-1.2,4.4-4,8.7-6.7,12.9-6.2,9.6-12,18.7-.2,28.3,2.8,2.3,5.6,4.4,8.4,6.5,10.8,7.9,21,15.4,23.8,30.5,2.6,13.5,11.2,21.9,25.9,24.9,29.5,6.3,52.7,6.9,68.9,1.8,12.7-4,22.3-13.5,25.8-25.5s9.9-27.4,18.8-43.6a88.3,88.3,0,0,1,10.5-15.8,81.3,81.3,0,0,1,10.6-9.7c2.8-2.5,5.8-4.9,8.5-7.7l5.8-5.8c5.1-5.1,10.5-10.4,15.3-16,8.5-10,14.9-22.9,19.7-39.4l.4-1.7c2.9-9.9,6.5-22.4,2-34.3a42.5,42.5,0,0,0-35.7-27.1c-12.4-1.2-19.5,4.2-21.5,16.4-1.1,5.8-.6,11.5-.1,17,.2,1.7.3,3.2.4,4.8s.3,4.3.5,6.5a115,115,0,0,1,.6,16.7c-1.3,17.8-6.7,24.5-16.9,35.7s-22.3,23.9-33.4,29.1c-6.9,3.3-25.6,10.5-47.7,6.6-37.7-6.5-59.5-25-64.8-55.1-.5-3.2-.8-6.3-1.1-9.4s-.8-7.6-1.7-12.4c-1.3-7.4-6.6-15.4-14.5-22.1s-16.8-10.7-24.7-11.3-16.2,4.6-21.8,8.9l-.8.7c-5.9,4.4-11.3,8.3-18.9,11.2-4.9,1.8-11.7,2.9-18.2,4.1a135.9,135.9,0,0,0-14.2,2.9c-22.5,6.4-33.3,32-36.9,42.7l-.3.8c-1.6,4.8-3.6,10.7-2.1,17.5,2.1,10.4,10.5,19,17.1,24.5,15,12.5,24.3,30.3,31.3,46.1a49.2,49.2,0,0,1,2.9,10.8,45.6,45.6,0,0,0,3.1,11.2c3.6,8.1,8.1,14.4,13.2,18.9s10.7,7,16.3,9.7,8.9,4.3,12.8,7.1c8,5.6,15.8,12.9,13.2,25.5-1.3,6.3-7.1,12.4-12.4,17.7l-3.7,4c-7.4,8.1-12,13.5-14.8,22.6-2.1,6.7-2.2,18.8-.3,27.5,1.5,7,3.3,13.7,5.2,20.2h.4c-1.9-6.5-3.8-13.3-5.3-20.3C192.6,714.7,192.7,702.7,194.7,696Z" style="fill:none;stroke:#fc6;stroke-miterlimit:10;stroke-width:0.1px"/></g></svg>