<?xml version="1.0" standalone="no"?>
<!DOCTYPE svg PUBLIC "-//W3C//DTD SVG 20010904//EN"
 "http://www.w3.org/TR/2001/REC-SVG-20010904/DTD/svg10.dtd">
<svg version="1.0" xmlns="http://www.w3.org/2000/svg"
 width="128.000000pt" height="128.000000pt" viewBox="0 0 128.000000 128.000000"
 preserveAspectRatio="xMidYMid meet">
<metadata>
Created by potrace 1.11, written by Peter Selinger 2001-2013
</metadata>
<g transform="translate(0.000000,128.000000) scale(0.100000,-0.100000)"
fill="#000000" stroke="none">
<path d="M553 1222 c-18 -2 -34 -7 -34 -13 -1 -5 -3 -18 -4 -29 -1 -11 -4 -23
-5 -27 -1 -5 -1 -12 0 -18 11 -50 9 -53 -47 -60 -170 -21 -207 -32 -221 -65
-11 -25 -11 -33 4 -54 19 -30 10 -30 149 -7 61 10 113 17 116 15 4 -2 5 -71 0
-82 -1 -1 -17 5 -38 13 -20 8 -37 14 -38 13 0 -2 -8 -15 -18 -29 -13 -21 -14
-34 -6 -62 8 -32 15 -38 57 -49 l47 -14 5 -349 c5 -329 6 -350 23 -353 10 -2
29 -1 41 2 l23 6 -1 400 -1 400 30 5 c17 3 79 12 139 20 60 8 110 16 111 17 1
2 11 17 23 34 l21 30 -23 29 -23 29 -69 -12 c-38 -7 -89 -15 -114 -18 -25 -3
-55 -7 -67 -9 -19 -3 -20 0 -13 24 4 16 6 40 3 55 -4 20 -1 26 13 27 11 0 44
2 74 4 30 2 107 6 170 9 110 5 115 7 144 36 l30 30 -29 30 c-28 29 -34 31 -80
26 -112 -12 -336 -18 -348 -10 -6 5 -27 8 -44 6z"/>
</g>
</svg>
